{
    "asset" : {
        "generator" : "Khronos glTF Blender I/O v1.0.5",
        "version" : "2.0"
    },
    "scene" : 0,
    "scenes" : [
        {
            "name" : "Scene",
            "nodes" : [
                0,
                1,
                2,
                3,
                4,
                5,
                6,
                7
            ]
        }
    ],
    "nodes" : [
        {
            "name" : "Empty",
            "rotation" : [
                0,
                -0.7071067690849304,
                0,
                0.7071067690849304
            ]
        },
        {
            "mesh" : 0,
            "name" : "Object.007"
        },
        {
            "mesh" : 1,
            "name" : "Object.001"
        },
        {
            "mesh" : 2,
            "name" : "Object.002"
        },
        {
            "mesh" : 3,
            "name" : "Object.003"
        },
        {
            "mesh" : 4,
            "name" : "Object.004"
        },
        {
            "mesh" : 5,
            "name" : "Object.005"
        },
        {
            "mesh" : 6,
            "name" : "Object.006"
        }
    ],
    "meshes" : [
        {
            "name" : "Cube.016",
            "primitives" : [
                {
                    "attributes" : {
                        "POSITION" : 0,
                        "NORMAL" : 1,
                        "TEXCOORD_0" : 2
                    },
                    "indices" : 3
                }
            ]
        },
        {
            "name" : "Cube.018",
            "primitives" : [
                {
                    "attributes" : {
                        "POSITION" : 4,
                        "NORMAL" : 5,
                        "TEXCOORD_0" : 6
                    },
                    "indices" : 7
                }
            ]
        },
        {
            "name" : "Cube.019",
            "primitives" : [
                {
                    "attributes" : {
                        "POSITION" : 8,
                        "NORMAL" : 9,
                        "TEXCOORD_0" : 10
                    },
                    "indices" : 7
                }
            ]
        },
        {
            "name" : "Cube.020",
            "primitives" : [
                {
                    "attributes" : {
                        "POSITION" : 11,
                        "NORMAL" : 12,
                        "TEXCOORD_0" : 13
                    },
                    "indices" : 7
                }
            ]
        },
        {
            "name" : "Cube.021",
            "primitives" : [
                {
                    "attributes" : {
                        "POSITION" : 14,
                        "NORMAL" : 15,
                        "TEXCOORD_0" : 16
                    },
                    "indices" : 7
                }
            ]
        },
        {
            "name" : "Cube.022",
            "primitives" : [
                {
                    "attributes" : {
                        "POSITION" : 17,
                        "NORMAL" : 18,
                        "TEXCOORD_0" : 19
                    },
                    "indices" : 7
                }
            ]
        },
        {
            "name" : "Cube.023",
            "primitives" : [
                {
                    "attributes" : {
                        "POSITION" : 20,
                        "NORMAL" : 21,
                        "TEXCOORD_0" : 22
                    },
                    "indices" : 7
                }
            ]
        }
    ],
    "accessors" : [
        {
            "bufferView" : 0,
            "componentType" : 5126,
            "count" : 834,
            "max" : [
                1.823880672454834,
                1.6116020679473877,
                0.3881930708885193
            ],
            "min" : [
                -1.839393138885498,
                -1.6966053247451782,
                -0.38802245259284973
            ],
            "type" : "VEC3"
        },
        {
            "bufferView" : 1,
            "componentType" : 5126,
            "count" : 834,
            "type" : "VEC3"
        },
        {
            "bufferView" : 2,
            "componentType" : 5126,
            "count" : 834,
            "type" : "VEC2"
        },
        {
            "bufferView" : 3,
            "componentType" : 5123,
            "count" : 2448,
            "type" : "SCALAR"
        },
        {
            "bufferView" : 4,
            "componentType" : 5126,
            "count" : 24,
            "max" : [
                -1.316748857498169,
                -1.8301589488983154,
                0.19405299425125122
            ],
            "min" : [
                -1.8183673620224,
                -2,
                -0.19405299425125122
            ],
            "type" : "VEC3"
        },
        {
            "bufferView" : 5,
            "componentType" : 5126,
            "count" : 24,
            "type" : "VEC3"
        },
        {
            "bufferView" : 6,
            "componentType" : 5126,
            "count" : 24,
            "type" : "VEC2"
        },
        {
            "bufferView" : 7,
            "componentType" : 5123,
            "count" : 36,
            "type" : "SCALAR"
        },
        {
            "bufferView" : 8,
            "componentType" : 5126,
            "count" : 24,
            "max" : [
                -0.6897256374359131,
                -1.6603178977966309,
                0.19405299425125122
            ],
            "min" : [
                -1.1913442611694336,
                -2,
                -0.19405299425125122
            ],
            "type" : "VEC3"
        },
        {
            "bufferView" : 9,
            "componentType" : 5126,
            "count" : 24,
            "type" : "VEC3"
        },
        {
            "bufferView" : 10,
            "componentType" : 5126,
            "count" : 24,
            "type" : "VEC2"
        },
        {
            "bufferView" : 11,
            "componentType" : 5126,
            "count" : 24,
            "max" : [
                -0.06270232051610947,
                -1.405556559562683,
                0.19405299425125122
            ],
            "min" : [
                -0.564320981502533,
                -2,
                -0.19405299425125122
            ],
            "type" : "VEC3"
        },
        {
            "bufferView" : 12,
            "componentType" : 5126,
            "count" : 24,
            "type" : "VEC3"
        },
        {
            "bufferView" : 13,
            "componentType" : 5126,
            "count" : 24,
            "type" : "VEC2"
        },
        {
            "bufferView" : 14,
            "componentType" : 5126,
            "count" : 24,
            "max" : [
                0.5643208622932434,
                -1.065874695777893,
                0.19405299425125122
            ],
            "min" : [
                0.06270232051610947,
                -2,
                -0.19405299425125122
            ],
            "type" : "VEC3"
        },
        {
            "bufferView" : 15,
            "componentType" : 5126,
            "count" : 24,
            "type" : "VEC3"
        },
        {
            "bufferView" : 16,
            "componentType" : 5126,
            "count" : 24,
            "type" : "VEC2"
        },
        {
            "bufferView" : 17,
            "componentType" : 5126,
            "count" : 24,
            "max" : [
                1.191344141960144,
                -0.6412718296051025,
                0.19405299425125122
            ],
            "min" : [
                0.6897255182266235,
                -2,
                -0.19405299425125122
            ],
            "type" : "VEC3"
        },
        {
            "bufferView" : 18,
            "componentType" : 5126,
            "count" : 24,
            "type" : "VEC3"
        },
        {
            "bufferView" : 19,
            "componentType" : 5126,
            "count" : 24,
            "type" : "VEC2"
        },
        {
            "bufferView" : 20,
            "componentType" : 5126,
            "count" : 24,
            "max" : [
                1.8183671236038208,
                -0.13174891471862793,
                0.19405299425125122
            ],
            "min" : [
                1.3167486190795898,
                -2,
                -0.19405299425125122
            ],
            "type" : "VEC3"
        },
        {
            "bufferView" : 21,
            "componentType" : 5126,
            "count" : 24,
            "type" : "VEC3"
        },
        {
            "bufferView" : 22,
            "componentType" : 5126,
            "count" : 24,
            "type" : "VEC2"
        }
    ],
    "bufferViews" : [
        {
            "buffer" : 0,
            "byteLength" : 10008,
            "byteOffset" : 0
        },
        {
            "buffer" : 0,
            "byteLength" : 10008,
            "byteOffset" : 10008
        },
        {
            "buffer" : 0,
            "byteLength" : 6672,
            "byteOffset" : 20016
        },
        {
            "buffer" : 0,
            "byteLength" : 4896,
            "byteOffset" : 26688
        },
        {
            "buffer" : 0,
            "byteLength" : 288,
            "byteOffset" : 31584
        },
        {
            "buffer" : 0,
            "byteLength" : 288,
            "byteOffset" : 31872
        },
        {
            "buffer" : 0,
            "byteLength" : 192,
            "byteOffset" : 32160
        },
        {
            "buffer" : 0,
            "byteLength" : 72,
            "byteOffset" : 32352
        },
        {
            "buffer" : 0,
            "byteLength" : 288,
            "byteOffset" : 32424
        },
        {
            "buffer" : 0,
            "byteLength" : 288,
            "byteOffset" : 32712
        },
        {
            "buffer" : 0,
            "byteLength" : 192,
            "byteOffset" : 33000
        },
        {
            "buffer" : 0,
            "byteLength" : 288,
            "byteOffset" : 33192
        },
        {
            "buffer" : 0,
            "byteLength" : 288,
            "byteOffset" : 33480
        },
        {
            "buffer" : 0,
            "byteLength" : 192,
            "byteOffset" : 33768
        },
        {
            "buffer" : 0,
            "byteLength" : 288,
            "byteOffset" : 33960
        },
        {
            "buffer" : 0,
            "byteLength" : 288,
            "byteOffset" : 34248
        },
        {
            "buffer" : 0,
            "byteLength" : 192,
            "byteOffset" : 34536
        },
        {
            "buffer" : 0,
            "byteLength" : 288,
            "byteOffset" : 34728
        },
        {
            "buffer" : 0,
            "byteLength" : 288,
            "byteOffset" : 35016
        },
        {
            "buffer" : 0,
            "byteLength" : 192,
            "byteOffset" : 35304
        },
        {
            "buffer" : 0,
            "byteLength" : 288,
            "byteOffset" : 35496
        },
        {
            "buffer" : 0,
            "byteLength" : 288,
            "byteOffset" : 35784
        },
        {
            "buffer" : 0,
            "byteLength" : 192,
            "byteOffset" : 36072
        }
    ],
    "buffers" : [
        {
            "byteLength" : 36264,
            "uri" : "data:application/octet-stream;base64,"
        }
    ]
}
