{
    "asset" : {
        "generator" : "Khronos glTF Blender I/O v1.0.5",
        "version" : "2.0"
    },
    "scene" : 0,
    "scenes" : [
        {
            "name" : "Scene",
            "nodes" : [
                0,
                1,
                2
            ]
        }
    ],
    "nodes" : [
        {
            "name" : "Empty",
            "rotation" : [
                0,
                -0.7071067690849304,
                0,
                0.7071067690849304
            ]
        },
        {
            "mesh" : 0,
            "name" : "Object.001",
            "scale" : [
                0.4411625564098358,
                0.4411625564098358,
                0.4411625564098358
            ]
        },
        {
            "mesh" : 1,
            "name" : "Object.002",
            "scale" : [
                1.7721500396728516,
                1.7721500396728516,
                1.7721500396728516
            ]
        }
    ],
    "meshes" : [
        {
            "name" : "Sphere.001",
            "primitives" : [
                {
                    "attributes" : {
                        "POSITION" : 0,
                        "NORMAL" : 1,
                        "TEXCOORD_0" : 2
                    },
                    "indices" : 3
                }
            ]
        },
        {
            "name" : "Sphere.005",
            "primitives" : [
                {
                    "attributes" : {
                        "POSITION" : 4,
                        "NORMAL" : 5,
                        "TEXCOORD_0" : 6
                    },
                    "indices" : 7
                }
            ]
        }
    ],
    "accessors" : [
        {
            "bufferView" : 0,
            "componentType" : 5126,
            "count" : 21780,
            "max" : [
                4.05797815322876,
                3.7384986877441406,
                3.9876174926757812
            ],
            "min" : [
                -4.093799114227295,
                -3.594575881958008,
                -4.048886299133301
            ],
            "type" : "VEC3"
        },
        {
            "bufferView" : 1,
            "componentType" : 5126,
            "count" : 21780,
            "type" : "VEC3"
        },
        {
            "bufferView" : 2,
            "componentType" : 5126,
            "count" : 21780,
            "type" : "VEC2"
        },
        {
            "bufferView" : 3,
            "componentType" : 5123,
            "count" : 69480,
            "type" : "SCALAR"
        },
        {
            "bufferView" : 4,
            "componentType" : 5126,
            "count" : 8383,
            "max" : [
                0.9999982714653015,
                1,
                0.9999966621398926
            ],
            "min" : [
                -0.9999975562095642,
                -1,
                -1
            ],
            "type" : "VEC3"
        },
        {
            "bufferView" : 5,
            "componentType" : 5126,
            "count" : 8383,
            "type" : "VEC3"
        },
        {
            "bufferView" : 6,
            "componentType" : 5126,
            "count" : 8383,
            "type" : "VEC2"
        },
        {
            "bufferView" : 7,
            "componentType" : 5123,
            "count" : 48384,
            "type" : "SCALAR"
        }
    ],
    "bufferViews" : [
        {
            "buffer" : 0,
            "byteLength" : 261360,
            "byteOffset" : 0
        },
        {
            "buffer" : 0,
            "byteLength" : 261360,
            "byteOffset" : 261360
        },
        {
            "buffer" : 0,
            "byteLength" : 174240,
            "byteOffset" : 522720
        },
        {
            "buffer" : 0,
            "byteLength" : 138960,
            "byteOffset" : 696960
        },
        {
            "buffer" : 0,
            "byteLength" : 100596,
            "byteOffset" : 835920
        },
        {
            "buffer" : 0,
            "byteLength" : 100596,
            "byteOffset" : 936516
        },
        {
            "buffer" : 0,
            "byteLength" : 67064,
            "byteOffset" : 1037112
        },
        {
            "buffer" : 0,
            "byteLength" : 96768,
            "byteOffset" : 1104176
        }
    ],
    "buffers" : [
        {
            "byteLength" : 1200944,
            "uri" : "data:application/octet-stream;base64,"
        }
    ]
}
