{
    "asset" : {
        "generator" : "Khronos glTF Blender I/O v1.0.5",
        "version" : "2.0"
    },
    "scene" : 0,
    "scenes" : [
        {
            "name" : "Scene",
            "nodes" : [
                0,
                1,
                2,
                3,
                4
            ]
        }
    ],
    "nodes" : [
        {
            "name" : "Empty",
            "rotation" : [
                0,
                -0.7071067690849304,
                0,
                0.7071067690849304
            ]
        },
        {
            "mesh" : 0,
            "name" : "Object.002",
            "scale" : [
                0.7375221848487854,
                0.7375223636627197,
                0.7375224828720093
            ],
            "translation" : [
                0,
                -1.1568706035614014,
                0
            ]
        },
        {
            "mesh" : 1,
            "name" : "Object.003",
            "scale" : [
                0.7375221848487854,
                0.7375223636627197,
                0.7375224828720093
            ],
            "translation" : [
                0,
                -1.1568706035614014,
                0
            ]
        },
        {
            "mesh" : 2,
            "name" : "Object.001",
            "scale" : [
                0.7375221848487854,
                0.7375223636627197,
                0.7375224828720093
            ],
            "translation" : [
                0,
                -1.1568706035614014,
                0
            ]
        },
        {
            "mesh" : 3,
            "name" : "Object.004",
            "scale" : [
                0.7375221848487854,
                0.7375223636627197,
                0.7375224828720093
            ],
            "translation" : [
                0,
                -1.1568706035614014,
                0
            ]
        }
    ],
    "materials" : [
        {
            "doubleSided" : true,
            "name" : "Metal",
            "pbrMetallicRoughness" : {}
        },
        {
            "doubleSided" : true,
            "name" : "Glass Lit.001",
            "pbrMetallicRoughness" : {}
        }
    ],
    "meshes" : [
        {
            "name" : "Circle.001",
            "primitives" : [
                {
                    "attributes" : {
                        "POSITION" : 0,
                        "NORMAL" : 1
                    },
                    "indices" : 2,
                    "material" : 0
                }
            ]
        },
        {
            "name" : "Circle.002",
            "primitives" : [
                {
                    "attributes" : {
                        "POSITION" : 3,
                        "NORMAL" : 4
                    },
                    "indices" : 5,
                    "material" : 1
                }
            ]
        },
        {
            "name" : "Circle.003",
            "primitives" : [
                {
                    "attributes" : {
                        "POSITION" : 6,
                        "NORMAL" : 7
                    },
                    "indices" : 8,
                    "material" : 0
                }
            ]
        },
        {
            "name" : "Circle.004",
            "primitives" : [
                {
                    "attributes" : {
                        "POSITION" : 9,
                        "NORMAL" : 10
                    },
                    "indices" : 11,
                    "material" : 0
                }
            ]
        }
    ],
    "accessors" : [
        {
            "bufferView" : 0,
            "componentType" : 5126,
            "count" : 3990,
            "max" : [
                0.5994880199432373,
                0.07463575899600983,
                0.6067543625831604
            ],
            "min" : [
                -0.6087622046470642,
                -1.044303297996521,
                -0.5972391963005066
            ],
            "type" : "VEC3"
        },
        {
            "bufferView" : 1,
            "componentType" : 5126,
            "count" : 3990,
            "type" : "VEC3"
        },
        {
            "bufferView" : 2,
            "componentType" : 5123,
            "count" : 23928,
            "type" : "SCALAR"
        },
        {
            "bufferView" : 3,
            "componentType" : 5126,
            "count" : 7810,
            "max" : [
                1.1414437294006348,
                2.7352206707000732,
                1.141444444656372
            ],
            "min" : [
                -1.141445279121399,
                -0.017183346673846245,
                -1.1414446830749512
            ],
            "type" : "VEC3"
        },
        {
            "bufferView" : 4,
            "componentType" : 5126,
            "count" : 7810,
            "type" : "VEC3"
        },
        {
            "bufferView" : 5,
            "componentType" : 5123,
            "count" : 46848,
            "type" : "SCALAR"
        },
        {
            "bufferView" : 6,
            "componentType" : 5126,
            "count" : 482,
            "max" : [
                0.25451943278312683,
                -1.0444068908691406,
                0.2663087844848633
            ],
            "min" : [
                -0.25584232807159424,
                -1.1157244443893433,
                -0.2439052015542984
            ],
            "type" : "VEC3"
        },
        {
            "bufferView" : 7,
            "componentType" : 5126,
            "count" : 482,
            "type" : "VEC3"
        },
        {
            "bufferView" : 8,
            "componentType" : 5123,
            "count" : 2880,
            "type" : "SCALAR"
        },
        {
            "bufferView" : 9,
            "componentType" : 5126,
            "count" : 1848,
            "max" : [
                0.42165082693099976,
                1.7553541660308838,
                0.09064232558012009
            ],
            "min" : [
                -0.4220859110355377,
                -0.00586661696434021,
                -0.09064242243766785
            ],
            "type" : "VEC3"
        },
        {
            "bufferView" : 10,
            "componentType" : 5126,
            "count" : 1848,
            "type" : "VEC3"
        },
        {
            "bufferView" : 11,
            "componentType" : 5123,
            "count" : 11052,
            "type" : "SCALAR"
        }
    ],
    "bufferViews" : [
        {
            "buffer" : 0,
            "byteLength" : 47880,
            "byteOffset" : 0
        },
        {
            "buffer" : 0,
            "byteLength" : 47880,
            "byteOffset" : 47880
        },
        {
            "buffer" : 0,
            "byteLength" : 47856,
            "byteOffset" : 95760
        },
        {
            "buffer" : 0,
            "byteLength" : 93720,
            "byteOffset" : 143616
        },
        {
            "buffer" : 0,
            "byteLength" : 93720,
            "byteOffset" : 237336
        },
        {
            "buffer" : 0,
            "byteLength" : 93696,
            "byteOffset" : 331056
        },
        {
            "buffer" : 0,
            "byteLength" : 5784,
            "byteOffset" : 424752
        },
        {
            "buffer" : 0,
            "byteLength" : 5784,
            "byteOffset" : 430536
        },
        {
            "buffer" : 0,
            "byteLength" : 5760,
            "byteOffset" : 436320
        },
        {
            "buffer" : 0,
            "byteLength" : 22176,
            "byteOffset" : 442080
        },
        {
            "buffer" : 0,
            "byteLength" : 22176,
            "byteOffset" : 464256
        },
        {
            "buffer" : 0,
            "byteLength" : 22104,
            "byteOffset" : 486432
        }
    ],
    "buffers" : [
        {
            "byteLength" : 508536,
            "uri" : "data:application/octet-stream;base64,"
        }
    ]
}
