{
    "asset" : {
        "generator" : "Khronos glTF Blender I/O v1.0.5",
        "version" : "2.0"
    },
    "scene" : 0,
    "scenes" : [
        {
            "name" : "Scene",
            "nodes" : [
                0,
                1,
                2,
                3,
                4
            ]
        }
    ],
    "nodes" : [
        {
            "name" : "Empty",
            "rotation" : [
                0,
                -0.7071067690849304,
                0,
                0.7071067690849304
            ]
        },
        {
            "mesh" : 0,
            "name" : "Object.004",
            "rotation" : [
                -0.7071067690849304,
                0,
                0,
                0.7071067690849304
            ],
            "scale" : [
                0.006216263398528099,
                0.006216263398528099,
                0.006216263398528099
            ],
            "translation" : [
                -0.050366997718811035,
                -1.7748632431030273,
                -0.05760776996612549
            ]
        },
        {
            "mesh" : 1,
            "name" : "Object.001",
            "rotation" : [
                -0.7071067690849304,
                0,
                0,
                0.7071067690849304
            ],
            "scale" : [
                0.006216263398528099,
                0.006216263398528099,
                0.006216263398528099
            ],
            "translation" : [
                -0.050366997718811035,
                -1.7748632431030273,
                -0.05760776996612549
            ]
        },
        {
            "mesh" : 2,
            "name" : "Object.003",
            "rotation" : [
                -0.7071067690849304,
                0,
                0,
                0.7071067690849304
            ],
            "scale" : [
                0.006216263398528099,
                0.006216263398528099,
                0.006216263398528099
            ],
            "translation" : [
                -0.050366997718811035,
                -1.7748632431030273,
                -0.05760776996612549
            ]
        },
        {
            "mesh" : 3,
            "name" : "Object.002",
            "rotation" : [
                -0.7071067690849304,
                0,
                0,
                0.7071067690849304
            ],
            "scale" : [
                0.006216263398528099,
                0.006216263398528099,
                0.006216263398528099
            ],
            "translation" : [
                -0.050366997718811035,
                -1.7748632431030273,
                -0.05760776996612549
            ]
        }
    ],
    "meshes" : [
        {
            "name" : "i phone x",
            "primitives" : [
                {
                    "attributes" : {
                        "POSITION" : 0,
                        "NORMAL" : 1,
                        "TEXCOORD_0" : 2
                    },
                    "indices" : 3
                }
            ]
        },
        {
            "name" : "i phone x.001",
            "primitives" : [
                {
                    "attributes" : {
                        "POSITION" : 4,
                        "NORMAL" : 5,
                        "TEXCOORD_0" : 6
                    },
                    "indices" : 7
                }
            ]
        },
        {
            "name" : "i phone x.002",
            "primitives" : [
                {
                    "attributes" : {
                        "POSITION" : 8,
                        "NORMAL" : 9,
                        "TEXCOORD_0" : 10
                    },
                    "indices" : 11
                }
            ]
        },
        {
            "name" : "i phone x.003",
            "primitives" : [
                {
                    "attributes" : {
                        "POSITION" : 12,
                        "NORMAL" : 13,
                        "TEXCOORD_0" : 14
                    },
                    "indices" : 15
                }
            ]
        }
    ],
    "accessors" : [
        {
            "bufferView" : 0,
            "componentType" : 5126,
            "count" : 30104,
            "max" : [
                119.56461334228516,
                238.74513244628906,
                -9.046117782592773
            ],
            "min" : [
                -119.69009399414062,
                -218.69009399414062,
                -35.771846771240234
            ],
            "type" : "VEC3"
        },
        {
            "bufferView" : 1,
            "componentType" : 5126,
            "count" : 30104,
            "type" : "VEC3"
        },
        {
            "bufferView" : 2,
            "componentType" : 5126,
            "count" : 30104,
            "type" : "VEC2"
        },
        {
            "bufferView" : 3,
            "componentType" : 5123,
            "count" : 126363,
            "type" : "SCALAR"
        },
        {
            "bufferView" : 4,
            "componentType" : 5126,
            "count" : 5150,
            "max" : [
                106.80001831054688,
                226.800048828125,
                3.7879786113359515e-12
            ],
            "min" : [
                -106.79998779296875,
                -226.79995727539062,
                -35.771846771240234
            ],
            "type" : "VEC3"
        },
        {
            "bufferView" : 5,
            "componentType" : 5126,
            "count" : 5150,
            "type" : "VEC3"
        },
        {
            "bufferView" : 6,
            "componentType" : 5126,
            "count" : 5150,
            "type" : "VEC2"
        },
        {
            "bufferView" : 7,
            "componentType" : 5123,
            "count" : 17655,
            "type" : "SCALAR"
        },
        {
            "bufferView" : 8,
            "componentType" : 5126,
            "count" : 6592,
            "max" : [
                120.16000366210938,
                240.1600341796875,
                -3.9053187370300293
            ],
            "min" : [
                -120.15997314453125,
                -240.159912109375,
                -24.992151260375977
            ],
            "type" : "VEC3"
        },
        {
            "bufferView" : 9,
            "componentType" : 5126,
            "count" : 6592,
            "type" : "VEC3"
        },
        {
            "bufferView" : 10,
            "componentType" : 5126,
            "count" : 6592,
            "type" : "VEC2"
        },
        {
            "bufferView" : 11,
            "componentType" : 5123,
            "count" : 21054,
            "type" : "SCALAR"
        },
        {
            "bufferView" : 12,
            "componentType" : 5126,
            "count" : 3274,
            "max" : [
                114.37786865234375,
                234.37789916992188,
                3.7879786113359515e-12
            ],
            "min" : [
                -114.37783813476562,
                -234.3778076171875,
                -28.891359329223633
            ],
            "type" : "VEC3"
        },
        {
            "bufferView" : 13,
            "componentType" : 5126,
            "count" : 3274,
            "type" : "VEC3"
        },
        {
            "bufferView" : 14,
            "componentType" : 5126,
            "count" : 3274,
            "type" : "VEC2"
        },
        {
            "bufferView" : 15,
            "componentType" : 5123,
            "count" : 8982,
            "type" : "SCALAR"
        }
    ],
    "bufferViews" : [
        {
            "buffer" : 0,
            "byteLength" : 361248,
            "byteOffset" : 0
        },
        {
            "buffer" : 0,
            "byteLength" : 361248,
            "byteOffset" : 361248
        },
        {
            "buffer" : 0,
            "byteLength" : 240832,
            "byteOffset" : 722496
        },
        {
            "buffer" : 0,
            "byteLength" : 252726,
            "byteOffset" : 963328
        },
        {
            "buffer" : 0,
            "byteLength" : 61800,
            "byteOffset" : 1216056
        },
        {
            "buffer" : 0,
            "byteLength" : 61800,
            "byteOffset" : 1277856
        },
        {
            "buffer" : 0,
            "byteLength" : 41200,
            "byteOffset" : 1339656
        },
        {
            "buffer" : 0,
            "byteLength" : 35310,
            "byteOffset" : 1380856
        },
        {
            "buffer" : 0,
            "byteLength" : 79104,
            "byteOffset" : 1416168
        },
        {
            "buffer" : 0,
            "byteLength" : 79104,
            "byteOffset" : 1495272
        },
        {
            "buffer" : 0,
            "byteLength" : 52736,
            "byteOffset" : 1574376
        },
        {
            "buffer" : 0,
            "byteLength" : 42108,
            "byteOffset" : 1627112
        },
        {
            "buffer" : 0,
            "byteLength" : 39288,
            "byteOffset" : 1669220
        },
        {
            "buffer" : 0,
            "byteLength" : 39288,
            "byteOffset" : 1708508
        },
        {
            "buffer" : 0,
            "byteLength" : 26192,
            "byteOffset" : 1747796
        },
        {
            "buffer" : 0,
            "byteLength" : 17964,
            "byteOffset" : 1773988
        }
    ],
    "buffers" : [
        {
            "byteLength" : 1791952,
            "uri" : "data:application/octet-stream;base64,"
        }
    ]
}
