{
    "asset" : {
        "generator" : "Khronos glTF Blender I/O v1.0.5",
        "version" : "2.0"
    },
    "scene" : 0,
    "scenes" : [
        {
            "name" : "Scene",
            "nodes" : [
                0,
                1,
                2,
                3,
                4,
                5,
                6,
                7,
                8,
                9,
                10,
                11
            ]
        }
    ],
    "nodes" : [
        {
            "mesh" : 0,
            "name" : "Object.001"
        },
        {
            "mesh" : 1,
            "name" : "Object.002"
        },
        {
            "mesh" : 2,
            "name" : "Object.003"
        },
        {
            "mesh" : 3,
            "name" : "Object.012"
        },
        {
            "mesh" : 4,
            "name" : "Object.005"
        },
        {
            "mesh" : 5,
            "name" : "Object.006"
        },
        {
            "mesh" : 6,
            "name" : "Object.008"
        },
        {
            "mesh" : 7,
            "name" : "Object.010"
        },
        {
            "mesh" : 8,
            "name" : "Object.009"
        },
        {
            "mesh" : 9,
            "name" : "Object.011"
        },
        {
            "mesh" : 10,
            "name" : "Object.004"
        },
        {
            "mesh" : 11,
            "name" : "Object.007"
        }
    ],
    "meshes" : [
        {
            "name" : "Cylinder.019",
            "primitives" : [
                {
                    "attributes" : {
                        "POSITION" : 0,
                        "NORMAL" : 1,
                        "TEXCOORD_0" : 2
                    },
                    "indices" : 3
                }
            ]
        },
        {
            "name" : "Cylinder.042",
            "primitives" : [
                {
                    "attributes" : {
                        "POSITION" : 4,
                        "NORMAL" : 5,
                        "TEXCOORD_0" : 6
                    },
                    "indices" : 7
                }
            ]
        },
        {
            "name" : "Cube.004",
            "primitives" : [
                {
                    "attributes" : {
                        "POSITION" : 8,
                        "NORMAL" : 9,
                        "TEXCOORD_0" : 10
                    },
                    "indices" : 11
                }
            ]
        },
        {
            "name" : "Plane",
            "primitives" : [
                {
                    "attributes" : {
                        "POSITION" : 12,
                        "NORMAL" : 13,
                        "TEXCOORD_0" : 14
                    },
                    "indices" : 15
                }
            ]
        },
        {
            "name" : "Cylinder.000",
            "primitives" : [
                {
                    "attributes" : {
                        "POSITION" : 16,
                        "NORMAL" : 17,
                        "TEXCOORD_0" : 18
                    },
                    "indices" : 19
                }
            ]
        },
        {
            "name" : "Cylinder.004",
            "primitives" : [
                {
                    "attributes" : {
                        "POSITION" : 20,
                        "NORMAL" : 21,
                        "TEXCOORD_0" : 22
                    },
                    "indices" : 23
                }
            ]
        },
        {
            "name" : "Cylinder.009",
            "primitives" : [
                {
                    "attributes" : {
                        "POSITION" : 24,
                        "NORMAL" : 25,
                        "TEXCOORD_0" : 26
                    },
                    "indices" : 27
                }
            ]
        },
        {
            "name" : "Cylinder.010",
            "primitives" : [
                {
                    "attributes" : {
                        "POSITION" : 28,
                        "NORMAL" : 29,
                        "TEXCOORD_0" : 30
                    },
                    "indices" : 31
                }
            ]
        },
        {
            "name" : "Cylinder.013",
            "primitives" : [
                {
                    "attributes" : {
                        "POSITION" : 32,
                        "NORMAL" : 33,
                        "TEXCOORD_0" : 34
                    },
                    "indices" : 35
                }
            ]
        },
        {
            "name" : "Cylinder.002",
            "primitives" : [
                {
                    "attributes" : {
                        "POSITION" : 36,
                        "NORMAL" : 37,
                        "TEXCOORD_0" : 38
                    },
                    "indices" : 39
                }
            ]
        },
        {
            "name" : "Cylinder.001",
            "primitives" : [
                {
                    "attributes" : {
                        "POSITION" : 40,
                        "NORMAL" : 41,
                        "TEXCOORD_0" : 42
                    },
                    "indices" : 43
                }
            ]
        },
        {
            "name" : "Cylinder.007",
            "primitives" : [
                {
                    "attributes" : {
                        "POSITION" : 44,
                        "NORMAL" : 45,
                        "TEXCOORD_0" : 46
                    },
                    "indices" : 47
                }
            ]
        }
    ],
    "accessors" : [
        {
            "bufferView" : 0,
            "componentType" : 5126,
            "count" : 1375,
            "max" : [
                1.345509648323059,
                0.6143209934234619,
                1.3455097675323486
            ],
            "min" : [
                -1.3455097675323486,
                -2.8642345384355394e-08,
                -1.3455097675323486
            ],
            "type" : "VEC3"
        },
        {
            "bufferView" : 1,
            "componentType" : 5126,
            "count" : 1375,
            "type" : "VEC3"
        },
        {
            "bufferView" : 2,
            "componentType" : 5126,
            "count" : 1375,
            "type" : "VEC2"
        },
        {
            "bufferView" : 3,
            "componentType" : 5123,
            "count" : 3528,
            "type" : "SCALAR"
        },
        {
            "bufferView" : 4,
            "componentType" : 5126,
            "count" : 1386,
            "max" : [
                1.1830230951309204,
                2.4845352172851562,
                0.6479606032371521
            ],
            "min" : [
                -0.6479611396789551,
                0.03560594096779823,
                -0.6479606628417969
            ],
            "type" : "VEC3"
        },
        {
            "bufferView" : 5,
            "componentType" : 5126,
            "count" : 1386,
            "type" : "VEC3"
        },
        {
            "bufferView" : 6,
            "componentType" : 5126,
            "count" : 1386,
            "type" : "VEC2"
        },
        {
            "bufferView" : 7,
            "componentType" : 5123,
            "count" : 3642,
            "type" : "SCALAR"
        },
        {
            "bufferView" : 8,
            "componentType" : 5126,
            "count" : 26,
            "max" : [
                0.31380823254585266,
                1.2271676063537598,
                0.056758131831884384
            ],
            "min" : [
                -0.31380853056907654,
                0.9345414638519287,
                -0.3104827105998993
            ],
            "type" : "VEC3"
        },
        {
            "bufferView" : 9,
            "componentType" : 5126,
            "count" : 26,
            "type" : "VEC3"
        },
        {
            "bufferView" : 10,
            "componentType" : 5126,
            "count" : 26,
            "type" : "VEC2"
        },
        {
            "bufferView" : 11,
            "componentType" : 5123,
            "count" : 42,
            "type" : "SCALAR"
        },
        {
            "bufferView" : 12,
            "componentType" : 5126,
            "count" : 4,
            "max" : [
                10,
                0,
                10
            ],
            "min" : [
                -10,
                0,
                -10
            ],
            "type" : "VEC3"
        },
        {
            "bufferView" : 13,
            "componentType" : 5126,
            "count" : 4,
            "type" : "VEC3"
        },
        {
            "bufferView" : 14,
            "componentType" : 5126,
            "count" : 4,
            "type" : "VEC2"
        },
        {
            "bufferView" : 15,
            "componentType" : 5123,
            "count" : 6,
            "type" : "SCALAR"
        },
        {
            "bufferView" : 16,
            "componentType" : 5126,
            "count" : 334,
            "max" : [
                1.0799728631973267,
                3.5229618549346924,
                -0.20596686005592346
            ],
            "min" : [
                -1.1231920719146729,
                1.319797396659851,
                -0.5161782503128052
            ],
            "type" : "VEC3"
        },
        {
            "bufferView" : 17,
            "componentType" : 5126,
            "count" : 334,
            "type" : "VEC3"
        },
        {
            "bufferView" : 18,
            "componentType" : 5126,
            "count" : 334,
            "type" : "VEC2"
        },
        {
            "bufferView" : 19,
            "componentType" : 5123,
            "count" : 660,
            "type" : "SCALAR"
        },
        {
            "bufferView" : 20,
            "componentType" : 5126,
            "count" : 392,
            "max" : [
                -0.6563764810562134,
                3.4017105102539062,
                0.2559669315814972
            ],
            "min" : [
                -1.0019375085830688,
                3.0561490058898926,
                -0.5661780834197998
            ],
            "type" : "VEC3"
        },
        {
            "bufferView" : 21,
            "componentType" : 5126,
            "count" : 392,
            "type" : "VEC3"
        },
        {
            "bufferView" : 22,
            "componentType" : 5126,
            "count" : 392,
            "type" : "VEC2"
        },
        {
            "bufferView" : 23,
            "componentType" : 5123,
            "count" : 756,
            "type" : "SCALAR"
        },
        {
            "bufferView" : 24,
            "componentType" : 5126,
            "count" : 98,
            "max" : [
                1.4453953504562378,
                3.365140438079834,
                0.13621029257774353
            ],
            "min" : [
                0.034174561500549316,
                3.092719554901123,
                -0.13621029257774353
            ],
            "type" : "VEC3"
        },
        {
            "bufferView" : 25,
            "componentType" : 5126,
            "count" : 98,
            "type" : "VEC3"
        },
        {
            "bufferView" : 26,
            "componentType" : 5126,
            "count" : 98,
            "type" : "VEC2"
        },
        {
            "bufferView" : 27,
            "componentType" : 5123,
            "count" : 282,
            "type" : "SCALAR"
        },
        {
            "bufferView" : 28,
            "componentType" : 5126,
            "count" : 392,
            "max" : [
                2.0905356407165527,
                3.4428551197052,
                0.2139253169298172
            ],
            "min" : [
                1.6626853942871094,
                2.809816360473633,
                -0.21392486989498138
            ],
            "type" : "VEC3"
        },
        {
            "bufferView" : 29,
            "componentType" : 5126,
            "count" : 392,
            "type" : "VEC3"
        },
        {
            "bufferView" : 30,
            "componentType" : 5126,
            "count" : 392,
            "type" : "VEC2"
        },
        {
            "bufferView" : 31,
            "componentType" : 5123,
            "count" : 1128,
            "type" : "SCALAR"
        },
        {
            "bufferView" : 32,
            "componentType" : 5126,
            "count" : 768,
            "max" : [
                2.0905354022979736,
                3.442857265472412,
                0.32198455929756165
            ],
            "min" : [
                1.1424102783203125,
                3.015002965927124,
                -0.321984201669693
            ],
            "type" : "VEC3"
        },
        {
            "bufferView" : 33,
            "componentType" : 5126,
            "count" : 768,
            "type" : "VEC3"
        },
        {
            "bufferView" : 34,
            "componentType" : 5126,
            "count" : 768,
            "type" : "VEC2"
        },
        {
            "bufferView" : 35,
            "componentType" : 5123,
            "count" : 1992,
            "type" : "SCALAR"
        },
        {
            "bufferView" : 36,
            "componentType" : 5126,
            "count" : 430,
            "max" : [
                2.0565526485443115,
                2.8098201751708984,
                0.26351720094680786
            ],
            "min" : [
                1.6966699361801147,
                2.127291202545166,
                -0.2635170817375183
            ],
            "type" : "VEC3"
        },
        {
            "bufferView" : 37,
            "componentType" : 5126,
            "count" : 430,
            "type" : "VEC3"
        },
        {
            "bufferView" : 38,
            "componentType" : 5126,
            "count" : 430,
            "type" : "VEC2"
        },
        {
            "bufferView" : 39,
            "componentType" : 5123,
            "count" : 1068,
            "type" : "SCALAR"
        },
        {
            "bufferView" : 40,
            "componentType" : 5126,
            "count" : 390,
            "max" : [
                0.942467451095581,
                2.2439796924591064,
                0.5180605053901672
            ],
            "min" : [
                0.15578851103782654,
                1.4573004245758057,
                -0.5593588948249817
            ],
            "type" : "VEC3"
        },
        {
            "bufferView" : 41,
            "componentType" : 5126,
            "count" : 390,
            "type" : "VEC3"
        },
        {
            "bufferView" : 42,
            "componentType" : 5126,
            "count" : 390,
            "type" : "VEC2"
        },
        {
            "bufferView" : 43,
            "componentType" : 5123,
            "count" : 756,
            "type" : "SCALAR"
        },
        {
            "bufferView" : 44,
            "componentType" : 5126,
            "count" : 631,
            "max" : [
                0.1354990005493164,
                3.6559255123138428,
                0.2059670388698578
            ],
            "min" : [
                -1.4594483375549316,
                2.8019344806671143,
                -0.2059670090675354
            ],
            "type" : "VEC3"
        },
        {
            "bufferView" : 45,
            "componentType" : 5126,
            "count" : 631,
            "type" : "VEC3"
        },
        {
            "bufferView" : 46,
            "componentType" : 5126,
            "count" : 631,
            "type" : "VEC2"
        },
        {
            "bufferView" : 47,
            "componentType" : 5123,
            "count" : 1416,
            "type" : "SCALAR"
        }
    ],
    "bufferViews" : [
        {
            "buffer" : 0,
            "byteLength" : 16500,
            "byteOffset" : 0
        },
        {
            "buffer" : 0,
            "byteLength" : 16500,
            "byteOffset" : 16500
        },
        {
            "buffer" : 0,
            "byteLength" : 11000,
            "byteOffset" : 33000
        },
        {
            "buffer" : 0,
            "byteLength" : 7056,
            "byteOffset" : 44000
        },
        {
            "buffer" : 0,
            "byteLength" : 16632,
            "byteOffset" : 51056
        },
        {
            "buffer" : 0,
            "byteLength" : 16632,
            "byteOffset" : 67688
        },
        {
            "buffer" : 0,
            "byteLength" : 11088,
            "byteOffset" : 84320
        },
        {
            "buffer" : 0,
            "byteLength" : 7284,
            "byteOffset" : 95408
        },
        {
            "buffer" : 0,
            "byteLength" : 312,
            "byteOffset" : 102692
        },
        {
            "buffer" : 0,
            "byteLength" : 312,
            "byteOffset" : 103004
        },
        {
            "buffer" : 0,
            "byteLength" : 208,
            "byteOffset" : 103316
        },
        {
            "buffer" : 0,
            "byteLength" : 84,
            "byteOffset" : 103524
        },
        {
            "buffer" : 0,
            "byteLength" : 48,
            "byteOffset" : 103608
        },
        {
            "buffer" : 0,
            "byteLength" : 48,
            "byteOffset" : 103656
        },
        {
            "buffer" : 0,
            "byteLength" : 32,
            "byteOffset" : 103704
        },
        {
            "buffer" : 0,
            "byteLength" : 12,
            "byteOffset" : 103736
        },
        {
            "buffer" : 0,
            "byteLength" : 4008,
            "byteOffset" : 103748
        },
        {
            "buffer" : 0,
            "byteLength" : 4008,
            "byteOffset" : 107756
        },
        {
            "buffer" : 0,
            "byteLength" : 2672,
            "byteOffset" : 111764
        },
        {
            "buffer" : 0,
            "byteLength" : 1320,
            "byteOffset" : 114436
        },
        {
            "buffer" : 0,
            "byteLength" : 4704,
            "byteOffset" : 115756
        },
        {
            "buffer" : 0,
            "byteLength" : 4704,
            "byteOffset" : 120460
        },
        {
            "buffer" : 0,
            "byteLength" : 3136,
            "byteOffset" : 125164
        },
        {
            "buffer" : 0,
            "byteLength" : 1512,
            "byteOffset" : 128300
        },
        {
            "buffer" : 0,
            "byteLength" : 1176,
            "byteOffset" : 129812
        },
        {
            "buffer" : 0,
            "byteLength" : 1176,
            "byteOffset" : 130988
        },
        {
            "buffer" : 0,
            "byteLength" : 784,
            "byteOffset" : 132164
        },
        {
            "buffer" : 0,
            "byteLength" : 564,
            "byteOffset" : 132948
        },
        {
            "buffer" : 0,
            "byteLength" : 4704,
            "byteOffset" : 133512
        },
        {
            "buffer" : 0,
            "byteLength" : 4704,
            "byteOffset" : 138216
        },
        {
            "buffer" : 0,
            "byteLength" : 3136,
            "byteOffset" : 142920
        },
        {
            "buffer" : 0,
            "byteLength" : 2256,
            "byteOffset" : 146056
        },
        {
            "buffer" : 0,
            "byteLength" : 9216,
            "byteOffset" : 148312
        },
        {
            "buffer" : 0,
            "byteLength" : 9216,
            "byteOffset" : 157528
        },
        {
            "buffer" : 0,
            "byteLength" : 6144,
            "byteOffset" : 166744
        },
        {
            "buffer" : 0,
            "byteLength" : 3984,
            "byteOffset" : 172888
        },
        {
            "buffer" : 0,
            "byteLength" : 5160,
            "byteOffset" : 176872
        },
        {
            "buffer" : 0,
            "byteLength" : 5160,
            "byteOffset" : 182032
        },
        {
            "buffer" : 0,
            "byteLength" : 3440,
            "byteOffset" : 187192
        },
        {
            "buffer" : 0,
            "byteLength" : 2136,
            "byteOffset" : 190632
        },
        {
            "buffer" : 0,
            "byteLength" : 4680,
            "byteOffset" : 192768
        },
        {
            "buffer" : 0,
            "byteLength" : 4680,
            "byteOffset" : 197448
        },
        {
            "buffer" : 0,
            "byteLength" : 3120,
            "byteOffset" : 202128
        },
        {
            "buffer" : 0,
            "byteLength" : 1512,
            "byteOffset" : 205248
        },
        {
            "buffer" : 0,
            "byteLength" : 7572,
            "byteOffset" : 206760
        },
        {
            "buffer" : 0,
            "byteLength" : 7572,
            "byteOffset" : 214332
        },
        {
            "buffer" : 0,
            "byteLength" : 5048,
            "byteOffset" : 221904
        },
        {
            "buffer" : 0,
            "byteLength" : 2832,
            "byteOffset" : 226952
        }
    ],
    "buffers" : [
        {
            "byteLength" : 229784,
            "uri" : "data:application/octet-stream;base64,"
        }
    ]
}
