{
    "asset" : {
        "generator" : "Khronos glTF Blender I/O v1.0.5",
        "version" : "2.0"
    },
    "scene" : 0,
    "scenes" : [
        {
            "name" : "Scene",
            "nodes" : [
                0,
                1,
                2,
                3
            ]
        }
    ],
    "nodes" : [
        {
            "mesh" : 0,
            "name" : "Object.002",
            "translation" : [
                0,
                1,
                0
            ]
        },
        {
            "mesh" : 1,
            "name" : "Object.003",
            "scale" : [
                10,
                10,
                10
            ]
        },
        {
            "name" : "Empty"
        },
        {
            "mesh" : 2,
            "name" : "Object.001",
            "translation" : [
                0,
                1,
                0
            ]
        }
    ],
    "meshes" : [
        {
            "name" : "Suzanne",
            "primitives" : [
                {
                    "attributes" : {
                        "POSITION" : 0,
                        "NORMAL" : 1,
                        "TEXCOORD_0" : 2
                    },
                    "indices" : 3
                }
            ]
        },
        {
            "name" : "Plane.001",
            "primitives" : [
                {
                    "attributes" : {
                        "POSITION" : 4,
                        "NORMAL" : 5,
                        "TEXCOORD_0" : 6
                    },
                    "indices" : 7
                }
            ]
        },
        {
            "name" : "Suzanne.001",
            "primitives" : [
                {
                    "attributes" : {
                        "POSITION" : 8,
                        "NORMAL" : 9,
                        "TEXCOORD_0" : 10
                    },
                    "indices" : 11
                }
            ]
        }
    ],
    "accessors" : [
        {
            "bufferView" : 0,
            "componentType" : 5126,
            "count" : 1318,
            "max" : [
                0.592719316482544,
                0.48334431648254395,
                0.8207833170890808
            ],
            "min" : [
                -0.592719316482544,
                0.00878906436264515,
                0.5689563155174255
            ],
            "type" : "VEC3"
        },
        {
            "bufferView" : 1,
            "componentType" : 5126,
            "count" : 1318,
            "type" : "VEC3"
        },
        {
            "bufferView" : 2,
            "componentType" : 5126,
            "count" : 1318,
            "type" : "VEC2"
        },
        {
            "bufferView" : 3,
            "componentType" : 5123,
            "count" : 5760,
            "type" : "SCALAR"
        },
        {
            "bufferView" : 4,
            "componentType" : 5126,
            "count" : 4,
            "max" : [
                1,
                0,
                1
            ],
            "min" : [
                -1,
                0,
                -1
            ],
            "type" : "VEC3"
        },
        {
            "bufferView" : 5,
            "componentType" : 5126,
            "count" : 4,
            "type" : "VEC3"
        },
        {
            "bufferView" : 6,
            "componentType" : 5126,
            "count" : 4,
            "type" : "VEC2"
        },
        {
            "bufferView" : 7,
            "componentType" : 5123,
            "count" : 6,
            "type" : "SCALAR"
        },
        {
            "bufferView" : 8,
            "componentType" : 5126,
            "count" : 9927,
            "max" : [
                1.3186392784118652,
                0.9275127649307251,
                0.8188740015029907
            ],
            "min" : [
                -1.3186392784118652,
                -0.9669579863548279,
                -0.7583317160606384
            ],
            "type" : "VEC3"
        },
        {
            "bufferView" : 9,
            "componentType" : 5126,
            "count" : 9927,
            "type" : "VEC3"
        },
        {
            "bufferView" : 10,
            "componentType" : 5126,
            "count" : 9927,
            "type" : "VEC2"
        },
        {
            "bufferView" : 11,
            "componentType" : 5123,
            "count" : 41472,
            "type" : "SCALAR"
        }
    ],
    "bufferViews" : [
        {
            "buffer" : 0,
            "byteLength" : 15816,
            "byteOffset" : 0
        },
        {
            "buffer" : 0,
            "byteLength" : 15816,
            "byteOffset" : 15816
        },
        {
            "buffer" : 0,
            "byteLength" : 10544,
            "byteOffset" : 31632
        },
        {
            "buffer" : 0,
            "byteLength" : 11520,
            "byteOffset" : 42176
        },
        {
            "buffer" : 0,
            "byteLength" : 48,
            "byteOffset" : 53696
        },
        {
            "buffer" : 0,
            "byteLength" : 48,
            "byteOffset" : 53744
        },
        {
            "buffer" : 0,
            "byteLength" : 32,
            "byteOffset" : 53792
        },
        {
            "buffer" : 0,
            "byteLength" : 12,
            "byteOffset" : 53824
        },
        {
            "buffer" : 0,
            "byteLength" : 119124,
            "byteOffset" : 53836
        },
        {
            "buffer" : 0,
            "byteLength" : 119124,
            "byteOffset" : 172960
        },
        {
            "buffer" : 0,
            "byteLength" : 79416,
            "byteOffset" : 292084
        },
        {
            "buffer" : 0,
            "byteLength" : 82944,
            "byteOffset" : 371500
        }
    ],
    "buffers" : [
        {
            "byteLength" : 454444,
            "uri" : "data:application/octet-stream;base64,"
        }
    ]
}
