{
    "asset" : {
        "generator" : "Khronos glTF Blender I/O v1.7.33",
        "version" : "2.0"
    },
    "scene" : 0,
    "scenes" : [
        {
            "name" : "Scene",
            "nodes" : [
                0,
                1,
                2,
                3,
                4,
                5
            ]
        }
    ],
    "nodes" : [
        {
            "name" : "Empty",
            "rotation" : [
                0,
                -0.7071068286895752,
                0,
                0.7071068286895752
            ]
        },
        {
            "mesh" : 0,
            "name" : "Object.005",
            "scale" : [
                0.7057129144668579,
                0.7057129144668579,
                0.7057129144668579
            ],
            "translation" : [
                0,
                0,
                0.5468491315841675
            ]
        },
        {
            "mesh" : 1,
            "name" : "Object.001",
            "scale" : [
                0.7057129144668579,
                0.7057129144668579,
                0.7057129144668579
            ],
            "translation" : [
                0,
                0,
                0.5468491315841675
            ]
        },
        {
            "mesh" : 2,
            "name" : "Object.003",
            "scale" : [
                0.7057129144668579,
                0.7057129144668579,
                0.7057129144668579
            ],
            "translation" : [
                0,
                0,
                0.5468491315841675
            ]
        },
        {
            "mesh" : 3,
            "name" : "Object.004",
            "scale" : [
                0.7057129144668579,
                0.7057129144668579,
                0.7057129144668579
            ],
            "translation" : [
                0,
                0,
                0.5468491315841675
            ]
        },
        {
            "mesh" : 4,
            "name" : "Object.002",
            "scale" : [
                0.7057129144668579,
                0.7057129144668579,
                0.7057129144668579
            ],
            "translation" : [
                0,
                0,
                0.5468491315841675
            ]
        }
    ],
    "materials" : [
        {
            "doubleSided" : true,
            "name" : "VR",
            "pbrMetallicRoughness" : {}
        }
    ],
    "meshes" : [
        {
            "name" : "Cube.000",
            "primitives" : [
                {
                    "attributes" : {
                        "POSITION" : 0,
                        "NORMAL" : 1,
                        "TEXCOORD_0" : 2
                    },
                    "indices" : 3,
                    "material" : 0
                }
            ]
        },
        {
            "name" : "Cube.001",
            "primitives" : [
                {
                    "attributes" : {
                        "POSITION" : 4,
                        "NORMAL" : 5,
                        "TEXCOORD_0" : 6
                    },
                    "indices" : 7,
                    "material" : 0
                }
            ]
        },
        {
            "name" : "Cube.003",
            "primitives" : [
                {
                    "attributes" : {
                        "POSITION" : 8,
                        "NORMAL" : 9,
                        "TEXCOORD_0" : 10
                    },
                    "indices" : 11,
                    "material" : 0
                }
            ]
        },
        {
            "name" : "Cube.004",
            "primitives" : [
                {
                    "attributes" : {
                        "POSITION" : 12,
                        "NORMAL" : 13,
                        "TEXCOORD_0" : 14
                    },
                    "indices" : 15,
                    "material" : 0
                }
            ]
        },
        {
            "name" : "Cube.006",
            "primitives" : [
                {
                    "attributes" : {
                        "POSITION" : 16,
                        "NORMAL" : 17,
                        "TEXCOORD_0" : 18
                    },
                    "indices" : 19,
                    "material" : 0
                }
            ]
        }
    ],
    "accessors" : [
        {
            "bufferView" : 0,
            "componentType" : 5126,
            "count" : 2546,
            "max" : [
                1.4165942668914795,
                0.7265235781669617,
                0.9970799684524536
            ],
            "min" : [
                -1.4165939092636108,
                -0.7243669033050537,
                -0.4615970253944397
            ],
            "type" : "VEC3"
        },
        {
            "bufferView" : 1,
            "componentType" : 5126,
            "count" : 2546,
            "type" : "VEC3"
        },
        {
            "bufferView" : 2,
            "componentType" : 5126,
            "count" : 2546,
            "type" : "VEC2"
        },
        {
            "bufferView" : 3,
            "componentType" : 5123,
            "count" : 7644,
            "type" : "SCALAR"
        },
        {
            "bufferView" : 4,
            "componentType" : 5126,
            "count" : 946,
            "max" : [
                1.3380894660949707,
                1.8954100608825684,
                0.3776988983154297
            ],
            "min" : [
                -1.3380895853042603,
                -0.19701361656188965,
                -3.0341386795043945
            ],
            "type" : "VEC3"
        },
        {
            "bufferView" : 5,
            "componentType" : 5126,
            "count" : 946,
            "type" : "VEC3"
        },
        {
            "bufferView" : 6,
            "componentType" : 5126,
            "count" : 946,
            "type" : "VEC2"
        },
        {
            "bufferView" : 7,
            "componentType" : 5123,
            "count" : 2640,
            "type" : "SCALAR"
        },
        {
            "bufferView" : 8,
            "componentType" : 5126,
            "count" : 854,
            "max" : [
                1.4601978063583374,
                0.7370862364768982,
                1.1474766731262207
            ],
            "min" : [
                -1.4601978063583374,
                -0.7425630688667297,
                -0.1628340482711792
            ],
            "type" : "VEC3"
        },
        {
            "bufferView" : 9,
            "componentType" : 5126,
            "count" : 854,
            "type" : "VEC3"
        },
        {
            "bufferView" : 10,
            "componentType" : 5126,
            "count" : 854,
            "type" : "VEC2"
        },
        {
            "bufferView" : 11,
            "componentType" : 5123,
            "count" : 2388,
            "type" : "SCALAR"
        },
        {
            "bufferView" : 12,
            "componentType" : 5126,
            "count" : 264,
            "max" : [
                1.4634016752243042,
                0.7385371923446655,
                1.3405683040618896
            ],
            "min" : [
                -1.4634016752243042,
                -0.7441899180412292,
                1.1474765539169312
            ],
            "type" : "VEC3"
        },
        {
            "bufferView" : 13,
            "componentType" : 5126,
            "count" : 264,
            "type" : "VEC3"
        },
        {
            "bufferView" : 14,
            "componentType" : 5126,
            "count" : 264,
            "type" : "VEC2"
        },
        {
            "bufferView" : 15,
            "componentType" : 5123,
            "count" : 1188,
            "type" : "SCALAR"
        },
        {
            "bufferView" : 16,
            "componentType" : 5126,
            "count" : 1016,
            "max" : [
                0.9271624088287354,
                1.0716266632080078,
                -2.6270246505737305
            ],
            "min" : [
                -0.9271624088287354,
                -0.31590697169303894,
                -3.112586498260498
            ],
            "type" : "VEC3"
        },
        {
            "bufferView" : 17,
            "componentType" : 5126,
            "count" : 1016,
            "type" : "VEC3"
        },
        {
            "bufferView" : 18,
            "componentType" : 5126,
            "count" : 1016,
            "type" : "VEC2"
        },
        {
            "bufferView" : 19,
            "componentType" : 5123,
            "count" : 3324,
            "type" : "SCALAR"
        }
    ],
    "bufferViews" : [
        {
            "buffer" : 0,
            "byteLength" : 30552,
            "byteOffset" : 0
        },
        {
            "buffer" : 0,
            "byteLength" : 30552,
            "byteOffset" : 30552
        },
        {
            "buffer" : 0,
            "byteLength" : 20368,
            "byteOffset" : 61104
        },
        {
            "buffer" : 0,
            "byteLength" : 15288,
            "byteOffset" : 81472
        },
        {
            "buffer" : 0,
            "byteLength" : 11352,
            "byteOffset" : 96760
        },
        {
            "buffer" : 0,
            "byteLength" : 11352,
            "byteOffset" : 108112
        },
        {
            "buffer" : 0,
            "byteLength" : 7568,
            "byteOffset" : 119464
        },
        {
            "buffer" : 0,
            "byteLength" : 5280,
            "byteOffset" : 127032
        },
        {
            "buffer" : 0,
            "byteLength" : 10248,
            "byteOffset" : 132312
        },
        {
            "buffer" : 0,
            "byteLength" : 10248,
            "byteOffset" : 142560
        },
        {
            "buffer" : 0,
            "byteLength" : 6832,
            "byteOffset" : 152808
        },
        {
            "buffer" : 0,
            "byteLength" : 4776,
            "byteOffset" : 159640
        },
        {
            "buffer" : 0,
            "byteLength" : 3168,
            "byteOffset" : 164416
        },
        {
            "buffer" : 0,
            "byteLength" : 3168,
            "byteOffset" : 167584
        },
        {
            "buffer" : 0,
            "byteLength" : 2112,
            "byteOffset" : 170752
        },
        {
            "buffer" : 0,
            "byteLength" : 2376,
            "byteOffset" : 172864
        },
        {
            "buffer" : 0,
            "byteLength" : 12192,
            "byteOffset" : 175240
        },
        {
            "buffer" : 0,
            "byteLength" : 12192,
            "byteOffset" : 187432
        },
        {
            "buffer" : 0,
            "byteLength" : 8128,
            "byteOffset" : 199624
        },
        {
            "buffer" : 0,
            "byteLength" : 6648,
            "byteOffset" : 207752
        }
    ],
    "buffers" : [
        {
            "byteLength" : 214400,
            "uri" : "data:application/octet-stream;base64,"
        }
    ]
}
