<?xml version="1.0" encoding="utf-8"?>
<!-- Generator: Adobe Illustrator 26.5.0, SVG Export Plug-In . SVG Version: 6.00 Build 0)  -->
<svg version="1.1" id="Layer_1" xmlns="http://www.w3.org/2000/svg" xmlns:xlink="http://www.w3.org/1999/xlink" x="0px" y="0px"
	 viewBox="0 0 560 560" style="enable-background:new 0 0 560 560;" xml:space="preserve">
<style type="text/css">
	.st0{fill:#B1BEC5;}
	.st1{fill:#ECEFF1;}
	.st2{fill:#FFFFFF;}
	.st3{fill:#78909D;}
</style>
<rect id="Rectangle_135_00000005971500933807188330000013279000859594174621_" y="0" class="st0" width="560" height="560"/>
<g>
	<path class="st1" d="M152,279c-2.3-0.6-4-1.3-5.4-2.1l2.9-6.8c1.3,0.8,2.8,1.5,4.5,1.9c1.7,0.5,3.5,0.7,5.1,0.7s2.7-0.2,3.4-0.5
		c0.6-0.4,1-0.8,1-1.5c0-0.6-0.4-1.1-1.2-1.4s-2.1-0.6-3.9-0.7c-2.2-0.3-4.1-0.6-5.7-1.1c-1.6-0.5-2.8-1.3-4-2.5
		c-1.1-1.2-1.7-2.9-1.7-5.1c0-1.8,0.6-3.4,1.6-4.9c1.1-1.4,2.6-2.6,4.6-3.4c2-0.8,4.5-1.2,7.3-1.2c2,0,4,0.2,6,0.6
		c2,0.5,3.7,1,5,1.7l-2.9,6.8c-2.5-1.4-5.1-2.1-8-2.1c-1.6,0-2.7,0.2-3.4,0.6s-1.1,0.8-1.1,1.5c0,0.6,0.4,1.1,1.2,1.4
		s2.1,0.6,3.9,0.8c2.3,0.4,4.2,0.7,5.7,1.2s2.8,1.3,4,2.5s1.7,2.8,1.7,5.1c0,1.7-0.6,3.4-1.6,4.8c-1.1,1.4-2.7,2.6-4.7,3.3
		c-2,0.8-4.6,1.2-7.4,1.2C156.5,279.9,154.3,279.6,152,279z"/>
	<path class="st1" d="M182.7,277.9c-2.4-1.3-4.3-3-5.7-5.2s-2-4.8-2-7.6c0-2.8,0.6-5.3,2-7.6c1.4-2.2,3.2-4,5.7-5.2
		c2.4-1.3,5.1-1.8,8.3-1.8s5.9,0.7,8.2,2.1c2.3,1.4,4,3.3,4.9,5.8l-7.5,4c-1.3-2.6-3.1-3.9-5.5-3.9c-1.7,0-3.2,0.6-4.3,1.7
		c-1.1,1.2-1.7,2.8-1.7,5c0,2.1,0.6,3.8,1.7,5.1c1.1,1.2,2.6,1.8,4.3,1.8c2.4,0,4.2-1.3,5.5-3.9l7.5,4c-0.9,2.5-2.6,4.3-4.9,5.8
		c-2.3,1.4-5,2.1-8.2,2.1C187.9,279.9,185.2,279.2,182.7,277.9z"/>
	<path class="st1" d="M235.6,267.6h-20.2c0.4,1.5,1.2,2.6,2.4,3.4s2.7,1.2,4.4,1.2c1.3,0,2.5-0.2,3.5-0.6s1.9-1,2.9-1.9l5.1,5.4
		c-2.7,3.1-6.6,4.6-11.9,4.6c-3.2,0-6.1-0.6-8.5-1.9s-4.3-3-5.7-5.2s-2-4.8-2-7.6c0-2.8,0.6-5.3,1.9-7.5c1.3-2.2,3.1-4,5.4-5.2
		c2.3-1.3,5-1.9,7.8-1.9s5.2,0.6,7.5,1.7c2.3,1.2,4,2.8,5.3,5.1c1.3,2.2,1.9,4.9,1.9,7.9C235.7,265.2,235.7,266.1,235.6,267.6z
		 M217.2,258.8c-1,0.9-1.7,2-1.9,3.6h11.4c-0.3-1.5-0.9-2.7-1.9-3.6s-2.3-1.3-3.8-1.3S218.2,258,217.2,258.8z"/>
	<path class="st1" d="M266.7,253.6c2.1,2.1,3.1,5.2,3.1,9.5v16.3h-9.7v-14.6c0-3.9-1.6-5.8-4.6-5.8c-1.7,0-3,0.6-4,1.7
		s-1.5,2.8-1.5,5.1v13.8h-9.7V251h9.3v3.1c1.1-1.2,2.4-2,3.9-2.7c1.5-0.6,3.1-0.9,4.9-0.9C261.8,250.4,264.6,251.5,266.7,253.6z"/>
	<path class="st1" d="M304.6,267.6h-20.2c0.4,1.5,1.2,2.6,2.4,3.4c1.2,0.8,2.7,1.2,4.4,1.2c1.3,0,2.5-0.2,3.5-0.6s1.9-1,2.9-1.9
		l5.1,5.4c-2.7,3.1-6.6,4.6-11.9,4.6c-3.2,0-6.1-0.6-8.5-1.9c-2.5-1.3-4.3-3-5.7-5.2s-2-4.8-2-7.6c0-2.8,0.6-5.3,1.9-7.5
		c1.3-2.2,3.1-4,5.4-5.2c2.3-1.3,5-1.9,7.8-1.9s5.2,0.6,7.5,1.7s4,2.8,5.3,5.1c1.3,2.2,1.9,4.9,1.9,7.9
		C304.7,265.2,304.7,266.1,304.6,267.6z M286.1,258.8c-1,0.9-1.7,2-1.9,3.6h11.4c-0.3-1.5-0.9-2.7-1.9-3.6s-2.3-1.3-3.8-1.3
		C288.4,257.5,287.1,258,286.1,258.8z"/>
	<path class="st1" d="M331.9,253.3c2,1.2,3.7,2.8,4.8,5c1.2,2.1,1.7,4.6,1.7,7.3c0,2.8-0.6,5.2-1.7,7.4c-1.2,2.1-2.8,3.8-4.8,5
		s-4.3,1.7-6.9,1.7c-2.2,0-4.1-0.5-5.9-1.4c-1.7-0.9-3.2-2.3-4.3-4v15.4h-3.7v-37.8h3.5v5.4c1.1-1.8,2.6-3.2,4.3-4.2
		c1.7-1,3.9-1.5,6.1-1.5C327.6,251.5,329.9,252.2,331.9,253.3z M330,275c1.6-0.9,2.8-2.2,3.6-3.8c0.8-1.7,1.3-3.5,1.3-5.6
		s-0.5-4-1.3-5.6c-0.8-1.7-2.1-2.8-3.6-3.8c-1.6-0.9-3.2-1.4-5.1-1.4s-3.6,0.5-5.1,1.4c-1.6,0.9-2.8,2.2-3.6,3.8
		c-0.8,1.7-1.3,3.5-1.3,5.6s0.5,4,1.3,5.6c0.8,1.7,2,2.9,3.6,3.8s3.2,1.4,5.1,1.4C326.7,276.4,328.4,275.9,330,275z"/>
	<path class="st1" d="M345.9,244.9c-0.6-0.6-0.7-1.2-0.7-1.9s0.3-1.3,0.7-1.8c0.6-0.6,1.1-0.8,1.9-0.8c0.7,0,1.4,0.3,1.9,0.7
		c0.6,0.6,0.7,1.1,0.7,1.8s-0.3,1.4-0.7,1.9c-0.6,0.6-1.1,0.8-1.9,0.8C347,245.7,346.3,245.5,345.9,244.9z M345.9,251.7h3.7v27.6
		h-3.7V251.7z"/>
	<path class="st1" d="M363.7,277.8c-2.1-1.2-3.8-2.8-5-5.1c-1.2-2.1-1.8-4.6-1.8-7.3s0.6-5.1,1.8-7.3c1.2-2.1,2.8-3.8,5-5
		c2.1-1.2,4.5-1.7,7.2-1.7c2.3,0,4.4,0.5,6.3,1.4c1.8,0.9,3.3,2.3,4.3,4l-2.8,1.9c-0.9-1.4-2-2.4-3.4-3s-2.8-1-4.4-1
		c-1.9,0-3.7,0.5-5.2,1.4c-1.6,0.9-2.8,2.2-3.7,3.8c-0.8,1.7-1.3,3.5-1.3,5.6s0.5,4,1.3,5.6c0.8,1.7,2.1,2.8,3.7,3.8
		c1.6,0.9,3.3,1.4,5.2,1.4c1.6,0,3.1-0.4,4.4-1c1.4-0.6,2.5-1.7,3.4-3l2.8,1.9c-1.1,1.7-2.5,3.1-4.3,4s-4,1.4-6.2,1.4
		C368.2,279.7,365.8,279,363.7,277.8z"/>
	<path class="st1" d="M398.1,265.5l-6.3,6v7.9h-3.7v-39h3.7v26.4l16.1-15.1h4.5L400.8,263l12.6,16.4H409L398.1,265.5z"/>
</g>
<g>
	<path class="st2" d="M77.4,363.6l4-19.8H83l10,17.3l-0.7-0.1l3.4-17.2h2.1l-4,19.8h-1.7l-10-17.3l0.7,0.1l-3.4,17.2H77.4z"/>
	<path class="st2" d="M106.8,363.7c-1.4,0-2.7-0.3-3.7-0.8s-1.9-1.3-2.4-2.2c-0.6-0.9-0.8-2.1-0.8-3.4c0-1.7,0.4-3.2,1.1-4.5
		s1.7-2.4,2.9-3.1c1.2-0.8,2.7-1.1,4.2-1.1c1.3,0,2.5,0.3,3.4,0.8c1,0.5,1.7,1.2,2.3,2.2c0.5,0.9,0.8,2.1,0.8,3.4
		c0,0.3,0,0.6-0.1,0.9c0,0.3-0.1,0.6-0.1,0.9h-13.1l0.3-1.5h11.9l-0.8,0.6c0.2-1.2,0.1-2.2-0.3-3s-0.9-1.4-1.7-1.9
		c-0.7-0.4-1.6-0.6-2.7-0.6c-1.2,0-2.3,0.3-3.2,0.9c-0.9,0.6-1.7,1.4-2.2,2.5s-0.8,2.3-0.8,3.7c0,1.5,0.4,2.6,1.3,3.4
		s2.1,1.2,3.9,1.2c1,0,1.9-0.2,2.8-0.5s1.5-0.8,2.1-1.4l0.9,1.4c-0.7,0.7-1.6,1.2-2.6,1.6C109.1,363.5,108,363.7,106.8,363.7z"/>
	<path class="st2" d="M120,363.6l-2.9-14.9h1.8l2.6,13.8h-0.9l7.9-13.8h1.7l2.7,13.8H132l7.8-13.8h2l-8.4,14.9h-2l-2.7-13h0.6
		l-7.4,13H120z"/>
	<path class="st2" d="M154,363.8c-1.5,0-2.9-0.2-4.1-0.7c-1.2-0.5-2.1-1.1-2.7-1.9l1.1-1.6c0.5,0.7,1.3,1.2,2.3,1.6s2.2,0.7,3.5,0.7
		c1.2,0,2.3-0.2,3.2-0.6s1.6-0.9,2-1.6c0.5-0.7,0.7-1.5,0.7-2.4c0-1.1-0.4-2-1.2-2.6s-2-0.9-3.6-0.9H154l0.3-1.5l7.6-7.7l0.3,0.8
		H151l0.4-1.8h12.7l-0.3,1.4l-7.6,7.7l-1-0.7h0.5c1.4,0,2.5,0.2,3.5,0.6c0.9,0.4,1.7,1,2.2,1.7s0.7,1.6,0.7,2.7c0,1.3-0.3,2.4-1,3.4
		s-1.6,1.7-2.8,2.3C157.1,363.5,155.6,363.8,154,363.8z"/>
	<path class="st2" d="M165.6,363.6l4-19.8h7.5c2,0,3.7,0.3,5.1,1c1.4,0.7,2.4,1.6,3.2,2.8c0.7,1.2,1.1,2.6,1.1,4.3
		c0,1.7-0.3,3.3-0.9,4.8c-0.6,1.4-1.4,2.7-2.5,3.7s-2.4,1.8-3.9,2.4s-3.2,0.9-5.1,0.9L165.6,363.6L165.6,363.6z M168,361.8h6.2
		c2.1,0,3.9-0.4,5.4-1.3s2.7-2,3.5-3.5s1.2-3.2,1.2-5.1c0-1.3-0.3-2.4-0.8-3.3c-0.5-1-1.4-1.7-2.5-2.2s-2.5-0.8-4.2-0.8h-5.6
		L168,361.8z"/>
	<path class="st2" d="M200.3,363.7c-1.2,0-2.4-0.2-3.4-0.5c-1.1-0.3-1.9-0.8-2.5-1.3l1-1.6c0.6,0.5,1.3,0.9,2.2,1.2
		c0.9,0.3,1.9,0.4,2.9,0.4c1.4,0,2.5-0.2,3.3-0.7s1.1-1.1,1.1-2c0-0.6-0.2-1-0.6-1.3s-0.9-0.5-1.6-0.7c-0.6-0.2-1.3-0.3-2-0.5
		s-1.4-0.3-2-0.6c-0.6-0.2-1.2-0.6-1.6-1.1c-0.4-0.5-0.6-1.2-0.6-2c0-0.9,0.3-1.8,0.8-2.5s1.3-1.2,2.3-1.6s2.1-0.6,3.4-0.6
		c0.9,0,1.9,0.1,2.8,0.4c0.9,0.2,1.7,0.6,2.2,1l-0.9,1.6c-0.6-0.5-1.3-0.8-2-1c-0.8-0.2-1.5-0.3-2.3-0.3c-1.4,0-2.4,0.3-3.2,0.8
		s-1.1,1.2-1.1,2c0,0.6,0.2,1,0.6,1.3c0.4,0.3,0.9,0.5,1.6,0.7s1.3,0.3,2.1,0.5s1.4,0.3,2,0.6c0.6,0.2,1.2,0.6,1.6,1.1
		c0.4,0.5,0.6,1.1,0.6,1.9c0,1-0.3,1.8-0.8,2.5s-1.3,1.2-2.3,1.6S201.7,363.7,200.3,363.7z"/>
	<path class="st2" d="M216.6,363.7c-1.4,0-2.6-0.3-3.7-0.8c-1-0.5-1.8-1.3-2.4-2.2c-0.6-0.9-0.8-2.1-0.8-3.3c0-1.7,0.4-3.2,1.1-4.5
		c0.7-1.3,1.8-2.4,3.1-3.1c1.3-0.8,2.8-1.1,4.5-1.1c1.4,0,2.6,0.3,3.6,0.8s1.8,1.2,2.3,2.2l-1.7,1c-0.4-0.8-1-1.3-1.7-1.7
		c-0.7-0.4-1.6-0.5-2.6-0.5c-1.2,0-2.4,0.3-3.3,0.9c-1,0.6-1.8,1.4-2.3,2.5c-0.6,1-0.8,2.3-0.8,3.6c0,1.5,0.4,2.6,1.3,3.4
		c0.9,0.8,2.1,1.2,3.7,1.2c1,0,1.9-0.2,2.7-0.6s1.5-0.9,2-1.6l1.4,1.1c-0.6,0.9-1.5,1.6-2.6,2.1
		C219.1,363.5,217.9,363.7,216.6,363.7z"/>
	<path class="st2" d="M232.3,363.7c-1.4,0-2.7-0.3-3.7-0.8s-1.9-1.3-2.4-2.2c-0.6-0.9-0.8-2.1-0.8-3.4c0-1.7,0.4-3.2,1.1-4.5
		c0.7-1.3,1.7-2.4,2.9-3.1c1.2-0.8,2.7-1.1,4.2-1.1c1.3,0,2.5,0.3,3.4,0.8c1,0.5,1.7,1.2,2.3,2.2c0.5,0.9,0.8,2.1,0.8,3.4
		c0,0.3,0,0.6-0.1,0.9c0,0.3-0.1,0.6-0.1,0.9h-13.1l0.3-1.5H239l-0.8,0.6c0.2-1.2,0.1-2.2-0.3-3c-0.4-0.8-0.9-1.4-1.7-1.9
		c-0.7-0.4-1.6-0.6-2.7-0.6c-1.2,0-2.3,0.3-3.2,0.9s-1.7,1.4-2.2,2.5s-0.8,2.3-0.8,3.7c0,1.5,0.4,2.6,1.3,3.4
		c0.9,0.8,2.1,1.2,3.9,1.2c1,0,1.9-0.2,2.8-0.5c0.9-0.3,1.5-0.8,2.1-1.4l0.9,1.4c-0.7,0.7-1.6,1.2-2.6,1.6
		C234.6,363.5,233.5,363.7,232.3,363.7z"/>
	<path class="st2" d="M252.9,348.6c1.3,0,2.4,0.3,3.3,0.8s1.5,1.3,1.8,2.3s0.4,2.2,0.1,3.5l-1.7,8.5h-2l1.7-8.5
		c0.3-1.5,0.1-2.6-0.5-3.5c-0.6-0.8-1.7-1.2-3.2-1.2c-1.6,0-2.9,0.4-4,1.3s-1.8,2.2-2.1,3.9l-1.6,8h-2l2.9-14.9h1.9l-0.9,4.3
		l-0.4-0.7c0.7-1.3,1.6-2.2,2.8-2.8C250.2,348.9,251.5,348.6,252.9,348.6z"/>
	<path class="st2" d="M268.6,363.7c-1.4,0-2.7-0.3-3.7-0.8s-1.9-1.3-2.4-2.2c-0.6-0.9-0.8-2.1-0.8-3.4c0-1.7,0.4-3.2,1.1-4.5
		s1.7-2.4,2.9-3.1c1.2-0.8,2.7-1.1,4.2-1.1c1.3,0,2.5,0.3,3.4,0.8c1,0.5,1.7,1.2,2.3,2.2c0.5,0.9,0.8,2.1,0.8,3.4
		c0,0.3,0,0.6-0.1,0.9c0,0.3-0.1,0.6-0.1,0.9h-13.1l0.3-1.5h11.9l-0.8,0.6c0.2-1.2,0.1-2.2-0.3-3s-0.9-1.4-1.7-1.9
		c-0.7-0.4-1.6-0.6-2.7-0.6c-1.2,0-2.3,0.3-3.2,0.9c-0.9,0.6-1.7,1.4-2.2,2.5s-0.8,2.3-0.8,3.7c0,1.5,0.4,2.6,1.3,3.4
		s2.1,1.2,3.9,1.2c1,0,1.9-0.2,2.8-0.5s1.5-0.8,2.1-1.4l0.9,1.4c-0.7,0.7-1.6,1.2-2.6,1.6C270.9,363.5,269.8,363.7,268.6,363.7z"/>
	<path class="st2" d="M283.3,363.7c-1.2,0-2.4-0.2-3.4-0.5c-1.1-0.3-1.9-0.8-2.5-1.3l1-1.6c0.6,0.5,1.3,0.9,2.2,1.2
		c0.9,0.3,1.9,0.4,2.9,0.4c1.4,0,2.5-0.2,3.3-0.7s1.1-1.1,1.1-2c0-0.6-0.2-1-0.6-1.3s-0.9-0.5-1.6-0.7c-0.6-0.2-1.3-0.3-2-0.5
		s-1.4-0.3-2-0.6s-1.2-0.6-1.6-1.1s-0.6-1.2-0.6-2c0-0.9,0.3-1.8,0.8-2.5s1.3-1.2,2.3-1.6s2.1-0.6,3.4-0.6c0.9,0,1.9,0.1,2.8,0.4
		c0.9,0.2,1.7,0.6,2.2,1l-0.9,1.6c-0.6-0.5-1.3-0.8-2-1c-0.8-0.2-1.5-0.3-2.3-0.3c-1.4,0-2.4,0.3-3.2,0.8c-0.7,0.5-1.1,1.2-1.1,2
		c0,0.6,0.2,1,0.6,1.3s0.9,0.5,1.6,0.7s1.3,0.3,2.1,0.5s1.4,0.3,2,0.6c0.6,0.2,1.2,0.6,1.6,1.1s0.6,1.1,0.6,1.9c0,1-0.3,1.8-0.8,2.5
		s-1.3,1.2-2.3,1.6S284.6,363.7,283.3,363.7z"/>
	<path class="st2" d="M306.5,363.7c-1.3,0-2.4-0.3-3.4-0.8s-1.7-1.2-2.3-2.2c-0.5-0.9-0.8-2.1-0.8-3.4s0.2-2.4,0.6-3.5s1-2,1.8-2.8
		s1.6-1.4,2.7-1.9c1-0.4,2.1-0.7,3.4-0.7s2.4,0.2,3.3,0.7s1.6,1.1,2.1,2s0.7,1.9,0.7,3.2c0,1.8-0.3,3.4-1,4.8s-1.6,2.5-2.8,3.3
		C309.6,363.3,308.2,363.7,306.5,363.7z M307,362c1.2,0,2.4-0.3,3.3-0.9c1-0.6,1.7-1.4,2.3-2.5c0.6-1.1,0.8-2.3,0.8-3.6
		c0-1.5-0.4-2.6-1.3-3.4s-2.1-1.2-3.6-1.2c-1.2,0-2.3,0.3-3.3,0.9s-1.8,1.4-2.3,2.5c-0.6,1-0.8,2.3-0.8,3.6c0,1.5,0.4,2.6,1.3,3.4
		C304.2,361.5,305.4,362,307,362z M311.9,363.6l0.8-4.3l0.9-3l0.3-3.1l0.9-4.5h2l-3,14.9H311.9z"/>
	<path class="st2" d="M319.4,363.6l2.9-14.9h1.9l-0.9,4.4l-0.2-0.8c0.7-1.3,1.5-2.3,2.6-2.9s2.4-0.9,4.1-0.9l-0.4,2
		c-0.1,0-0.2,0-0.3,0c-0.1,0-0.2,0-0.3,0c-1.6,0-2.9,0.5-3.9,1.4s-1.7,2.3-2.1,4.2l-1.5,7.6h-1.9L319.4,363.6L319.4,363.6z"/>
	<path class="st2" d="M337.2,363.7c-1.4,0-2.7-0.3-3.7-0.8s-1.9-1.3-2.4-2.2c-0.6-0.9-0.8-2.1-0.8-3.4c0-1.7,0.4-3.2,1.1-4.5
		s1.7-2.4,2.9-3.1c1.2-0.8,2.7-1.1,4.2-1.1c1.3,0,2.5,0.3,3.4,0.8c1,0.5,1.7,1.2,2.3,2.2c0.5,0.9,0.8,2.1,0.8,3.4
		c0,0.3,0,0.6-0.1,0.9s-0.1,0.6-0.1,0.9h-13.1l0.3-1.5h11.9l-0.8,0.6c0.2-1.2,0.1-2.2-0.3-3s-0.9-1.4-1.7-1.9
		c-0.7-0.4-1.6-0.6-2.7-0.6c-1.2,0-2.3,0.3-3.2,0.9c-0.9,0.6-1.7,1.4-2.2,2.5s-0.8,2.3-0.8,3.7c0,1.5,0.4,2.6,1.3,3.4
		s2.1,1.2,3.9,1.2c1,0,1.9-0.2,2.8-0.5s1.5-0.8,2.1-1.4l0.9,1.4c-0.7,0.7-1.6,1.2-2.6,1.6C339.5,363.5,338.4,363.7,337.2,363.7z"/>
	<path class="st2" d="M355,363.6l2.9-14.9h1.9l-0.9,4.4l-0.2-0.8c0.7-1.3,1.5-2.3,2.6-2.9s2.4-0.9,4.1-0.9l-0.4,2
		c-0.1,0-0.2,0-0.3,0c-0.1,0-0.2,0-0.3,0c-1.6,0-2.9,0.5-3.9,1.4s-1.7,2.3-2.1,4.2l-1.5,7.6H355V363.6z"/>
	<path class="st2" d="M372.8,363.7c-1.4,0-2.7-0.3-3.7-0.8s-1.9-1.3-2.4-2.2c-0.6-0.9-0.8-2.1-0.8-3.4c0-1.7,0.4-3.2,1.1-4.5
		s1.7-2.4,2.9-3.1c1.2-0.8,2.7-1.1,4.2-1.1c1.3,0,2.5,0.3,3.4,0.8c1,0.5,1.7,1.2,2.3,2.2c0.5,0.9,0.8,2.1,0.8,3.4
		c0,0.3,0,0.6-0.1,0.9s-0.1,0.6-0.1,0.9h-13.1l0.3-1.5h11.9l-0.8,0.6c0.2-1.2,0.1-2.2-0.3-3s-0.9-1.4-1.7-1.9
		c-0.7-0.4-1.6-0.6-2.7-0.6c-1.2,0-2.3,0.3-3.2,0.9c-0.9,0.6-1.7,1.4-2.2,2.5s-0.8,2.3-0.8,3.7c0,1.5,0.4,2.6,1.3,3.4
		s2.1,1.2,3.9,1.2c1,0,1.9-0.2,2.8-0.5s1.5-0.8,2.1-1.4l0.9,1.4c-0.7,0.7-1.6,1.2-2.6,1.6C375,363.5,373.9,363.7,372.8,363.7z"/>
	<path class="st2" d="M388.6,369.2c-1.4,0-2.6-0.2-3.8-0.6s-2.1-0.9-2.9-1.7l1.2-1.5c0.6,0.6,1.4,1.1,2.4,1.4s2,0.5,3.2,0.5
		c1.9,0,3.4-0.4,4.4-1.3s1.7-2.2,2.1-4l0.8-3.9l0.8-2.4l0.3-2.6l0.9-4.5h1.9l-2.6,13.1c-0.5,2.6-1.5,4.5-2.9,5.7
		C392.9,368.7,391,369.2,388.6,369.2z M389.6,363c-1.3,0-2.5-0.2-3.4-0.7s-1.8-1.2-2.3-2.1s-0.8-2-0.8-3.2s0.2-2.3,0.6-3.3
		s1-1.9,1.8-2.7c0.8-0.8,1.7-1.4,2.7-1.8s2.2-0.6,3.4-0.6c1.2,0,2.2,0.2,3.2,0.6c0.9,0.4,1.7,1,2.2,1.9c0.5,0.8,0.8,1.9,0.8,3.2
		c0,1.6-0.3,3.1-1,4.4s-1.6,2.4-2.8,3.2C392.7,362.6,391.3,363,389.6,363z M390,361.2c1.2,0,2.4-0.3,3.3-0.9c1-0.6,1.7-1.3,2.3-2.3
		c0.6-1,0.9-2.1,0.9-3.4c0-1.4-0.4-2.4-1.3-3.2s-2.1-1.1-3.6-1.1c-1.2,0-2.4,0.3-3.3,0.9c-1,0.6-1.8,1.3-2.3,2.3
		c-0.6,1-0.8,2.1-0.8,3.4c0,1.4,0.4,2.4,1.3,3.2C387.2,360.9,388.4,361.2,390,361.2z"/>
	<path class="st2" d="M408.7,363.7c-1.3,0-2.4-0.3-3.2-0.8c-0.9-0.5-1.5-1.3-1.8-2.3s-0.4-2.1-0.1-3.5l1.7-8.5h2l-1.7,8.5
		c-0.3,1.5-0.1,2.6,0.5,3.5s1.7,1.3,3.2,1.3c1.6,0,2.9-0.4,3.9-1.3s1.8-2.2,2.1-3.9l1.6-8h2l-3,14.9H414l0.9-4.3l0.4,0.7
		c-0.7,1.3-1.6,2.2-2.8,2.8C411.4,363.4,410.1,363.7,408.7,363.7z"/>
	<path class="st2" d="M421.5,363.6l4.2-21h2l-4.2,21H421.5z"/>
	<path class="st2" d="M435.5,363.7c-1.3,0-2.4-0.3-3.4-0.8s-1.7-1.2-2.3-2.2c-0.5-0.9-0.8-2.1-0.8-3.4s0.2-2.4,0.6-3.5s1-2,1.8-2.8
		s1.6-1.4,2.7-1.9c1-0.4,2.1-0.7,3.4-0.7s2.4,0.2,3.3,0.7s1.6,1.1,2.1,2s0.7,1.9,0.7,3.2c0,1.8-0.3,3.4-1,4.8s-1.6,2.5-2.8,3.3
		C438.6,363.3,437.2,363.7,435.5,363.7z M435.9,362c1.2,0,2.4-0.3,3.3-0.9c1-0.6,1.7-1.4,2.3-2.5c0.6-1.1,0.8-2.3,0.8-3.6
		c0-1.5-0.4-2.6-1.3-3.4s-2.1-1.2-3.6-1.2c-1.2,0-2.3,0.3-3.3,0.9s-1.8,1.4-2.3,2.5s-0.8,2.3-0.8,3.6c0,1.5,0.4,2.6,1.3,3.4
		C433.2,361.5,434.4,362,435.9,362z M440.9,363.6l0.9-4.3l0.9-3l0.3-3.1l0.9-4.5h2l-3,14.9H440.9z"/>
	<path class="st2" d="M448.4,363.6l2.9-14.9h1.9l-0.9,4.4l-0.2-0.8c0.7-1.3,1.5-2.3,2.6-2.9s2.4-0.9,4.1-0.9l-0.4,2
		c-0.1,0-0.2,0-0.3,0c-0.1,0-0.2,0-0.3,0c-1.6,0-2.9,0.5-3.9,1.4s-1.7,2.3-2.1,4.2l-1.5,7.6h-1.9L448.4,363.6L448.4,363.6z"/>
	<path class="st2" d="M459.5,363.6l4.2-21h2l-4.2,21H459.5z"/>
	<path class="st2" d="M466.4,369.2c-0.7,0-1.4-0.1-2-0.4s-1.2-0.6-1.5-1l1.1-1.5c0.3,0.3,0.7,0.6,1.1,0.8c0.4,0.2,0.9,0.3,1.5,0.3
		s1.2-0.2,1.8-0.5c0.5-0.4,1.1-1,1.7-1.9l1.5-2.3l0.3-0.3l8.8-13.8h2.1l-10.9,16.8c-0.6,0.9-1.2,1.7-1.8,2.2
		c-0.5,0.5-1.1,0.9-1.7,1.1C467.8,369.1,467.1,369.2,466.4,369.2z M471.2,364l-3.8-15.3h2l3.3,13.7L471.2,364z"/>
	<path class="st2" d="M106.9,403.4c-1.3,0-2.4-0.3-3.4-0.8s-1.7-1.2-2.3-2.2c-0.5-0.9-0.8-2.1-0.8-3.4s0.2-2.4,0.6-3.5s1-2,1.8-2.8
		s1.6-1.4,2.7-1.9c1-0.4,2.1-0.7,3.4-0.7s2.4,0.2,3.3,0.7s1.6,1.1,2.1,2s0.7,1.9,0.7,3.2c0,1.8-0.3,3.4-1,4.8s-1.6,2.5-2.8,3.3
		C110,403,108.5,403.4,106.9,403.4z M107.3,401.6c1.2,0,2.4-0.3,3.3-0.9c1-0.6,1.7-1.4,2.3-2.5c0.6-1.1,0.8-2.3,0.8-3.6
		c0-1.5-0.4-2.6-1.3-3.4s-2.1-1.2-3.6-1.2c-1.2,0-2.3,0.3-3.3,0.9s-1.8,1.4-2.3,2.5c-0.6,1-0.8,2.3-0.8,3.6c0,1.5,0.4,2.6,1.3,3.4
		C104.6,401.2,105.8,401.6,107.3,401.6z M112.2,403.3l0.9-4.3l0.9-3l0.3-3.1l0.9-4.5h2l-3,14.9H112.2z"/>
	<path class="st2" d="M126.1,403.4c-1.3,0-2.4-0.3-3.4-0.8s-1.7-1.2-2.3-2.2c-0.5-0.9-0.8-2.1-0.8-3.4s0.2-2.4,0.6-3.5s1-2,1.8-2.8
		s1.6-1.4,2.7-1.9c1-0.4,2.1-0.7,3.4-0.7s2.4,0.2,3.3,0.7c0.9,0.5,1.6,1.1,2.1,2s0.7,1.9,0.7,3.2c0,1.3-0.2,2.6-0.6,3.7
		c-0.4,1.1-0.9,2.1-1.6,2.9c-0.7,0.8-1.6,1.5-2.6,1.9C128.4,403.2,127.3,403.4,126.1,403.4z M126.5,401.6c1.2,0,2.4-0.3,3.3-0.9
		c1-0.6,1.7-1.4,2.3-2.5s0.8-2.3,0.8-3.6c0-1.5-0.4-2.6-1.3-3.4s-2.1-1.2-3.6-1.2c-1.2,0-2.3,0.3-3.3,0.9s-1.8,1.4-2.3,2.5
		c-0.6,1-0.8,2.3-0.8,3.6c0,1.5,0.4,2.6,1.3,3.4C123.8,401.2,125,401.6,126.5,401.6z M131.4,403.3l0.9-4.3l0.9-3l0.3-3.1l2.1-10.6h2
		l-4.2,21H131.4z"/>
	<path class="st2" d="M145.3,403.4c-1.3,0-2.4-0.3-3.4-0.8s-1.7-1.2-2.3-2.2c-0.5-0.9-0.8-2.1-0.8-3.4s0.2-2.4,0.6-3.5s1-2,1.8-2.8
		s1.6-1.4,2.7-1.9c1-0.4,2.1-0.7,3.4-0.7c1.3,0,2.4,0.2,3.3,0.7c0.9,0.5,1.6,1.1,2.1,2s0.7,1.9,0.7,3.2c0,1.3-0.2,2.6-0.6,3.7
		c-0.4,1.1-0.9,2.1-1.6,2.9c-0.7,0.8-1.6,1.5-2.6,1.9C147.7,403.2,146.6,403.4,145.3,403.4z M145.8,401.6c1.2,0,2.4-0.3,3.3-0.9
		c1-0.6,1.7-1.4,2.3-2.5s0.8-2.3,0.8-3.6c0-1.5-0.4-2.6-1.3-3.4s-2.1-1.2-3.6-1.2c-1.2,0-2.3,0.3-3.3,0.9s-1.8,1.4-2.3,2.5
		c-0.6,1-0.8,2.3-0.8,3.6c0,1.5,0.4,2.6,1.3,3.4C143,401.2,144.2,401.6,145.8,401.6z M150.7,403.3l0.9-4.3l0.9-3l0.3-3.1l2.1-10.6h2
		l-4.2,21H150.7z"/>
	<path class="st2" d="M165,403.4c-1.4,0-2.7-0.3-3.7-0.8s-1.9-1.3-2.4-2.2c-0.6-0.9-0.8-2.1-0.8-3.4c0-1.7,0.4-3.2,1.1-4.5
		c0.7-1.3,1.7-2.4,2.9-3.1c1.2-0.8,2.7-1.1,4.2-1.1c1.3,0,2.5,0.3,3.4,0.8c1,0.5,1.7,1.2,2.3,2.2c0.5,0.9,0.8,2.1,0.8,3.4
		c0,0.3,0,0.6-0.1,0.9c0,0.3-0.1,0.6-0.1,0.9h-13.1l0.3-1.5h11.9l-0.8,0.6c0.2-1.2,0.1-2.2-0.3-3c-0.4-0.8-0.9-1.4-1.7-1.9
		c-0.7-0.4-1.6-0.6-2.7-0.6c-1.2,0-2.3,0.3-3.2,0.9s-1.7,1.4-2.2,2.5s-0.8,2.3-0.8,3.7c0,1.5,0.4,2.6,1.3,3.4
		c0.9,0.8,2.1,1.2,3.9,1.2c1,0,1.9-0.2,2.8-0.5c0.9-0.3,1.5-0.8,2.1-1.4l0.9,1.4c-0.7,0.7-1.6,1.2-2.6,1.6
		C167.3,403.2,166.2,403.4,165,403.4z"/>
	<path class="st2" d="M181.7,403.4c-1.3,0-2.4-0.3-3.4-0.8s-1.7-1.2-2.3-2.2c-0.5-0.9-0.8-2.1-0.8-3.4s0.2-2.4,0.6-3.5s1-2,1.8-2.8
		s1.6-1.4,2.7-1.9c1-0.4,2.1-0.7,3.4-0.7c1.3,0,2.4,0.2,3.3,0.7c0.9,0.5,1.6,1.1,2.1,2s0.7,1.9,0.7,3.2c0,1.3-0.2,2.6-0.6,3.7
		c-0.4,1.1-0.9,2.1-1.6,2.9c-0.7,0.8-1.6,1.5-2.6,1.9C184,403.2,182.9,403.4,181.7,403.4z M182.1,401.6c1.2,0,2.4-0.3,3.3-0.9
		c1-0.6,1.7-1.4,2.3-2.5s0.8-2.3,0.8-3.6c0-1.5-0.4-2.6-1.3-3.4s-2.1-1.2-3.6-1.2c-1.2,0-2.3,0.3-3.3,0.9s-1.8,1.4-2.3,2.5
		c-0.6,1-0.8,2.3-0.8,3.6c0,1.5,0.4,2.6,1.3,3.4C179.3,401.2,180.5,401.6,182.1,401.6z M187,403.3l0.9-4.3l0.9-3l0.3-3.1l2.1-10.6h2
		l-4.2,21H187z"/>
	<path class="st2" d="M202.3,390.1l0.3-1.7h9.2l-0.3,1.7H202.3z M206.7,403.4c-0.9,0-1.6-0.2-2.2-0.6s-1-0.9-1.3-1.6
		c-0.2-0.7-0.3-1.5-0.1-2.4l2.7-13.7h2l-2.7,13.7c-0.2,0.9-0.1,1.6,0.2,2.2c0.3,0.5,0.9,0.8,1.8,0.8c0.4,0,0.8-0.1,1.2-0.2
		s0.8-0.3,1.1-0.6l0.5,1.5c-0.5,0.4-1,0.6-1.6,0.8C207.8,403.4,207.3,403.4,206.7,403.4z"/>
	<path class="st2" d="M219.6,403.4c-1.4,0-2.6-0.3-3.6-0.8s-1.8-1.3-2.4-2.2c-0.6-0.9-0.8-2.1-0.8-3.3c0-1.7,0.4-3.2,1.1-4.5
		c0.7-1.3,1.8-2.4,3.1-3.1c1.3-0.8,2.8-1.1,4.5-1.1c1.4,0,2.6,0.3,3.6,0.8s1.8,1.2,2.4,2.2c0.6,0.9,0.8,2.1,0.8,3.3
		c0,1.7-0.4,3.2-1.1,4.5c-0.7,1.3-1.8,2.4-3,3.2C222.7,403,221.2,403.4,219.6,403.4z M219.7,401.6c1.2,0,2.4-0.3,3.3-0.9
		c1-0.6,1.7-1.4,2.3-2.5s0.8-2.3,0.8-3.6c0-1.5-0.4-2.6-1.3-3.4s-2.1-1.2-3.6-1.2c-1.2,0-2.3,0.3-3.3,0.9s-1.8,1.4-2.3,2.5
		c-0.6,1-0.8,2.3-0.8,3.6c0,1.5,0.4,2.6,1.3,3.4C217,401.2,218.2,401.6,219.7,401.6z"/>
	<path class="st2" d="M238.4,390.1l0.3-1.7h9.2l-0.3,1.7H238.4z M242.9,403.4c-0.9,0-1.6-0.2-2.2-0.6s-1-0.9-1.3-1.6
		c-0.2-0.7-0.3-1.5-0.1-2.4l2.7-13.7h2l-2.7,13.7c-0.2,0.9-0.1,1.6,0.2,2.2c0.3,0.5,0.9,0.8,1.8,0.8c0.4,0,0.8-0.1,1.2-0.2
		s0.8-0.3,1.1-0.6l0.5,1.5c-0.5,0.4-1,0.6-1.6,0.8C244,403.4,243.4,403.4,242.9,403.4z"/>
	<path class="st2" d="M259.9,388.3c1.3,0,2.4,0.3,3.3,0.8s1.5,1.3,1.8,2.3s0.4,2.2,0.1,3.5l-1.7,8.5h-2l1.7-8.5
		c0.3-1.5,0.1-2.6-0.5-3.5c-0.6-0.8-1.7-1.2-3.2-1.2c-1.6,0-2.9,0.4-4,1.3s-1.8,2.2-2.1,3.9l-1.6,8h-2l4.2-21h2l-2.1,10.4l-0.5-0.7
		c0.7-1.3,1.6-2.2,2.8-2.8C257.2,388.6,258.5,388.3,259.9,388.3z"/>
	<path class="st2" d="M268.8,403.3l2.9-14.9h2l-2.9,14.9H268.8z M273.6,385.1c-0.4,0-0.7-0.1-1-0.4s-0.4-0.6-0.4-0.9
		c0-0.4,0.1-0.8,0.4-1.1c0.3-0.3,0.7-0.5,1.1-0.5s0.7,0.1,1,0.4c0.3,0.2,0.4,0.6,0.4,0.9c0,0.5-0.2,0.8-0.5,1.1
		C274.5,385,274.1,385.1,273.6,385.1z"/>
	<path class="st2" d="M280.8,403.4c-1.2,0-2.4-0.2-3.4-0.5c-1.1-0.3-1.9-0.8-2.5-1.3l1-1.6c0.6,0.5,1.3,0.9,2.2,1.2
		c0.9,0.3,1.9,0.4,2.9,0.4c1.4,0,2.5-0.2,3.3-0.7s1.1-1.1,1.1-2c0-0.6-0.2-1-0.6-1.3s-0.9-0.5-1.6-0.7c-0.6-0.2-1.3-0.3-2-0.5
		s-1.4-0.3-2-0.6c-0.6-0.2-1.2-0.6-1.6-1.1s-0.6-1.2-0.6-2c0-0.9,0.3-1.8,0.8-2.5s1.3-1.2,2.3-1.6s2.1-0.6,3.4-0.6
		c0.9,0,1.9,0.1,2.8,0.4c0.9,0.2,1.7,0.6,2.2,1l-0.9,1.6c-0.6-0.5-1.3-0.8-2-1c-0.8-0.2-1.5-0.3-2.3-0.3c-1.4,0-2.4,0.3-3.2,0.8
		s-1.1,1.2-1.1,2c0,0.6,0.2,1,0.6,1.3s0.9,0.5,1.6,0.7s1.3,0.3,2.1,0.5s1.4,0.3,2,0.6c0.6,0.2,1.2,0.6,1.6,1.1s0.6,1.1,0.6,1.9
		c0,1-0.3,1.8-0.8,2.5s-1.3,1.2-2.3,1.6S282.1,403.4,280.8,403.4z"/>
	<path class="st2" d="M297.7,403.3l4.2-21h2l-4.2,21H297.7z"/>
	<path class="st2" d="M305.3,403.3l2.9-14.9h2l-2.9,14.9H305.3z M310.1,385.1c-0.4,0-0.7-0.1-1-0.4s-0.4-0.6-0.4-0.9
		c0-0.4,0.1-0.8,0.4-1.1c0.3-0.3,0.7-0.5,1.1-0.5s0.7,0.1,1,0.4c0.3,0.2,0.4,0.6,0.4,0.9c0,0.5-0.2,0.8-0.5,1.1
		C311,385,310.6,385.1,310.1,385.1z"/>
	<path class="st2" d="M317.3,403.4c-1.2,0-2.4-0.2-3.4-0.5c-1.1-0.3-1.9-0.8-2.5-1.3l1-1.6c0.6,0.5,1.3,0.9,2.2,1.2
		c0.9,0.3,1.9,0.4,2.9,0.4c1.4,0,2.5-0.2,3.3-0.7s1.1-1.1,1.1-2c0-0.6-0.2-1-0.6-1.3s-0.9-0.5-1.6-0.7c-0.6-0.2-1.3-0.3-2-0.5
		s-1.4-0.3-2-0.6c-0.6-0.2-1.2-0.6-1.6-1.1s-0.6-1.2-0.6-2c0-0.9,0.3-1.8,0.8-2.5s1.3-1.2,2.3-1.6s2.1-0.6,3.4-0.6
		c0.9,0,1.9,0.1,2.8,0.4c0.9,0.2,1.7,0.6,2.2,1l-0.8,1.6c-0.6-0.5-1.3-0.8-2-1c-0.8-0.2-1.5-0.3-2.3-0.3c-1.4,0-2.4,0.3-3.2,0.8
		c-0.7,0.5-1.1,1.2-1.1,2c0,0.6,0.2,1,0.6,1.3s0.9,0.5,1.6,0.7s1.3,0.3,2.1,0.5s1.4,0.3,2,0.6c0.6,0.2,1.2,0.6,1.6,1.1
		s0.6,1.1,0.6,1.9c0,1-0.3,1.8-0.8,2.5s-1.3,1.2-2.3,1.6S318.6,403.4,317.3,403.4z"/>
	<path class="st2" d="M327.1,390.1l0.3-1.7h9.2l-0.3,1.7H327.1z M331.5,403.4c-0.8,0-1.6-0.2-2.2-0.6s-1-0.9-1.3-1.6
		c-0.2-0.7-0.3-1.5-0.1-2.4l2.7-13.7h2l-2.7,13.7c-0.2,0.9-0.1,1.6,0.2,2.2c0.3,0.5,0.9,0.8,1.8,0.8c0.4,0,0.8-0.1,1.2-0.2
		c0.4-0.1,0.8-0.3,1.1-0.6l0.5,1.5c-0.5,0.4-1,0.6-1.6,0.8C332.6,403.4,332.1,403.4,331.5,403.4z"/>
	<path class="st2" d="M339,403.4c-0.4,0-0.8-0.1-1-0.4c-0.3-0.3-0.4-0.6-0.4-1c0-0.5,0.2-0.9,0.5-1.2c0.3-0.3,0.7-0.5,1.1-0.5
		s0.8,0.1,1,0.4c0.3,0.3,0.4,0.6,0.4,1.1c0,0.3-0.1,0.6-0.2,0.8s-0.3,0.4-0.6,0.6C339.5,403.4,339.3,403.4,339,403.4z"/>
	<path class="st2" d="M352.4,403.3l4-19.8h8.5c1.9,0,3.4,0.4,4.5,1.1s1.6,1.8,1.6,3.1c0,1.3-0.3,2.4-0.9,3.2s-1.4,1.5-2.5,1.9
		c-1,0.4-2.1,0.7-3.3,0.7l0.6-0.7c1.6,0,2.8,0.4,3.8,1.1s1.4,1.8,1.4,3.2c0,1.3-0.3,2.4-1,3.4c-0.7,0.9-1.7,1.6-2.9,2.1
		c-1.3,0.5-2.8,0.7-4.5,0.7L352.4,403.3L352.4,403.3z M354.8,401.6h7c2,0,3.5-0.4,4.6-1.1c1.1-0.8,1.6-1.8,1.6-3.3
		c0-1.1-0.4-1.9-1.2-2.4c-0.8-0.5-1.9-0.7-3.4-0.7H356l0.3-1.7h6.7c1.1,0,2.1-0.2,3-0.5s1.6-0.8,2.1-1.5s0.7-1.5,0.7-2.4
		c0-1-0.4-1.7-1.1-2.2s-1.8-0.7-3.2-0.7h-6.4L354.8,401.6z"/>
	<path class="st2" d="M380.2,403.4c-1.4,0-2.7-0.3-3.7-0.8s-1.9-1.3-2.4-2.2c-0.6-0.9-0.8-2.1-0.8-3.4c0-1.7,0.4-3.2,1.1-4.5
		s1.7-2.4,2.9-3.1c1.2-0.8,2.7-1.1,4.2-1.1c1.3,0,2.5,0.3,3.4,0.8c1,0.5,1.7,1.2,2.3,2.2c0.5,0.9,0.8,2.1,0.8,3.4
		c0,0.3,0,0.6-0.1,0.9c0,0.3-0.1,0.6-0.1,0.9h-13.1l0.3-1.5h11.9l-0.8,0.6c0.2-1.2,0.1-2.2-0.3-3s-0.9-1.4-1.7-1.9
		c-0.7-0.4-1.6-0.6-2.7-0.6c-1.2,0-2.3,0.3-3.2,0.9c-0.9,0.6-1.7,1.4-2.2,2.5s-0.8,2.3-0.8,3.7c0,1.5,0.4,2.6,1.3,3.4
		s2.1,1.2,3.9,1.2c1,0,1.9-0.2,2.8-0.5s1.5-0.8,2.1-1.4l0.9,1.4c-0.7,0.7-1.6,1.2-2.6,1.6C382.5,403.2,381.3,403.4,380.2,403.4z"/>
	<path class="st2" d="M402.3,403.4c-1.2,0-2.4-0.2-3.4-0.5c-1.1-0.3-1.9-0.8-2.5-1.3l1-1.6c0.6,0.5,1.3,0.9,2.2,1.2s1.9,0.4,2.9,0.4
		c1.4,0,2.5-0.2,3.3-0.7s1.1-1.1,1.1-2c0-0.6-0.2-1-0.6-1.3s-0.9-0.5-1.6-0.7c-0.6-0.2-1.3-0.3-2-0.5s-1.4-0.3-2-0.6
		s-1.2-0.6-1.6-1.1s-0.6-1.2-0.6-2c0-0.9,0.3-1.8,0.8-2.5s1.3-1.2,2.3-1.6s2.1-0.6,3.4-0.6c0.9,0,1.9,0.1,2.8,0.4
		c0.9,0.2,1.7,0.6,2.2,1l-0.9,1.6c-0.6-0.5-1.3-0.8-2-1c-0.8-0.2-1.5-0.3-2.3-0.3c-1.4,0-2.4,0.3-3.2,0.8c-0.7,0.5-1.1,1.2-1.1,2
		c0,0.6,0.2,1,0.6,1.3s0.9,0.5,1.6,0.7s1.3,0.3,2.1,0.5s1.4,0.3,2,0.6c0.6,0.2,1.2,0.6,1.6,1.1s0.6,1.1,0.6,1.9c0,1-0.3,1.8-0.8,2.5
		s-1.3,1.2-2.3,1.6S403.6,403.4,402.3,403.4z"/>
	<path class="st2" d="M418,403.4c-1.3,0-2.4-0.3-3.2-0.8c-0.9-0.5-1.5-1.3-1.8-2.3s-0.4-2.1-0.1-3.5l1.7-8.5h2l-1.7,8.5
		c-0.3,1.5-0.1,2.6,0.5,3.5c0.6,0.8,1.7,1.3,3.2,1.3c1.6,0,2.9-0.4,3.9-1.3s1.8-2.2,2.1-3.9l1.6-8h2l-3,14.9h-1.9l0.9-4.3l0.4,0.7
		c-0.7,1.3-1.6,2.2-2.8,2.8C420.6,403.1,419.4,403.4,418,403.4z"/>
	<path class="st2" d="M430.8,403.3l2.9-14.9h1.9l-0.9,4.4l-0.2-0.8c0.7-1.3,1.5-2.3,2.6-2.9s2.4-0.9,4.1-0.9l-0.4,2
		c-0.1,0-0.2,0-0.3,0c-0.1,0-0.2,0-0.3,0c-1.6,0-2.9,0.5-3.9,1.4s-1.7,2.3-2.1,4.2l-1.5,7.6h-1.9L430.8,403.3L430.8,403.3z"/>
	<path class="st2" d="M448.6,403.4c-1.4,0-2.7-0.3-3.7-0.8s-1.9-1.3-2.4-2.2c-0.6-0.9-0.8-2.1-0.8-3.4c0-1.7,0.4-3.2,1.1-4.5
		s1.7-2.4,2.9-3.1c1.2-0.8,2.7-1.1,4.2-1.1c1.3,0,2.5,0.3,3.4,0.8c1,0.5,1.7,1.2,2.3,2.2c0.5,0.9,0.8,2.1,0.8,3.4
		c0,0.3,0,0.6-0.1,0.9s-0.1,0.6-0.1,0.9h-13.1l0.3-1.5h11.9l-0.8,0.6c0.2-1.2,0.1-2.2-0.3-3s-0.9-1.4-1.7-1.9
		c-0.7-0.4-1.6-0.6-2.7-0.6c-1.2,0-2.3,0.3-3.2,0.9c-0.9,0.6-1.7,1.4-2.2,2.5s-0.8,2.3-0.8,3.7c0,1.5,0.4,2.6,1.3,3.4
		s2.1,1.2,3.9,1.2c1,0,1.9-0.2,2.8-0.5s1.5-0.8,2.1-1.4l0.9,1.4c-0.7,0.7-1.6,1.2-2.6,1.6C450.9,403.2,449.8,403.4,448.6,403.4z"/>
	<path class="st2" d="M136.4,429.8l0.3-1.7h9.2l-0.3,1.7H136.4z M140.8,443.1c-0.9,0-1.6-0.2-2.2-0.6s-1-0.9-1.3-1.6
		c-0.2-0.7-0.3-1.5-0.1-2.4l2.7-13.7h2l-2.7,13.7c-0.2,0.9-0.1,1.6,0.2,2.2c0.3,0.5,0.9,0.8,1.8,0.8c0.4,0,0.8-0.1,1.2-0.2
		s0.8-0.3,1.1-0.6l0.5,1.5c-0.5,0.4-1,0.6-1.6,0.8C142,443,141.4,443.1,140.8,443.1z"/>
	<path class="st2" d="M153.7,443.1c-1.4,0-2.6-0.3-3.6-0.8s-1.8-1.3-2.4-2.2c-0.6-0.9-0.8-2.1-0.8-3.3c0-1.7,0.4-3.2,1.1-4.5
		c0.7-1.3,1.8-2.4,3.1-3.1c1.3-0.8,2.8-1.1,4.5-1.1c1.4,0,2.6,0.3,3.6,0.8s1.8,1.2,2.4,2.2c0.6,0.9,0.8,2.1,0.8,3.3
		c0,1.7-0.4,3.2-1.1,4.5c-0.7,1.3-1.8,2.4-3,3.2C156.8,442.7,155.4,443.1,153.7,443.1z M153.8,441.3c1.2,0,2.4-0.3,3.3-0.9
		c1-0.6,1.7-1.4,2.3-2.5s0.8-2.3,0.8-3.6c0-1.5-0.4-2.6-1.3-3.4s-2.1-1.2-3.6-1.2c-1.2,0-2.3,0.3-3.3,0.9s-1.8,1.4-2.3,2.5
		c-0.6,1-0.8,2.3-0.8,3.6c0,1.5,0.4,2.6,1.3,3.4C151.1,440.9,152.3,441.3,153.8,441.3z"/>
	<path class="st2" d="M179,443.1c-1.4,0-2.6-0.3-3.7-0.8c-1-0.5-1.8-1.3-2.4-2.2c-0.6-0.9-0.8-2.1-0.8-3.3c0-1.7,0.4-3.2,1.1-4.5
		c0.7-1.3,1.8-2.4,3.1-3.1c1.3-0.8,2.8-1.1,4.5-1.1c1.4,0,2.6,0.3,3.6,0.8s1.8,1.2,2.3,2.2l-1.7,1c-0.4-0.8-1-1.3-1.7-1.7
		c-0.7-0.4-1.6-0.5-2.6-0.5c-1.2,0-2.4,0.3-3.3,0.9c-1,0.6-1.8,1.4-2.3,2.5c-0.6,1-0.8,2.3-0.8,3.6c0,1.5,0.4,2.6,1.3,3.4
		c0.9,0.8,2.1,1.2,3.7,1.2c1,0,1.9-0.2,2.7-0.6s1.5-0.9,2-1.6l1.4,1.1c-0.6,0.9-1.5,1.6-2.6,2.1C181.5,442.9,180.3,443.1,179,443.1z
		"/>
	<path class="st2" d="M198.2,427.9c1.3,0,2.4,0.3,3.3,0.8c0.9,0.5,1.5,1.3,1.8,2.3s0.4,2.2,0.1,3.5l-1.7,8.5h-2l1.7-8.5
		c0.3-1.5,0.1-2.6-0.5-3.5c-0.6-0.8-1.7-1.2-3.2-1.2c-1.6,0-2.9,0.4-4,1.3s-1.8,2.2-2.1,3.9l-1.6,8h-2l4.2-21h2l-2.1,10.4l-0.5-0.7
		c0.7-1.3,1.6-2.2,2.8-2.8C195.5,428.2,196.8,427.9,198.2,427.9z"/>
	<path class="st2" d="M213.9,443.1c-1.4,0-2.7-0.3-3.7-0.8s-1.9-1.3-2.4-2.2c-0.6-0.9-0.8-2.1-0.8-3.4c0-1.7,0.4-3.2,1.1-4.5
		c0.7-1.3,1.7-2.4,2.9-3.1c1.2-0.8,2.7-1.1,4.2-1.1c1.3,0,2.5,0.3,3.4,0.8c1,0.5,1.7,1.2,2.3,2.2c0.5,0.9,0.8,2.1,0.8,3.4
		c0,0.3,0,0.6-0.1,0.9c0,0.3-0.1,0.6-0.1,0.9h-13.1l0.3-1.5h11.9l-0.8,0.6c0.2-1.2,0.1-2.2-0.3-3c-0.4-0.8-0.9-1.4-1.7-1.9
		c-0.7-0.4-1.6-0.6-2.7-0.6c-1.2,0-2.3,0.3-3.2,0.9s-1.7,1.4-2.2,2.5s-0.8,2.3-0.8,3.7c0,1.5,0.4,2.6,1.3,3.4
		c0.9,0.8,2.1,1.2,3.9,1.2c1,0,1.9-0.2,2.8-0.5c0.9-0.3,1.5-0.8,2.1-1.4l0.9,1.4c-0.7,0.7-1.6,1.2-2.6,1.6
		C216.2,442.9,215.1,443.1,213.9,443.1z"/>
	<path class="st2" d="M231,443.1c-1.4,0-2.6-0.3-3.7-0.8c-1-0.5-1.8-1.3-2.4-2.2c-0.6-0.9-0.8-2.1-0.8-3.3c0-1.7,0.4-3.2,1.1-4.5
		c0.7-1.3,1.8-2.4,3.1-3.1c1.3-0.8,2.8-1.1,4.5-1.1c1.4,0,2.6,0.3,3.6,0.8s1.8,1.2,2.3,2.2l-1.7,1c-0.4-0.8-1-1.3-1.7-1.7
		c-0.7-0.4-1.6-0.5-2.6-0.5c-1.2,0-2.4,0.3-3.3,0.9c-1,0.6-1.8,1.4-2.3,2.5c-0.6,1-0.8,2.3-0.8,3.6c0,1.5,0.4,2.6,1.3,3.4
		c0.9,0.8,2.1,1.2,3.7,1.2c1,0,1.9-0.2,2.7-0.6s1.5-0.9,2-1.6l1.4,1.1c-0.6,0.9-1.5,1.6-2.6,2.1C233.5,442.9,232.3,443.1,231,443.1z
		"/>
	<path class="st2" d="M240,443l4.2-21h2l-4.2,21H240z M242.4,439l0.4-2.5l10.8-8.4h2.9l-8.1,6.3l-1.1,0.9L242.4,439z M251.6,443
		l-4.7-7.7l1.4-1.5l5.7,9.2H251.6z"/>
	<path class="st2" d="M264.1,443l4.2-21h2l-2.1,10.5l-0.9,2.9l-0.3,2.9l-0.9,4.7H264.1z M272.4,443.1c-1.3,0-2.4-0.2-3.3-0.7
		s-1.6-1.1-2.1-2s-0.7-1.9-0.8-3.2c0-1.4,0.2-2.6,0.6-3.7s0.9-2.1,1.6-2.9s1.6-1.5,2.6-1.9c1-0.5,2.1-0.7,3.3-0.7
		c1.3,0,2.4,0.3,3.4,0.8s1.7,1.2,2.3,2.2c0.6,0.9,0.8,2.1,0.8,3.4s-0.2,2.5-0.6,3.5c-0.4,1.1-1,2-1.8,2.8s-1.7,1.4-2.7,1.9
		C274.8,442.9,273.6,443.1,272.4,443.1z M272.4,441.3c1.2,0,2.4-0.3,3.3-0.9c1-0.6,1.7-1.4,2.3-2.5c0.6-1.1,0.8-2.3,0.8-3.6
		c0-1.5-0.4-2.6-1.3-3.4s-2.1-1.2-3.6-1.2c-1.2,0-2.3,0.3-3.3,0.9s-1.7,1.4-2.3,2.5s-0.8,2.3-0.8,3.6c0,1.5,0.4,2.6,1.3,3.4
		C269.6,440.9,270.8,441.3,272.4,441.3z"/>
	<path class="st2" d="M289.7,443.1c-1.3,0-2.4-0.3-3.4-0.8s-1.7-1.2-2.3-2.2c-0.5-0.9-0.8-2.1-0.8-3.4s0.2-2.4,0.6-3.5s1-2,1.8-2.8
		s1.6-1.4,2.7-1.9c1-0.4,2.1-0.7,3.4-0.7s2.4,0.2,3.3,0.7s1.6,1.1,2.1,2s0.7,1.9,0.7,3.2c0,1.8-0.3,3.4-1,4.8s-1.6,2.5-2.8,3.3
		C292.8,442.7,291.4,443.1,289.7,443.1z M290.1,441.3c1.2,0,2.4-0.3,3.3-0.9c1-0.6,1.7-1.4,2.3-2.5c0.6-1.1,0.8-2.3,0.8-3.6
		c0-1.5-0.4-2.6-1.3-3.4s-2.1-1.2-3.6-1.2c-1.2,0-2.3,0.3-3.3,0.9s-1.8,1.4-2.3,2.5s-0.8,2.3-0.8,3.6c0,1.5,0.4,2.6,1.3,3.4
		C287.4,440.9,288.6,441.3,290.1,441.3z M295,443l0.9-4.3l0.9-3l0.3-3.1l0.9-4.5h2l-3,14.9H295z"/>
	<path class="st2" d="M309.3,443.1c-1.4,0-2.6-0.3-3.7-0.8s-1.8-1.3-2.4-2.2c-0.6-0.9-0.8-2.1-0.8-3.3c0-1.7,0.4-3.2,1.1-4.5
		s1.8-2.4,3.1-3.1c1.3-0.8,2.8-1.1,4.5-1.1c1.4,0,2.6,0.3,3.6,0.8s1.8,1.2,2.3,2.2l-1.7,1c-0.4-0.8-1-1.3-1.7-1.7
		c-0.7-0.4-1.6-0.5-2.6-0.5c-1.2,0-2.4,0.3-3.3,0.9c-1,0.6-1.8,1.4-2.3,2.5s-0.8,2.3-0.8,3.6c0,1.5,0.4,2.6,1.3,3.4s2.1,1.2,3.7,1.2
		c1,0,1.9-0.2,2.7-0.6c0.8-0.4,1.5-0.9,2-1.6l1.4,1.1c-0.6,0.9-1.5,1.6-2.6,2.1C311.8,442.9,310.6,443.1,309.3,443.1z"/>
	<path class="st2" d="M318.3,443l4.2-21h2l-4.2,21H318.3z M320.7,439l0.4-2.5l10.8-8.4h2.9l-8.1,6.3l-1.1,0.9L320.7,439z M329.9,443
		l-4.7-7.7l1.4-1.5l5.7,9.2H329.9z"/>
	<path class="st2" d="M349.1,443.1c-1.4,0-2.6-0.3-3.6-0.8s-1.8-1.3-2.4-2.2c-0.6-0.9-0.8-2.1-0.8-3.3c0-1.7,0.4-3.2,1.1-4.5
		s1.8-2.4,3.1-3.1c1.3-0.8,2.8-1.1,4.5-1.1c1.4,0,2.6,0.3,3.6,0.8s1.8,1.2,2.4,2.2c0.6,0.9,0.8,2.1,0.8,3.3c0,1.7-0.4,3.2-1.1,4.5
		s-1.8,2.4-3,3.2C352.3,442.7,350.8,443.1,349.1,443.1z M349.2,441.3c1.2,0,2.4-0.3,3.3-0.9c1-0.6,1.7-1.4,2.3-2.5
		c0.6-1.1,0.8-2.3,0.8-3.6c0-1.5-0.4-2.6-1.3-3.4s-2.1-1.2-3.6-1.2c-1.2,0-2.3,0.3-3.3,0.9s-1.8,1.4-2.3,2.5c-0.6,1-0.8,2.3-0.8,3.6
		c0,1.5,0.4,2.6,1.3,3.4C346.5,440.9,347.7,441.3,349.2,441.3z"/>
	<path class="st2" d="M360.5,429.8l0.3-1.7h9.2l-0.3,1.7H360.5z M360.6,443l3.3-16.8c0.3-1.4,0.9-2.5,1.7-3.2c0.9-0.8,2-1.1,3.4-1.1
		c0.6,0,1.2,0.1,1.7,0.3c0.5,0.2,1,0.4,1.3,0.7l-0.9,1.5c-0.5-0.5-1.2-0.7-2.1-0.7s-1.6,0.2-2.1,0.7s-0.9,1.2-1.1,2.2l-0.5,2.2
		l-0.1,0.9l-2.7,13.5h-1.9L360.6,443L360.6,443z"/>
	<path class="st2" d="M370.4,429.8l0.3-1.7h9.2l-0.3,1.7H370.4z M374.9,443.1c-0.8,0-1.6-0.2-2.2-0.6s-1-0.9-1.3-1.6
		c-0.2-0.7-0.3-1.5-0.1-2.4l2.7-13.7h2l-2.7,13.7c-0.2,0.9-0.1,1.6,0.2,2.2c0.3,0.5,0.9,0.8,1.8,0.8c0.4,0,0.8-0.1,1.2-0.2
		c0.4-0.1,0.8-0.3,1.1-0.6l0.5,1.5c-0.5,0.4-1,0.6-1.6,0.8C376,443,375.4,443.1,374.9,443.1z"/>
	<path class="st2" d="M387.9,443.1c-1.4,0-2.7-0.3-3.7-0.8s-1.9-1.3-2.4-2.2c-0.6-0.9-0.8-2.1-0.8-3.4c0-1.7,0.4-3.2,1.1-4.5
		s1.7-2.4,2.9-3.1c1.2-0.8,2.7-1.1,4.2-1.1c1.3,0,2.5,0.3,3.4,0.8c1,0.5,1.7,1.2,2.3,2.2c0.5,0.9,0.8,2.1,0.8,3.4
		c0,0.3,0,0.6-0.1,0.9c0,0.3-0.1,0.6-0.1,0.9h-13.1l0.3-1.5h11.9l-0.8,0.6c0.2-1.2,0.1-2.2-0.3-3s-0.9-1.4-1.7-1.9
		c-0.7-0.4-1.6-0.6-2.7-0.6c-1.2,0-2.3,0.3-3.2,0.9c-0.9,0.6-1.7,1.4-2.2,2.5s-0.8,2.3-0.8,3.7c0,1.5,0.4,2.6,1.3,3.4
		s2.1,1.2,3.9,1.2c1,0,1.9-0.2,2.8-0.5s1.5-0.8,2.1-1.4l0.9,1.4c-0.7,0.7-1.6,1.2-2.6,1.6C390.2,442.9,389.1,443.1,387.9,443.1z"/>
	<path class="st2" d="M408.5,427.9c1.3,0,2.4,0.3,3.3,0.8s1.5,1.3,1.8,2.3s0.4,2.2,0.1,3.5L412,443h-2l1.7-8.5
		c0.3-1.5,0.1-2.6-0.5-3.5c-0.6-0.8-1.7-1.2-3.2-1.2c-1.6,0-2.9,0.4-4,1.3s-1.8,2.2-2.1,3.9l-1.6,8h-2l2.9-14.9h1.9l-0.9,4.3
		l-0.4-0.7c0.7-1.3,1.6-2.2,2.8-2.8C405.8,428.2,407,427.9,408.5,427.9z"/>
	<path class="st2" d="M417.8,443.1c-0.4,0-0.8-0.1-1-0.4c-0.3-0.3-0.4-0.6-0.4-1c0-0.5,0.2-0.9,0.5-1.2c0.3-0.3,0.7-0.5,1.1-0.5
		s0.8,0.1,1,0.4c0.3,0.3,0.4,0.6,0.4,1.1c0,0.3-0.1,0.6-0.2,0.8s-0.3,0.4-0.6,0.6C418.3,443,418.1,443.1,417.8,443.1z"/>
</g>
<path class="st3" d="M280,139.5l-35.4,20.4v40.9l35.4,20.4l35.4-20.4v-40.9L280,139.5z M285.1,151.1c1.6,0.9,2.9,2.2,3.7,3.7
	l-8.8,5.1l-8.8-5.1C274,150,280.2,148.3,285.1,151.1z M262.3,200.7c-1.7,0-3.5-0.4-5.1-1.4c-4.9-2.8-6.5-9-3.7-13.9l8.8,5.1V200.7z
	 M262.3,180.3c-1.7,0-3.5-0.4-5.1-1.4c-4.9-2.8-6.6-9.1-3.7-14c2.8-4.9,9.1-6.6,14-3.7c1.6,0.9,2.9,2.2,3.7,3.7l-8.8,5.1
	L262.3,180.3z M280,211c-5.6,0-10.2-4.6-10.2-10.2c0-1.9,0.5-3.6,1.4-5.1l8.8,5.1l8.8-5.1c0.9,1.5,1.4,3.2,1.4,5.1
	C290.2,206.4,285.6,211,280,211z M280,190.6c-5.6,0-10.2-4.6-10.2-10.2c0-5.6,4.6-10.2,10.2-10.2s10.2,4.6,10.2,10.2
	C290.2,186,285.6,190.6,280,190.6z M297.7,200.7v-10.2l8.8-5.1c0.9,1.5,1.4,3.2,1.4,5.1C307.9,196.2,303.3,200.7,297.7,200.7z
	 M302.8,179c-1.6,0.9-3.4,1.4-5.1,1.4v-10.2l-8.8-5.1c0.9-1.5,2.1-2.8,3.7-3.7c4.9-2.8,11.1-1.1,14,3.7
	C309.4,169.9,307.7,176.2,302.8,179z"/>
</svg>
