<?xml version="1.0" encoding="utf-8"?>
<!-- Generator: Adobe Illustrator 26.5.0, SVG Export Plug-In . SVG Version: 6.00 Build 0)  -->
<svg version="1.1" id="Layer_1" xmlns="http://www.w3.org/2000/svg" xmlns:xlink="http://www.w3.org/1999/xlink" x="0px" y="0px"
	 viewBox="0 0 24 24" style="enable-background:new 0 0 24 24;" xml:space="preserve">
<style type="text/css">
	.st0{fill:#37474F;}
	.st1{opacity:0.5;fill:#FFFFFF;enable-background:new    ;}
	.st2{fill:#FFFFFF;}
</style>
<path class="st0" d="M12,22c-1.4,0-2.7-0.3-3.9-0.8S5.8,20,4.9,19.1s-1.6-2-2.1-3.2S2,13.4,2,12s0.3-2.7,0.8-3.9S4,5.8,4.9,4.9
	s2-1.6,3.2-2.1S10.6,2,12,2s2.7,0.3,3.9,0.8s2.3,1.2,3.2,2.1c0.9,0.9,1.6,2,2.1,3.2S22,10.6,22,12s-0.3,2.7-0.8,3.9
	s-1.2,2.3-2.1,3.2c-0.9,0.9-2,1.6-3.2,2.1S13.4,22,12,22z"/>
<path class="st1" d="M9,17c0.3,0,0.5-0.1,0.7-0.3C9.9,16.5,10,16.3,10,16c0-0.3-0.1-0.5-0.3-0.7S9.3,15,9,15s-0.5,0.1-0.7,0.3
	S8,15.7,8,16c0,0.3,0.1,0.5,0.3,0.7C8.5,16.9,8.7,17,9,17z"/>
<path class="st1" d="M12,17c0.3,0,0.5-0.1,0.7-0.3c0.2-0.2,0.3-0.4,0.3-0.7c0-0.3-0.1-0.5-0.3-0.7S12.3,15,12,15s-0.5,0.1-0.7,0.3
	S11,15.7,11,16c0,0.3,0.1,0.5,0.3,0.7C11.5,16.9,11.7,17,12,17z"/>
<path class="st2" d="M15,17c0.3,0,0.5-0.1,0.7-0.3c0.2-0.2,0.3-0.4,0.3-0.7c0-0.3-0.1-0.5-0.3-0.7S15.3,15,15,15s-0.5,0.1-0.7,0.3
	S14,15.7,14,16c0,0.3,0.1,0.5,0.3,0.7C14.5,16.9,14.7,17,15,17z"/>
<polygon class="st2" points="10.9,14 16.6,8.3 15.2,6.9 10.9,11.2 8.8,9.1 7.4,10.4 "/>
</svg>
