<?xml version="1.0" encoding="UTF-8"?>
<svg id="Layer_2" data-name="Layer 2" xmlns="http://www.w3.org/2000/svg" viewBox="0 0 870 210">
  <defs>
    <style>
      .cls-1 {
        fill: #273238;
      }

      .cls-2 {
        fill: none;
      }

      .cls-3 {
        fill: #274073;
      }
    </style>
  </defs>
  <g id="Layer_1-2" data-name="Layer 1">
    <rect class="cls-2" width="870" height="210"/>
    <g>
      <path class="cls-1" d="M68.95,130.65c1.42-1.46,1.01-3.04,1.02-4.47,.07-5.49-.05-10.99,.12-16.49,.12-3.93,2.25-5.29,6-4.28,4.18,1.13,6.86,3.54,6.99,8.1,.15,4.99,.18,9.98,.35,14.97,.05,1.4-.49,3.01,.97,4.18,1.63-.85,1.2-2.39,1.23-3.64,.11-3.74-.01-7.5,.14-11.24,.15-3.89,1.66-5.08,5.52-4.67,4.75,.51,8.02,4.77,7.61,10.31-.23,3.14-.32,6.23,.23,9.33,.14,.8-.04,1.83,1.33,2.22,1.67-2.43,.7-5.22,.98-7.81,.24-2.24-.69-5.18,2.68-5.75,3.26-.56,5.48,1.1,6.74,4.12,2.05,4.92,2.85,10.13,3.12,15.36,.54,10.72,1.28,21.5-4.02,31.53-.91,1.73-1.25,3.78-1.77,5.71-1.59,5.89-6.19,10.15-12.3,10.37-8.49,.3-17,.31-25.49-.03-6.2-.25-11.56-5.58-12.1-11.85-.34-3.9-1.73-7.19-3.62-10.47-6.16-10.71-11.53-21.91-19.89-31.22-1.58-1.77-3.27-3.44-4.81-5.25-2.12-2.48-1.8-4.38,.92-6.17,3.69-2.42,8.77-1.86,12.43,1.52,3.04,2.81,5.58,6.06,7.81,9.55,.51,.8,.81,2.19,2.01,1.91,1.43-.33,1.01-1.82,1.05-2.87,.51-13.59,1-27.19,1.48-40.78,.06-1.75,.02-3.52,.87-5.12,1.12-2.13,2.76-3.67,5.32-3.4,2.47,.26,4.12,1.77,4.7,4.21,.32,1.32,.45,2.71,.48,4.07,.28,11.36,.49,22.72,.78,34.07,.03,1.29-.42,2.77,1.11,3.98Z"/>
      <path class="cls-3" d="M443.48,94.02c-3.81,10.47-7.43,20.42-11.06,30.38-.73,1.99-1.72,3.93-2.16,5.98-.89,4.11-3.07,5.51-7.36,5.32-3.52-.15-5.23-1.08-6.41-4.5-3.68-10.61-7.88-21.05-11.32-31.76-.39-1.22-.41-2.78-1.94-3.43-1.17,.46-.87,1.45-.71,2.21,2.89,13.44,2.11,27.07,2.2,40.66,.01,1.91-.74,2.69-2.67,2.66-3.87-.07-7.75-.09-11.62,.01-2.12,.06-2.91-.84-2.87-2.88,.06-3.12,0-6.24,0-9.37,0-18.99,.08-37.97-.07-56.96-.03-3.56,.94-4.95,4.62-4.7,4.11,.28,8.25,.23,12.37,0,2.84-.15,4.23,.88,5.15,3.58,4.13,12.17,9.3,23.99,12.7,36.42,.25,.91,.26,2.04,1.39,2.52,1.24-.55,1.22-1.82,1.51-2.84,3.39-12.3,8.26-24.1,12.24-36.19,.84-2.54,2.09-3.61,4.81-3.49,4.62,.19,9.25,.13,13.87,.03,2.43-.05,3.25,.9,3.24,3.31-.06,22.36-.07,44.72,0,67.08,0,2.54-.74,3.63-3.41,3.5-3.37-.17-6.76-.19-10.12,0-2.87,.17-3.91-.75-3.93-3.77-.05-13.5-.03-26.98,2.06-40.36,.15-.94,.55-1.93-.5-3.43Z"/>
      <path class="cls-3" d="M723.24,110.13c1.2-.59,1.2-1.86,1.48-2.88,3.38-12.31,8.25-24.1,12.25-36.2,.77-2.34,1.92-3.48,4.54-3.38,4.74,.18,9.5,.11,14.25,.04,2.24-.03,3.06,.88,3.06,3.12-.05,22.61-.05,45.22,0,67.84,0,2.06-.72,2.93-2.83,2.87-3.62-.1-7.26-.16-10.87,.03-2.74,.14-3.71-.78-3.72-3.6-.06-13.37-.07-26.73,2.01-40,.17-1.09,.5-2.21-.06-3.37-1.53,.47-1.39,1.95-1.78,3.01-4.22,11.49-8.58,22.94-12.44,34.55-1.33,4-4,3.26-6.77,3.39-2.75,.13-4.85,0-6.02-3.39-3.81-11.1-8.23-21.99-11.8-33.19-.47-1.48-.64-3.16-2.23-4.61-.6,2.73,.1,5.12,.44,7.45,1.79,12.05,1.36,24.17,1.45,36.29,.02,2.56-.81,3.62-3.46,3.47-3.12-.17-6.27-.26-9.37,.02-3.36,.31-4.31-1.04-4.29-4.22,.11-15.12,.04-30.23,.04-45.35,0-6.87,.09-13.74-.02-20.61-.04-2.71,.9-3.83,3.69-3.73,4.37,.15,8.76,.19,13.12-.02,2.85-.13,4.25,.94,5.16,3.62,4.14,12.18,9.31,23.99,12.7,36.43,.24,.9,.23,2.04,1.46,2.41Z"/>
      <path class="cls-3" d="M617.45,104.38c0-10.86,.09-21.72-.05-32.58-.04-3.05,.92-4.23,4.05-4.12,10.48,.37,20.99-.62,31.45,.72,1.73,.22,3.47,.51,5.15,.98,6.5,1.8,11.83,5.02,13.14,12.28,1.33,7.39-.36,13.97-6.45,18.79-2.14,1.69-1.62,2.3,.43,3.13,13.42,5.47,12.55,26.11,1.29,32.8-6.01,3.57-12.53,4.94-19.32,5.11-8.62,.21-17.24-.06-25.86,.12-3,.06-4.14-1.02-3.83-3.89,.03-.25,0-.5,0-.75,0-10.86,0-21.72,0-32.58Zm19.05,14.3c0,1.87-.01,3.74,0,5.61,.01,1.25,.43,2.28,1.88,2.29,4.23,.05,8.5,.67,12.63-.72,3.74-1.25,5.6-4.12,5.37-8.02-.22-3.83-2.49-5.89-6.02-6.61-1.94-.4-3.96-.51-5.95-.5-9.2,.03-7.82-.99-7.92,7.95Zm-.05-29.32q0,7.85,7.85,7.3c1.23-.09,2.48-.3,3.66-.68,3.04-.98,4.69-3.17,4.95-6.34,.37-4.51-2.37-7.14-7.9-7.2-9.76-.1-8.41-.87-8.55,6.92Z"/>
      <path class="cls-3" d="M315.59,104.42c0-10.87,.08-21.74-.05-32.6-.04-3.06,.94-4.26,4.07-4.15,10.61,.39,21.26-.72,31.84,.7,9.64,1.3,17.89,4.99,20.45,15.36,2.67,10.83,.95,20.71-8.87,27.68-2.08,1.48-1.47,2.71-.54,4.36,4.06,7.17,8.08,14.37,12.1,21.57q2.33,4.17-2.62,4.19c-4.38,0-8.76-.14-13.12,.05-2.52,.11-3.83-.89-4.9-3.07-3.14-6.39-6.45-12.69-9.74-19.01-1.32-2.53-5.99-3.89-8.36-2.53-1.38,.79-1.05,2.16-1.06,3.35-.05,5.87-.14,11.74,.01,17.61,.07,2.78-.91,3.78-3.69,3.64-3.74-.19-7.51-.24-11.24,.01-3.28,.23-4.37-.9-4.32-4.2,.17-10.99,.06-21.98,.06-32.98Zm19.15-12.4s.03,0,.04,0c0,2.24,0,4.48,0,6.72,0,1.43,.52,2.47,2.11,2.49,3.72,.05,7.49,.58,11.13-.65,4.3-1.45,6.56-5.16,6.15-9.95-.37-4.33-2.73-6.72-7.48-7.45-1.47-.23-2.98-.36-4.47-.37-8.75-.06-7.34-.37-7.49,7.34-.01,.62,0,1.25,0,1.87Z"/>
      <path class="cls-3" d="M233.41,104c.13-2.12,.18-4.24,.41-6.35,2.41-22.74,20.65-35.62,42.95-30.28,12.51,3,20.12,11.14,23.41,23.31,2.49,9.21,2.39,18.56-.16,27.77-4.23,15.33-16.4,24.44-32.37,24.44-16.07,0-28.32-9.35-32.5-24.8-1.25-4.61-1.71-9.32-1.74-14.09Zm19.57,.35c.07,5.04,.67,9.96,3.1,14.5,2.5,4.66,6.17,7.4,11.66,7.37,5.48-.03,9.36-2.7,11.55-7.5,4.14-9.08,4.24-18.43,.55-27.64-2.12-5.3-6.31-8.27-12.24-8.24-5.77,.03-9.61,3.04-12.06,8.02-2.09,4.25-2.52,8.84-2.56,13.49Z"/>
      <path class="cls-3" d="M600.9,93.41c-.08,6.21,.2,13.58-.49,20.93-2.28,24.29-17.88,31.37-38.72,27.47-9.39-1.75-15.45-7.69-18.64-16.62-2.12-5.96-2.79-12.15-2.82-18.42-.06-11.73,.06-23.47-.08-35.2-.03-2.93,.95-4.02,3.85-3.9,3.74,.16,7.5,.18,11.24,0,3.06-.16,4.15,.93,4.12,4.05-.14,12.23-.05,24.46-.05,36.69,0,3.51,.19,7,1.23,10.37,1.59,5.17,4.8,7.44,10.33,7.41,5.43-.03,8.78-2.43,10.34-7.49,1.15-3.74,1.27-7.62,1.27-11.49,0-11.73,.1-23.47-.05-35.2-.04-3.18,.82-4.59,4.2-4.35,3.36,.24,6.75,.23,10.11,0,3.38-.23,4.31,1.2,4.22,4.38-.19,6.73-.06,13.48-.06,21.37Z"/>
      <path class="cls-1" d="M75.33,55.95c15,0,30.01,.27,45.01-.08,13.47-.31,22.62,7.12,28.44,17.53,5.6,10.01,4.86,21.69-.14,32.15-3.9,8.15-11.77,11.3-20.46,11.76-6.86,.36-13.75,.01-20.63,.14-3.18,.06-4.88-1.32-5.55-4.34-.32-1.45-.8-2.89-1.41-4.26-1.65-3.74-1.47-4.12,2.8-4.16,6-.06,12,.05,18-.06,10.46-.18,16.8-6.57,16.92-16.92,.03-2.75,.04-5.5-.01-8.25-.18-9.78-6.19-15.92-15.96-15.96-19.76-.1-39.51-.04-59.27-.05-11.25,0-22.51-.06-33.76,.03-10.17,.07-16.21,6.17-16.38,16.38-.05,2.87-.06,5.75,.02,8.62,.24,9.29,6.46,15.72,15.79,16.1,5.24,.21,10.5,.03,15.75,.11,4.24,.07,5.06,.9,5.16,5.05,.04,1.49-.03,3-.15,4.49-.14,1.7-1.06,2.9-2.8,3-7.76,.41-15.49,.68-22.73-3.06C7.01,105.41-.1,84.73,8.56,67.77c4-7.83,10.97-11.76,19.89-11.78,15.63-.04,31.26-.01,46.89-.01v-.03Z"/>
      <path class="cls-3" d="M501.93,66.27c7.9,.41,15.32,2.57,21.77,7.64,1.84,1.45,2.31,2.64,.57,4.55-2.02,2.21-3.9,4.56-5.6,7.02-1.49,2.14-2.89,2.13-4.96,.82-4.23-2.67-8.88-3.94-13.93-3.32-2.76,.34-5.28,1.18-5.78,4.35-.49,3.09,1.72,4.48,4.13,5.48,4.61,1.92,9.25,3.77,13.9,5.62,12.1,4.81,17.16,11.87,16.19,22.66-.95,10.54-9.26,19.04-20.82,21.05-11.62,2.02-22.29-.52-32.14-6.94-2.72-1.77-3.7-3.31-.94-5.98,2.23-2.16,4.18-4.65,6.01-7.17,1.57-2.16,2.89-2.45,5.18-.85,5.03,3.51,10.59,5.59,16.9,4.88,2.9-.32,5.57-1.12,6.14-4.43,.56-3.27-1.83-4.65-4.34-5.72-4.82-2.07-9.68-4.04-14.5-6.11-10.68-4.59-15.94-12.25-15.23-22.07,.67-9.37,7.67-17.18,18.04-20.16,3.02-.87,6.12-1.18,9.41-1.32Z"/>
      <path class="cls-3" d="M176.77,104.38c0-10.86,.08-21.73-.05-32.59-.04-3.06,.95-4.16,4.07-4.13,13.24,.13,26.49,.1,39.74,.02,2.96-.02,4.39,.88,4.12,4.07-.22,2.6-.23,5.26,0,7.86,.3,3.39-1.17,4.29-4.36,4.2-6.74-.19-13.5,.05-20.24-.1-2.97-.06-4.31,.79-4.23,3.99,.31,12.7-1.71,10.33,10.34,10.59,3.75,.08,7.5,.08,11.25,0,2.22-.05,3.01,.86,3.16,3.09,.88,13.06,.92,13.06-11.97,13.06-2.87,0-5.76,.15-8.62-.04-3.06-.2-4.23,.94-4.16,4.05,.16,6.49-.05,12.99,.07,19.48,.05,2.72-.86,3.8-3.69,3.65-3.86-.2-7.76-.23-11.61,0-3.03,.18-3.87-1.04-3.85-3.88,.1-11.11,.04-22.22,.04-33.34Z"/>
      <path class="cls-3" d="M836.14,67.71c8.12,0,16.25,.16,24.37-.08,3.69-.11,4.91,1.22,4.58,4.76-.24,2.6-.14,5.24-.03,7.86,.1,2.55-.91,3.61-3.52,3.52-3.99-.13-8,.12-11.99-.07-3.09-.15-4.15,1.01-4.13,4.09,.11,15.61,.06,31.22,.03,46.83-.02,8.27,.45,6.76-7.09,6.9-2.87,.05-5.76-.15-8.62,.05-2.83,.2-3.63-.91-3.62-3.66,.1-16.36,.05-32.72,.04-49.08q0-5.08-5.2-5.1c-3.75-.01-7.5-.08-11.25,0-2.22,.05-3.19-.8-3.11-3.07,.1-3.12,.19-6.26-.03-9.36-.21-2.89,1.07-3.66,3.69-3.64,8.62,.08,17.25,.03,25.87,.03Z"/>
      <path class="cls-3" d="M794.95,105c0,10.74-.12,21.49,.07,32.23,.06,3.49-1.12,4.6-4.51,4.37-3.86-.26-7.75-.16-11.62-.03-2.31,.07-3.03-.88-3.02-3.09,.05-22.48,.05-44.97,0-67.45,0-2.42,.88-3.36,3.28-3.31,4,.1,8.01,.16,12-.03,3-.14,3.88,1.1,3.85,3.96-.11,11.12-.05,22.23-.04,33.35Z"/>
      <path class="cls-1" d="M57.74,46.95c-.16,2.18-.97,3.38-2.5,3.97-1.51,.58-2.78-.06-3.57-1.29-3.26-5.08-4.89-10.87-6.86-16.5-.54-1.54,.34-2.96,1.91-3.63,1.41-.61,2.89-.32,3.71,.91,3.48,5.23,5.47,11.12,7.32,16.54Z"/>
      <path class="cls-1" d="M106.55,33.38c-2.11,5.14-3.58,11.24-7.13,16.46-.83,1.21-2.2,1.72-3.64,.97-1.58-.81-2.74-2.26-2.06-3.95,2.12-5.3,3.48-10.94,6.6-15.82,.95-1.49,2.39-2.24,4.18-1.59,1.44,.53,2.07,1.71,2.05,3.93Z"/>
      <path class="cls-1" d="M78.9,32.52c0,2.37,.1,4.74-.03,7.1-.11,1.94-1.11,3.4-3.24,3.41-2.14,0-3.21-1.48-3.26-3.39-.13-4.98-.13-9.97-.02-14.95,.04-1.93,1.16-3.41,3.26-3.42,2.1,0,3.16,1.47,3.26,3.41,.14,2.61,.03,5.23,.04,7.85Z"/>
    </g>
  </g>
</svg>