<?xml version="1.0" encoding="utf-8"?>
<!-- Generator: Adobe Illustrator 26.5.0, SVG Export Plug-In . SVG Version: 6.00 Build 0)  -->
<svg version="1.1" id="Layer_2_00000137831660469244127520000002375993046741751207_"
	 xmlns="http://www.w3.org/2000/svg" xmlns:xlink="http://www.w3.org/1999/xlink" x="0px" y="0px" viewBox="0 0 176.7 84"
	 style="enable-background:new 0 0 176.7 84;" xml:space="preserve">
<style type="text/css">
	.st0{fill:#FEFEFE;}
	.st1{fill:#E7E7E7;}
	.st2{fill:#777777;}
</style>
<g>
	<path class="st0" d="M9,0.8h158.7c4.5,0,8.1,3.6,8.1,8.1v66.2c0,4.5-3.6,8.1-8.1,8.1H9c-4.5,0-8.1-3.6-8.1-8.1V8.9
		C0.9,4.4,4.5,0.8,9,0.8z"/>
	<path class="st1" d="M167.8,1.6c4,0,7.3,3.2,7.3,7.3v66.2c0,4-3.2,7.3-7.3,7.3H9c-4,0-7.3-3.2-7.3-7.3V8.9c0-4,3.2-7.3,7.3-7.3
		L167.8,1.6 M167.8,0H9C4.1,0,0.1,3.9,0.1,8.9v66.2C0.1,80,4.1,84,9,84h158.7c4.9,0,8.9-3.9,8.9-8.9V8.9C176.7,3.9,172.6,0,167.8,0
		L167.8,0z"/>
</g>
<g>
	<path class="st2" d="M44.8,25.4h6.5v20.4c0,2.7-0.2,4.7-0.7,6.1c-0.6,1.9-1.8,3.4-3.4,4.5c-1.7,1.1-3.8,1.7-6.5,1.7
		c-3.2,0-5.6-0.9-7.3-2.7c-1.7-1.8-2.6-4.4-2.6-7.8l6.1-0.7c0.1,1.8,0.3,3.2,0.8,3.9c0.7,1.2,1.8,1.7,3.2,1.7s2.5-0.4,3.1-1.2
		c0.6-0.8,0.9-2.5,0.9-5.1L44.8,25.4L44.8,25.4z"/>
	<path class="st2" d="M56.6,47.1l6.3-0.6c0.4,2.1,1.2,3.7,2.3,4.7c1.2,1,2.7,1.5,4.7,1.5c2.1,0,3.7-0.4,4.7-1.3
		c1.1-0.9,1.6-1.9,1.6-3.1c0-0.8-0.2-1.4-0.7-1.9s-1.2-1-2.3-1.4c-0.8-0.3-2.5-0.7-5.2-1.4c-3.5-0.9-5.9-1.9-7.3-3.2
		c-2-1.8-3-3.9-3-6.5c0-1.6,0.5-3.2,1.4-4.6s2.3-2.5,4-3.3c1.8-0.8,3.9-1.1,6.3-1.1c4,0,7.1,0.9,9.1,2.6s3.1,4.1,3.2,7.1l-6.5,0.3
		c-0.3-1.7-0.9-2.8-1.8-3.6c-0.9-0.7-2.3-1.1-4.1-1.1c-1.8,0-3.4,0.4-4.4,1.2c-0.7,0.5-1,1.2-1,2s0.3,1.4,1,2c0.8,0.7,2.8,1.4,6,2.2
		c3.2,0.8,5.5,1.5,7,2.3s2.7,1.9,3.6,3.3s1.3,3.1,1.3,5.1c0,1.8-0.5,3.6-1.5,5.2c-1,1.6-2.5,2.8-4.3,3.6s-4.2,1.2-7,1.2
		c-4.1,0-7.2-0.9-9.4-2.8S57,50.7,56.6,47.1z"/>
	<path class="st2" d="M85.8,57.5v-4L102.3,33c1.2-1.5,2.3-2.7,3.3-3.8H87.7v-3.8h23v3.8l-18,22.3l-1.9,2.3h20.5v3.8L85.8,57.5
		L85.8,57.5z"/>
	<path class="st2" d="M115.3,29.9v-4.5h3.9v4.5H115.3z M115.3,57.5V34.2h3.9v23.3H115.3z"/>
	<path class="st2" d="M125.3,66.4V34.2h3.6v3c0.8-1.2,1.8-2.1,2.9-2.7c1.1-0.6,2.4-0.9,3.9-0.9c2,0,3.7,0.5,5.3,1.5
		c1.5,1,2.7,2.5,3.4,4.3c0.8,1.9,1.2,3.9,1.2,6.1c0,2.4-0.4,4.5-1.3,6.4c-0.9,1.9-2.1,3.4-3.7,4.4s-3.3,1.5-5.1,1.5
		c-1.3,0-2.5-0.3-3.5-0.8c-1.1-0.6-1.9-1.3-2.6-2.1v11.3L125.3,66.4L125.3,66.4z M128.9,46c0,3,0.6,5.2,1.8,6.7
		c1.2,1.4,2.7,2.2,4.4,2.2c1.7,0,3.3-0.7,4.5-2.2s1.9-3.8,1.9-6.9s-0.6-5.2-1.8-6.7s-2.7-2.2-4.4-2.2c-1.7,0-3.2,0.8-4.5,2.4
		C129.5,40.7,128.9,43,128.9,46L128.9,46z"/>
</g>
</svg>
