<?xml version="1.0" encoding="utf-8"?>
<!-- Generator: Adobe Illustrator 26.5.0, SVG Export Plug-In . SVG Version: 6.00 Build 0)  -->
<svg version="1.1" id="Layer_1" xmlns="http://www.w3.org/2000/svg" xmlns:xlink="http://www.w3.org/1999/xlink" x="0px" y="0px"
	 viewBox="0 0 325.6 87.9" style="enable-background:new 0 0 325.6 87.9;" xml:space="preserve">
<style type="text/css">
	.st0{fill:#00DDB3;}
	.st1{fill:#FFFFFF;}
</style>
<path class="st0" d="M16.2,12h31.6C56.7,12,64,19.2,64,28.2v31.6C64,68.7,56.7,76,47.8,76H16.2C7.3,76,0,68.7,0,59.8V28.2
	C0,19.2,7.3,12,16.2,12z"/>
<path class="st1" d="M30.3,40.4c3.3-6.3,7.4-14.2,18.4-14.2c0.4,0,0.8,0.1,1.2,0.2c0.4,0.2,0.7,0.4,1,0.7c0.3,0.3,0.5,0.6,0.7,1
	c0.2,0.4,0.2,0.8,0.2,1.2c0,0.4-0.1,0.8-0.2,1.2c-0.2,0.4-0.4,0.7-0.7,1c-0.3,0.3-0.6,0.5-1,0.7c-0.4,0.2-0.8,0.2-1.2,0.2
	c-6.7,0-9.3,4.1-12.8,10.8l-2.1,4l0,0c-3.3,6.3-7.4,14.2-18.4,14.2c-0.8,0-1.6-0.3-2.2-0.9c-0.6-0.6-0.9-1.4-0.9-2.2
	c0-0.8,0.3-1.6,0.9-2.2s1.4-0.9,2.2-0.9c6.7,0,9.3-4.1,12.8-10.8L30.3,40.4L30.3,40.4z"/>
<path d="M254.3,34.5h-7.8v27.3h7.8V34.5z"/>
<path d="M254.3,25.5h-7.8v6h7.8V25.5z"/>
<path d="M84.9,25.5h-8.1v36.3h24.8v-7H84.9V25.5z"/>
<path d="M117.6,32.2c-8.6,0-15.5,6.7-15.5,15.1s6.8,15.1,15.5,15.1c8.6,0,15.5-6.7,15.5-15.1C133.2,38.9,126.3,32.2,117.6,32.2z
	 M117.6,55.2c-4.3,0-7.6-3.3-7.6-7.9s3.2-7.9,7.6-7.9c4.3,0,7.6,3.4,7.6,7.9S122,55.2,117.6,55.2z"/>
<path d="M165.8,55.7c-1.4,0-2.6-0.8-2.6-3.3V40.8h7.4v-6.3h-7.4v-7.9h-7.8v7.9h-10.2v-7.9h-7.8v7.9h-4.2v6.3h4.2v11.7
	c0,6.6,3.1,9.9,8.9,9.9c2.6,0,5.2-0.8,7.4-2.2l-2.2-5.7c-1.1,0.7-2.4,1.2-3.7,1.2c-1.4,0-2.6-0.8-2.6-3.3V40.8h10.2v11.7
	c0,6.6,3.1,9.9,8.9,9.9c2.6,0,5.2-0.8,7.4-2.2l-2.2-5.7C168.4,55.2,167.1,55.6,165.8,55.7L165.8,55.7z"/>
<path d="M214.9,45.3c-1.2-8.2-8.3-13.9-16.1-12.8c-2,0.3-3.9,0.9-5.6,1.9c-1.7,1-3.2,2.3-4.4,3.9c-1.2,1.6-2,3.4-2.5,5.3
	c-0.5,1.9-0.6,3.9-0.2,5.9c1.4,9.5,9.5,13.9,17.9,12.6c3.8-0.5,7.3-2.2,10.2-4.7l-3.7-5.1c-2.1,1.8-4.7,3-7.4,3.4
	c-3.8,0.5-7.3-0.9-8.8-4.7l20.8-3C215.1,47.1,215,46.2,214.9,45.3L214.9,45.3z M193.4,46c0.2-3.7,2.7-6.6,6.1-7
	c1.7-0.3,3.4,0.1,4.9,1c1.4,0.9,2.5,2.3,3,4L193.4,46z"/>
<path d="M299.2,45.3c-1.2-8.2-8.3-13.9-16.1-12.8c-2,0.3-3.9,0.9-5.6,1.9c-1.7,1-3.2,2.3-4.4,3.9c-1.2,1.6-2,3.4-2.5,5.3
	c-0.5,1.9-0.6,3.9-0.2,5.9c1.4,9.5,9.5,13.9,17.9,12.6c3.8-0.5,7.3-2.2,10.2-4.7l-3.7-5.1c-2.1,1.8-4.7,3-7.4,3.4
	c-3.8,0.5-7.3-0.9-8.8-4.7l20.8-3C299.4,47.1,299.3,46.2,299.2,45.3L299.2,45.3z M277.7,46c0.2-3.7,2.7-6.6,6.1-7
	c1.7-0.3,3.4,0.1,4.9,1c1.4,0.9,2.5,2.3,3,4L277.7,46z"/>
<path d="M267.1,25.5h-7.8v36.3h7.8V25.5z"/>
<path d="M315.3,43.7c-2.7-0.6-5.1-1.1-5.1-2.7c0-1.2,1.7-2,3.5-2c2.8,0,5.6,0.7,8.1,2l2.6-5.8c-3.2-2-7-3-10.8-2.9
	c-5.4,0-11.2,3.1-11.2,9c0,5.6,4.7,7.5,10.4,9c2.5,0.7,5,1.1,5,2.8c0,1.7-3,2.4-4.8,2.4c-3.3,0.1-6.5-1-9-3.1l-2.8,6
	c1.6,1.5,5.6,4,11.8,4c5.4,0,12.6-2.4,12.6-9.5C325.6,47,320.2,44.8,315.3,43.7z"/>
<path d="M182.6,34.5h-7.8v27.3h7.8V34.5z"/>
<path d="M182.6,25.5h-7.8v6h7.8V25.5z"/>
<path d="M218.2,61.8h8.1V47H240v-6.9h-13.7v-7.6H243v-6.9h-24.8V61.8z"/>
</svg>
