<?xml version="1.0" encoding="utf-8"?>
<!-- Generator: Adobe Illustrator 26.0.3, SVG Export Plug-In . SVG Version: 6.00 Build 0)  -->
<svg version="1.1" id="Layer_1" xmlns="http://www.w3.org/2000/svg" xmlns:xlink="http://www.w3.org/1999/xlink" x="0px" y="0px"
	 viewBox="0 0 560 560" style="enable-background:new 0 0 560 560;" xml:space="preserve">
<style type="text/css">
	.st0{fill:#37474F;}
	.st1{fill:#ECEFF1;}
	.st2{fill:#FFFFFF;}
</style>
<rect id="Rectangle_135_00000005971500933807188330000013279000859594174621_" y="0" class="st0" width="560" height="560"/>
<g>
	<path class="st1" d="M311.2,157.5l-27.1-15.6l-4.1-2.4l-4.1,2.4l-27.1,15.7l-4.1,2.4v4.7V196v4.7l4.1,2.4l27.1,15.7l4.1,2.4
		l4.1-2.4l27.1-15.7l4.1-2.4V196v-31.3V160L311.2,157.5z M305.6,195.1l-24,13.9v-27.8l24-13.9V195.1z M254.4,167.3l24,13.9V209
		l-24-13.9V167.3z M256,164.6l24-13.9l24,13.9l-24,13.9L256,164.6z"/>
	<g>
		<path class="st1" d="M152,279c-2.3-0.6-4-1.3-5.4-2.1l2.9-6.8c1.3,0.8,2.8,1.5,4.5,1.9c1.7,0.5,3.5,0.7,5.1,0.7
			c1.6,0,2.7-0.2,3.4-0.5c0.6-0.4,1-0.8,1-1.5c0-0.6-0.4-1.1-1.2-1.4c-0.8-0.3-2.1-0.6-3.9-0.7c-2.2-0.3-4.1-0.6-5.7-1.1
			c-1.6-0.5-2.8-1.3-4-2.5c-1.1-1.2-1.7-2.9-1.7-5.1c0-1.8,0.6-3.4,1.6-4.9c1.1-1.4,2.6-2.6,4.6-3.4c2-0.8,4.5-1.2,7.3-1.2
			c2,0,4,0.2,6,0.6c2,0.5,3.7,1,5,1.7l-2.9,6.8c-2.5-1.4-5.1-2.1-8-2.1c-1.6,0-2.7,0.2-3.4,0.6c-0.7,0.4-1.1,0.8-1.1,1.5
			c0,0.6,0.4,1.1,1.2,1.4c0.8,0.3,2.1,0.6,3.9,0.8c2.3,0.4,4.2,0.7,5.7,1.2c1.5,0.5,2.8,1.3,4,2.5s1.7,2.8,1.7,5.1
			c0,1.7-0.6,3.4-1.6,4.8c-1.1,1.4-2.7,2.6-4.7,3.3c-2,0.8-4.6,1.2-7.4,1.2C156.5,279.9,154.3,279.6,152,279z"/>
		<path class="st1" d="M182.7,277.9c-2.4-1.3-4.3-3-5.7-5.2c-1.4-2.2-2-4.8-2-7.6c0-2.8,0.6-5.3,2-7.6c1.4-2.2,3.2-4,5.7-5.2
			c2.4-1.3,5.1-1.8,8.3-1.8s5.9,0.7,8.2,2.1c2.3,1.4,4,3.3,4.9,5.8l-7.5,4c-1.3-2.6-3.1-3.9-5.5-3.9c-1.7,0-3.2,0.6-4.3,1.7
			c-1.1,1.2-1.7,2.8-1.7,5c0,2.1,0.6,3.8,1.7,5.1c1.1,1.2,2.6,1.8,4.3,1.8c2.4,0,4.2-1.3,5.5-3.9l7.5,4c-0.9,2.5-2.6,4.3-4.9,5.8
			c-2.3,1.4-5,2.1-8.2,2.1C187.9,279.9,185.2,279.2,182.7,277.9z"/>
		<path class="st1" d="M235.6,267.6h-20.2c0.4,1.5,1.2,2.6,2.4,3.4c1.2,0.8,2.7,1.2,4.4,1.2c1.3,0,2.5-0.2,3.5-0.6s1.9-1,2.9-1.9
			l5.1,5.4c-2.7,3.1-6.6,4.6-11.9,4.6c-3.2,0-6.1-0.6-8.5-1.9s-4.3-3-5.7-5.2c-1.4-2.2-2-4.8-2-7.6c0-2.8,0.6-5.3,1.9-7.5
			c1.3-2.2,3.1-4,5.4-5.2c2.3-1.3,5-1.9,7.8-1.9c2.8,0,5.2,0.6,7.5,1.7c2.3,1.2,4,2.8,5.3,5.1c1.3,2.2,1.9,4.9,1.9,7.9
			C235.7,265.2,235.7,266.1,235.6,267.6z M217.2,258.8c-1,0.9-1.7,2-1.9,3.6h11.4c-0.3-1.5-0.9-2.7-1.9-3.6s-2.3-1.3-3.8-1.3
			S218.2,258,217.2,258.8z"/>
		<path class="st1" d="M266.7,253.6c2.1,2.1,3.1,5.2,3.1,9.5v16.3h-9.7v-14.6c0-3.9-1.6-5.8-4.6-5.8c-1.7,0-3,0.6-4,1.7
			c-1,1.1-1.5,2.8-1.5,5.1v13.8h-9.7V251h9.3v3.1c1.1-1.2,2.4-2,3.9-2.7c1.5-0.6,3.1-0.9,4.9-0.9
			C261.8,250.4,264.6,251.5,266.7,253.6z"/>
		<path class="st1" d="M304.6,267.6h-20.2c0.4,1.5,1.2,2.6,2.4,3.4c1.2,0.8,2.7,1.2,4.4,1.2c1.3,0,2.5-0.2,3.5-0.6
			c1-0.4,1.9-1,2.9-1.9l5.1,5.4c-2.7,3.1-6.6,4.6-11.9,4.6c-3.2,0-6.1-0.6-8.5-1.9c-2.5-1.3-4.3-3-5.7-5.2s-2-4.8-2-7.6
			c0-2.8,0.6-5.3,1.9-7.5c1.3-2.2,3.1-4,5.4-5.2c2.3-1.3,5-1.9,7.8-1.9c2.8,0,5.2,0.6,7.5,1.7s4,2.8,5.3,5.1
			c1.3,2.2,1.9,4.9,1.9,7.9C304.7,265.2,304.7,266.1,304.6,267.6z M286.1,258.8c-1,0.9-1.7,2-1.9,3.6h11.4c-0.3-1.5-0.9-2.7-1.9-3.6
			c-1-0.9-2.3-1.3-3.8-1.3C288.4,257.5,287.1,258,286.1,258.8z"/>
		<path class="st1" d="M331.9,253.3c2,1.2,3.7,2.8,4.8,5c1.2,2.1,1.7,4.6,1.7,7.3c0,2.8-0.6,5.2-1.7,7.4c-1.2,2.1-2.8,3.8-4.8,5
			c-2,1.2-4.3,1.7-6.9,1.7c-2.2,0-4.1-0.5-5.9-1.4c-1.7-0.9-3.2-2.3-4.3-4v15.4h-3.7v-37.8h3.5v5.4c1.1-1.8,2.6-3.2,4.3-4.2
			c1.7-1,3.9-1.5,6.1-1.5C327.6,251.5,329.9,252.2,331.9,253.3z M330,275c1.6-0.9,2.8-2.2,3.6-3.8c0.8-1.7,1.3-3.5,1.3-5.6
			s-0.5-4-1.3-5.6c-0.8-1.7-2.1-2.8-3.6-3.8c-1.6-0.9-3.2-1.4-5.1-1.4c-1.9,0-3.6,0.5-5.1,1.4c-1.6,0.9-2.8,2.2-3.6,3.8
			c-0.8,1.7-1.3,3.5-1.3,5.6c0,2.1,0.5,4,1.3,5.6c0.8,1.7,2,2.9,3.6,3.8c1.6,0.9,3.2,1.4,5.1,1.4C326.7,276.4,328.4,275.9,330,275z"
			/>
		<path class="st1" d="M345.9,244.9c-0.6-0.6-0.7-1.2-0.7-1.9c0-0.7,0.3-1.3,0.7-1.8c0.6-0.6,1.1-0.8,1.9-0.8c0.7,0,1.4,0.3,1.9,0.7
			c0.6,0.6,0.7,1.1,0.7,1.8c0,0.7-0.3,1.4-0.7,1.9c-0.6,0.6-1.1,0.8-1.9,0.8C347,245.7,346.3,245.5,345.9,244.9z M345.9,251.7h3.7
			v27.6h-3.7V251.7z"/>
		<path class="st1" d="M363.7,277.8c-2.1-1.2-3.8-2.8-5-5.1c-1.2-2.1-1.8-4.6-1.8-7.3s0.6-5.1,1.8-7.3c1.2-2.1,2.8-3.8,5-5
			c2.1-1.2,4.5-1.7,7.2-1.7c2.3,0,4.4,0.5,6.3,1.4c1.8,0.9,3.3,2.3,4.3,4l-2.8,1.9c-0.9-1.4-2-2.4-3.4-3c-1.4-0.6-2.8-1-4.4-1
			c-1.9,0-3.7,0.5-5.2,1.4c-1.6,0.9-2.8,2.2-3.7,3.8c-0.8,1.7-1.3,3.5-1.3,5.6c0,2.1,0.5,4,1.3,5.6c0.8,1.7,2.1,2.8,3.7,3.8
			c1.6,0.9,3.3,1.4,5.2,1.4c1.6,0,3.1-0.4,4.4-1c1.4-0.6,2.5-1.7,3.4-3l2.8,1.9c-1.1,1.7-2.5,3.1-4.3,4c-1.8,0.9-4,1.4-6.2,1.4
			C368.2,279.7,365.8,279,363.7,277.8z"/>
		<path class="st1" d="M398.1,265.5l-6.3,6v7.9h-3.7v-39h3.7v26.4l16.1-15.1h4.5L400.8,263l12.6,16.4H409L398.1,265.5z"/>
	</g>
</g>
<g>
	<path class="st2" d="M100.7,360.3c0.5,0.6,0.8,1.4,0.8,2.4c0,1.8-0.7,3.2-2,4.1c-1.3,1-3.2,1.4-5.6,1.4h-8.1l3.6-18h7.5
		c1.7,0,3,0.3,4,1c1,0.6,1.4,1.6,1.4,2.8c0,1.3-0.4,2.4-1.1,3.2c-0.7,0.9-1.7,1.4-2.9,1.8C99.3,359.3,100.1,359.7,100.7,360.3z
		 M98.6,366.1c1.1-0.8,1.6-1.8,1.6-3.2c0-1.1-0.4-1.9-1.1-2.3s-1.9-0.7-3.4-0.7h-6.8l-1.5,7.4H94C96,367.2,97.5,366.8,98.6,366.1z
		 M89,358.6h6.2c1.7,0,3.1-0.4,4.1-1.1c1-0.7,1.6-1.8,1.6-3.2c0-0.9-0.4-1.7-1.1-2.1c-0.7-0.5-1.8-0.7-3.2-0.7h-6.2L89,358.6z"/>
	<path class="st2" d="M105.8,361.9c0,0.4-0.1,0.7-0.1,0.8c0,1.5,0.4,2.6,1.3,3.4c0.8,0.8,2.1,1.2,3.7,1.2c0.9,0,1.8-0.2,2.6-0.5
		c0.8-0.3,1.5-0.8,2-1.3l0.6,0.9c-0.6,0.7-1.4,1.2-2.3,1.5c-0.9,0.4-1.9,0.5-3,0.5c-1.9,0-3.4-0.5-4.5-1.5c-1.1-1-1.6-2.4-1.6-4.1
		c0-1.5,0.3-2.9,1-4.1c0.6-1.2,1.5-2.2,2.6-2.9s2.4-1,3.8-1c1.8,0,3.1,0.5,4.2,1.5c1,1,1.5,2.4,1.5,4.1c0,0.4-0.1,0.9-0.2,1.5H105.8
		z M108,357.2c-1.1,0.9-1.7,2.1-2.1,3.6h10.3c0-0.2,0-0.4,0-0.7c0-1.4-0.4-2.4-1.2-3.2c-0.8-0.8-1.9-1.1-3.3-1.1
		C110.4,355.9,109.1,356.3,108,357.2z"/>
	<path class="st2" d="M127.4,367.9c-1-0.3-1.7-0.7-2.2-1.2l0.7-1c0.5,0.5,1.2,0.9,2,1.1c0.8,0.3,1.7,0.4,2.6,0.4
		c1.4,0,2.5-0.2,3.2-0.7c0.8-0.5,1.1-1.2,1.1-2c0-0.5-0.2-0.9-0.5-1.2c-0.3-0.3-0.7-0.5-1.1-0.7c-0.4-0.1-1.1-0.3-1.9-0.5
		c-0.9-0.2-1.7-0.4-2.3-0.6c-0.6-0.2-1.1-0.5-1.5-1c-0.4-0.4-0.6-1-0.6-1.8c0-1.2,0.5-2.2,1.5-3c1-0.7,2.4-1.1,4.1-1.1
		c0.9,0,1.7,0.1,2.5,0.3c0.8,0.2,1.4,0.6,1.9,1l-0.6,1c-0.5-0.4-1.1-0.7-1.8-0.9c-0.7-0.2-1.4-0.3-2.1-0.3c-1.3,0-2.3,0.3-3.1,0.8
		c-0.8,0.5-1.1,1.2-1.1,2c0,0.5,0.2,0.9,0.5,1.2c0.3,0.3,0.7,0.5,1.2,0.7c0.5,0.2,1.1,0.3,1.9,0.5c0.9,0.2,1.7,0.4,2.2,0.6
		c0.6,0.2,1,0.5,1.4,0.9c0.4,0.4,0.6,1,0.6,1.8c0,1.3-0.5,2.2-1.6,3c-1,0.7-2.4,1.1-4.2,1.1C129.4,368.4,128.4,368.3,127.4,367.9z"
		/>
	<path class="st2" d="M153.5,354.9l-2.7,13.4h-1.3l0.5-2.5c-1.3,1.8-3.1,2.7-5.5,2.7c-1.5,0-2.7-0.4-3.5-1.1
		c-0.8-0.8-1.2-1.8-1.2-3.2c0-0.5,0.1-1,0.2-1.5l1.5-7.8h1.3l-1.5,7.8c-0.1,0.4-0.1,0.8-0.1,1.3c0,1.1,0.3,1.9,0.9,2.5
		c0.6,0.6,1.6,0.9,2.8,0.9c1.5,0,2.8-0.4,3.8-1.3c1-0.9,1.7-2.1,2-3.8l1.5-7.3H153.5z"/>
	<path class="st2" d="M161.9,355.5c0.9-0.5,2.1-0.7,3.4-0.7l-0.2,1.3l-0.4,0c-1.5,0-2.8,0.5-3.8,1.4c-1,0.9-1.6,2.3-2,4l-1.4,6.9
		h-1.3l2.7-13.4h1.3l-0.6,2.8C160.2,356.7,161,356,161.9,355.5z"/>
	<path class="st2" d="M167.1,361.9c0,0.4-0.1,0.7-0.1,0.8c0,1.5,0.4,2.6,1.3,3.4c0.8,0.8,2.1,1.2,3.7,1.2c0.9,0,1.8-0.2,2.6-0.5
		c0.8-0.3,1.5-0.8,2-1.3l0.6,0.9c-0.6,0.7-1.4,1.2-2.3,1.5c-0.9,0.4-1.9,0.5-3,0.5c-1.9,0-3.4-0.5-4.5-1.5c-1.1-1-1.6-2.4-1.6-4.1
		c0-1.5,0.3-2.9,1-4.1c0.6-1.2,1.5-2.2,2.6-2.9c1.1-0.7,2.4-1,3.8-1c1.8,0,3.1,0.5,4.2,1.5c1,1,1.5,2.4,1.5,4.1
		c0,0.4-0.1,0.9-0.2,1.5H167.1z M169.4,357.2c-1.1,0.9-1.7,2.1-2.1,3.6h10.3c0-0.2,0-0.4,0-0.7c0-1.4-0.4-2.4-1.2-3.2
		c-0.8-0.8-1.9-1.1-3.3-1.1C171.7,355.9,170.4,356.3,169.4,357.2z"/>
	<path class="st2" d="M190.4,364.4c-0.1,0.3-0.1,0.6-0.1,1c0,1.3,0.7,1.9,2.1,1.9c0.8,0,1.6-0.2,2.2-0.7l0.4,1
		c-0.7,0.6-1.7,0.9-2.9,0.9c-1,0-1.7-0.3-2.3-0.8c-0.5-0.5-0.8-1.2-0.8-2.1c0-0.4,0-0.7,0.1-1l1.7-8.5h-2.5l0.2-1.1h2.5l0.6-2.9h1.3
		l-0.6,2.9h4.3l-0.2,1.1h-4.3L190.4,364.4z"/>
	<path class="st2" d="M199.2,366.9c-1.1-1-1.6-2.4-1.6-4.1c0-1.5,0.3-2.9,1-4.1c0.7-1.2,1.6-2.2,2.7-2.9c1.2-0.7,2.5-1.1,4-1.1
		c1.8,0,3.3,0.5,4.3,1.5c1.1,1,1.6,2.4,1.6,4.1c0,1.5-0.3,2.9-1,4.1c-0.7,1.2-1.6,2.2-2.7,2.9c-1.2,0.7-2.5,1-4,1
		C201.7,368.4,200.3,367.9,199.2,366.9z M206.9,366.4c1-0.6,1.7-1.4,2.3-2.4c0.5-1,0.8-2.2,0.8-3.5c0-1.4-0.4-2.5-1.2-3.3
		c-0.8-0.8-2-1.2-3.5-1.2c-1.2,0-2.3,0.3-3.2,0.9c-1,0.6-1.7,1.4-2.3,2.4c-0.5,1-0.8,2.2-0.8,3.5c0,1.4,0.4,2.5,1.2,3.3
		c0.8,0.8,2,1.2,3.5,1.2C204.8,367.3,205.9,367,206.9,366.4z"/>
	<path class="st2" d="M221.8,366.9c-1.1-1-1.6-2.4-1.6-4.1c0-1.5,0.3-2.9,1-4.1c0.7-1.2,1.6-2.2,2.8-2.9c1.2-0.7,2.5-1,4-1
		c1.2,0,2.2,0.2,3.1,0.6c0.9,0.4,1.5,1.1,2,1.9l-1.1,0.6c-0.8-1.3-2.2-2-4.1-2c-1.2,0-2.3,0.3-3.3,0.9c-1,0.6-1.7,1.4-2.3,2.4
		c-0.5,1-0.8,2.2-0.8,3.5c0,1.4,0.4,2.5,1.3,3.3c0.8,0.8,2,1.2,3.6,1.2c0.9,0,1.7-0.2,2.5-0.5c0.8-0.3,1.4-0.8,1.9-1.4l0.9,0.7
		c-0.6,0.8-1.4,1.3-2.3,1.8c-1,0.4-2,0.6-3.1,0.6C224.4,368.4,222.9,367.9,221.8,366.9z"/>
	<path class="st2" d="M246.9,355.9c0.8,0.8,1.2,1.8,1.2,3.2c0,0.5-0.1,1-0.2,1.5l-1.5,7.8h-1.3l1.5-7.8c0.1-0.4,0.1-0.8,0.1-1.3
		c0-1.1-0.3-1.9-1-2.5c-0.6-0.6-1.6-0.9-2.8-0.9c-1.5,0-2.8,0.4-3.9,1.3c-1,0.9-1.7,2.1-2,3.8l-1.5,7.3h-1.3l3.8-19.1h1.3l-1.6,8.2
		c1.3-1.7,3.1-2.6,5.5-2.6C244.9,354.8,246.1,355.2,246.9,355.9z"/>
	<path class="st2" d="M252.9,361.9c0,0.4-0.1,0.7-0.1,0.8c0,1.5,0.4,2.6,1.3,3.4c0.8,0.8,2.1,1.2,3.7,1.2c0.9,0,1.8-0.2,2.6-0.5
		c0.8-0.3,1.5-0.8,2-1.3l0.6,0.9c-0.6,0.7-1.4,1.2-2.3,1.5c-0.9,0.4-1.9,0.5-3,0.5c-1.9,0-3.4-0.5-4.5-1.5c-1.1-1-1.6-2.4-1.6-4.1
		c0-1.5,0.3-2.9,1-4.1c0.6-1.2,1.5-2.2,2.6-2.9c1.1-0.7,2.4-1,3.8-1c1.8,0,3.1,0.5,4.2,1.5c1,1,1.5,2.4,1.5,4.1
		c0,0.4-0.1,0.9-0.2,1.5H252.9z M255.1,357.2c-1.1,0.9-1.7,2.1-2.1,3.6h10.3c0-0.2,0-0.4,0-0.7c0-1.4-0.4-2.4-1.2-3.2
		c-0.8-0.8-1.9-1.1-3.3-1.1C257.4,355.9,256.2,356.3,255.1,357.2z"/>
	<path class="st2" d="M268.6,366.9c-1.1-1-1.6-2.4-1.6-4.1c0-1.5,0.3-2.9,1-4.1c0.7-1.2,1.6-2.2,2.8-2.9c1.2-0.7,2.5-1,4-1
		c1.2,0,2.2,0.2,3.1,0.6c0.9,0.4,1.5,1.1,2,1.9l-1.1,0.6c-0.8-1.3-2.2-2-4.1-2c-1.2,0-2.3,0.3-3.3,0.9c-1,0.6-1.7,1.4-2.3,2.4
		c-0.5,1-0.8,2.2-0.8,3.5c0,1.4,0.4,2.5,1.3,3.3c0.8,0.8,2,1.2,3.6,1.2c0.9,0,1.7-0.2,2.5-0.5c0.8-0.3,1.4-0.8,1.9-1.4l0.9,0.7
		c-0.6,0.8-1.4,1.3-2.3,1.8c-1,0.4-2,0.6-3.1,0.6C271.1,368.4,269.7,367.9,268.6,366.9z"/>
	<path class="st2" d="M288.5,360.4l4.8,8h-1.5l-4.3-7.2l-4.2,3.2l-0.8,4h-1.3l3.8-19.1h1.3l-2.7,13.5l10-7.8h1.9L288.5,360.4z"/>
	<path class="st2" d="M315.9,356.3c1.1,1,1.6,2.4,1.6,4.1c0,1.5-0.3,2.9-1,4.1c-0.7,1.2-1.6,2.2-2.7,2.9c-1.2,0.7-2.5,1-3.9,1
		c-1.4,0-2.6-0.3-3.5-0.9c-0.9-0.6-1.5-1.5-1.9-2.6l-0.7,3.4h-1.3l3.8-19.1h1.3l-1.6,8.2c0.7-0.8,1.5-1.5,2.4-1.9
		c1-0.5,2-0.7,3.2-0.7C313.5,354.8,314.9,355.3,315.9,356.3z M313.2,366.4c1-0.6,1.7-1.4,2.2-2.4c0.5-1,0.8-2.2,0.8-3.5
		c0-1.4-0.4-2.5-1.2-3.3c-0.8-0.8-2-1.2-3.5-1.2c-1.2,0-2.3,0.3-3.2,0.9s-1.7,1.4-2.3,2.4c-0.5,1-0.8,2.2-0.8,3.5
		c0,1.4,0.4,2.5,1.3,3.3c0.8,0.8,2,1.2,3.5,1.2C311.1,367.3,312.2,367,313.2,366.4z"/>
	<path class="st2" d="M334.7,354.9l-2.7,13.4h-1.2l0.5-2.6c-0.7,0.9-1.5,1.5-2.4,2c-1,0.5-2,0.7-3.2,0.7c-1.8,0-3.2-0.5-4.2-1.5
		c-1.1-1-1.6-2.4-1.6-4.1c0-1.5,0.3-2.9,1-4.1c0.7-1.2,1.6-2.2,2.7-2.9c1.2-0.7,2.5-1,3.9-1c1.4,0,2.5,0.3,3.4,0.9
		c0.9,0.6,1.5,1.5,1.9,2.5l0.7-3.3H334.7z M329.1,366.4c1-0.6,1.7-1.4,2.3-2.4c0.5-1,0.8-2.2,0.8-3.5c0-1.4-0.4-2.5-1.2-3.3
		c-0.8-0.8-2-1.2-3.5-1.2c-1.2,0-2.3,0.3-3.2,0.9c-1,0.6-1.7,1.4-2.3,2.4c-0.5,1-0.8,2.2-0.8,3.5c0,1.4,0.4,2.5,1.2,3.3
		c0.8,0.8,2,1.2,3.5,1.2C327.1,367.3,328.1,367,329.1,366.4z"/>
	<path class="st2" d="M338.8,366.9c-1.1-1-1.6-2.4-1.6-4.1c0-1.5,0.3-2.9,1-4.1c0.7-1.2,1.6-2.2,2.8-2.9c1.2-0.7,2.5-1,4-1
		c1.2,0,2.2,0.2,3.1,0.6c0.9,0.4,1.5,1.1,2,1.9l-1.1,0.6c-0.8-1.3-2.2-2-4.1-2c-1.2,0-2.3,0.3-3.3,0.9c-1,0.6-1.7,1.4-2.3,2.4
		c-0.5,1-0.8,2.2-0.8,3.5c0,1.4,0.4,2.5,1.3,3.3c0.8,0.8,2,1.2,3.6,1.2c0.9,0,1.7-0.2,2.5-0.5c0.8-0.3,1.4-0.8,1.9-1.4l0.9,0.7
		c-0.6,0.8-1.4,1.3-2.3,1.8c-1,0.4-2,0.6-3.1,0.6C341.4,368.4,339.9,367.9,338.8,366.9z"/>
	<path class="st2" d="M358.7,360.4l4.8,8h-1.5l-4.4-7.2l-4.2,3.2l-0.8,4h-1.3l3.8-19.1h1.3l-2.7,13.5l10-7.8h1.9L358.7,360.4z"/>
	<path class="st2" d="M374.3,366.9c-1.1-1-1.6-2.4-1.6-4.1c0-1.5,0.3-2.9,1-4.1c0.7-1.2,1.6-2.2,2.7-2.9c1.2-0.7,2.5-1.1,4-1.1
		c1.8,0,3.3,0.5,4.3,1.5c1.1,1,1.6,2.4,1.6,4.1c0,1.5-0.3,2.9-1,4.1c-0.7,1.2-1.6,2.2-2.7,2.9c-1.2,0.7-2.5,1-4,1
		C376.8,368.4,375.4,367.9,374.3,366.9z M382,366.4c1-0.6,1.7-1.4,2.3-2.4c0.5-1,0.8-2.2,0.8-3.5c0-1.4-0.4-2.5-1.2-3.3
		c-0.8-0.8-2-1.2-3.5-1.2c-1.2,0-2.3,0.3-3.2,0.9c-1,0.6-1.7,1.4-2.3,2.4c-0.5,1-0.8,2.2-0.8,3.5c0,1.4,0.4,2.5,1.2,3.3
		s2,1.2,3.5,1.2C379.9,367.3,381,367,382,366.4z"/>
	<path class="st2" d="M394.5,350.9c-0.5,0.4-0.8,1.2-1,2.1l-0.4,1.9h4.3l-0.2,1.1h-4.3l-2.4,12.3h-1.3l2.5-12.3h-2.5l0.2-1.1h2.5
		l0.4-2c0.2-1.2,0.7-2.1,1.5-2.8c0.7-0.6,1.7-1,2.8-1c0.5,0,1,0.1,1.5,0.2c0.5,0.2,0.8,0.4,1.1,0.7l-0.6,0.9c-0.5-0.5-1.2-0.7-2-0.7
		C395.7,350.2,395,350.4,394.5,350.9z"/>
	<path class="st2" d="M399.6,364.4c-0.1,0.3-0.1,0.6-0.1,1c0,1.3,0.7,1.9,2.1,1.9c0.8,0,1.6-0.2,2.2-0.7l0.4,1
		c-0.7,0.6-1.7,0.9-2.9,0.9c-1,0-1.7-0.3-2.3-0.8c-0.5-0.5-0.8-1.2-0.8-2.1c0-0.4,0-0.7,0.1-1l1.7-8.5h-2.5l0.2-1.1h2.5l0.6-2.9h1.3
		l-0.6,2.9h4.3l-0.2,1.1h-4.3L399.6,364.4z"/>
	<path class="st2" d="M408.2,361.9c0,0.4-0.1,0.7-0.1,0.8c0,1.5,0.4,2.6,1.3,3.4c0.8,0.8,2.1,1.2,3.7,1.2c0.9,0,1.8-0.2,2.6-0.5
		c0.8-0.3,1.5-0.8,2-1.3l0.6,0.9c-0.6,0.7-1.4,1.2-2.3,1.5c-0.9,0.4-1.9,0.5-3,0.5c-1.9,0-3.4-0.5-4.5-1.5c-1.1-1-1.6-2.4-1.6-4.1
		c0-1.5,0.3-2.9,1-4.1s1.5-2.2,2.6-2.9c1.1-0.7,2.4-1,3.8-1c1.8,0,3.1,0.5,4.2,1.5c1,1,1.5,2.4,1.5,4.1c0,0.4-0.1,0.9-0.2,1.5H408.2
		z M410.4,357.2c-1.1,0.9-1.7,2.1-2.1,3.6h10.3c0-0.2,0-0.4,0-0.7c0-1.4-0.4-2.4-1.2-3.2c-0.8-0.8-1.9-1.1-3.3-1.1
		C412.7,355.9,411.4,356.3,410.4,357.2z"/>
	<path class="st2" d="M435,355.9c0.8,0.8,1.2,1.8,1.2,3.2c0,0.5-0.1,1-0.2,1.5l-1.5,7.8h-1.3l1.5-7.8c0.1-0.4,0.1-0.8,0.1-1.3
		c0-1.1-0.3-1.9-1-2.5c-0.6-0.6-1.6-0.9-2.8-0.9c-1.5,0-2.8,0.4-3.9,1.3c-1,0.9-1.7,2.1-2,3.8l-1.5,7.3h-1.3l2.7-13.4h1.3l-0.5,2.5
		c0.6-0.9,1.4-1.6,2.4-2c1-0.4,2-0.7,3.2-0.7C433,354.8,434.1,355.2,435,355.9z"/>
	<path class="st2" d="M461,354.9l-2.7,13.4h-1.2l0.5-2.6c-0.7,0.9-1.5,1.5-2.4,2c-1,0.5-2,0.7-3.2,0.7c-1.8,0-3.2-0.5-4.2-1.5
		c-1.1-1-1.6-2.4-1.6-4.1c0-1.5,0.3-2.9,1-4.1c0.7-1.2,1.6-2.2,2.7-2.9s2.5-1,3.9-1c1.4,0,2.5,0.3,3.4,0.9c0.9,0.6,1.5,1.5,1.9,2.5
		l0.7-3.3H461z M455.5,366.4c1-0.6,1.7-1.4,2.3-2.4c0.5-1,0.8-2.2,0.8-3.5c0-1.4-0.4-2.5-1.2-3.3c-0.8-0.8-2-1.2-3.5-1.2
		c-1.2,0-2.3,0.3-3.2,0.9c-1,0.6-1.7,1.4-2.3,2.4c-0.5,1-0.8,2.2-0.8,3.5c0,1.4,0.4,2.5,1.2,3.3c0.8,0.8,2,1.2,3.5,1.2
		C453.4,367.3,454.5,367,455.5,366.4z"/>
	<path class="st2" d="M464.4,367.9c-1-0.3-1.7-0.7-2.2-1.2l0.7-1c0.5,0.5,1.2,0.9,2,1.1c0.8,0.3,1.7,0.4,2.6,0.4
		c1.4,0,2.5-0.2,3.2-0.7c0.8-0.5,1.1-1.2,1.1-2c0-0.5-0.2-0.9-0.5-1.2c-0.3-0.3-0.7-0.5-1.1-0.7c-0.4-0.1-1.1-0.3-1.9-0.5
		c-0.9-0.2-1.7-0.4-2.3-0.6c-0.6-0.2-1.1-0.5-1.5-1c-0.4-0.4-0.6-1-0.6-1.8c0-1.2,0.5-2.2,1.5-3c1-0.7,2.4-1.1,4.1-1.1
		c0.9,0,1.7,0.1,2.5,0.3c0.8,0.2,1.4,0.6,1.9,1l-0.6,1c-0.5-0.4-1.1-0.7-1.8-0.9c-0.7-0.2-1.4-0.3-2.1-0.3c-1.3,0-2.3,0.3-3.1,0.8
		c-0.8,0.5-1.1,1.2-1.1,2c0,0.5,0.2,0.9,0.5,1.2c0.3,0.3,0.7,0.5,1.2,0.7c0.5,0.2,1.1,0.3,1.9,0.5c0.9,0.2,1.7,0.4,2.2,0.6
		s1,0.5,1.4,0.9c0.4,0.4,0.6,1,0.6,1.8c0,1.3-0.5,2.2-1.6,3c-1,0.7-2.4,1.1-4.2,1.1C466.4,368.4,465.4,368.3,464.4,367.9z"/>
	<path class="st2" d="M113.1,392.7c0.8,0.8,1.2,1.8,1.2,3.2c0,0.5-0.1,1-0.2,1.5l-1.5,7.8h-1.3l1.5-7.8c0.1-0.4,0.1-0.8,0.1-1.3
		c0-1.1-0.3-1.9-1-2.5c-0.6-0.6-1.6-0.9-2.8-0.9c-1.5,0-2.8,0.4-3.9,1.3c-1,0.9-1.7,2.1-2,3.8l-1.5,7.3h-1.3l2.7-13.4h1.3l-0.5,2.5
		c0.6-0.9,1.4-1.6,2.4-2c1-0.4,2-0.7,3.2-0.7C111.1,391.5,112.2,391.9,113.1,392.7z"/>
	<path class="st2" d="M119,398.7c0,0.4-0.1,0.7-0.1,0.8c0,1.5,0.4,2.6,1.3,3.4c0.8,0.8,2.1,1.2,3.7,1.2c0.9,0,1.8-0.2,2.6-0.5
		c0.8-0.3,1.5-0.8,2-1.3l0.6,0.9c-0.6,0.7-1.4,1.2-2.3,1.5c-0.9,0.4-1.9,0.5-3,0.5c-1.9,0-3.4-0.5-4.5-1.5c-1.1-1-1.6-2.4-1.6-4.1
		c0-1.5,0.3-2.9,1-4.1c0.6-1.2,1.5-2.2,2.6-2.9s2.4-1,3.8-1c1.8,0,3.1,0.5,4.2,1.5c1,1,1.5,2.4,1.5,4.1c0,0.4-0.1,0.9-0.2,1.5H119z
		 M121.2,394c-1.1,0.9-1.7,2.1-2.1,3.6h10.3c0-0.2,0-0.4,0-0.7c0-1.4-0.4-2.4-1.2-3.2c-0.8-0.8-1.9-1.1-3.3-1.1
		C123.5,392.7,122.3,393.1,121.2,394z"/>
	<path class="st2" d="M155,391.7l-7.6,13.4h-1.2l-2.4-11.7l-6.7,11.7h-1.2l-2.7-13.4h1.2l2.3,12l6.8-12h1.1l2.4,12l6.7-12H155z"/>
	<path class="st2" d="M174.8,388l-6.8,6.9c1.7,0.1,2.9,0.5,3.8,1.3c0.9,0.8,1.3,1.8,1.3,3.2c0,1.1-0.3,2.1-0.9,3
		c-0.6,0.9-1.4,1.6-2.5,2c-1.1,0.5-2.3,0.7-3.7,0.7c-1.4,0-2.6-0.2-3.7-0.7c-1.1-0.4-1.9-1-2.4-1.8l0.8-1c0.4,0.7,1.1,1.2,2.1,1.6
		c0.9,0.4,2,0.6,3.3,0.6c1.8,0,3.2-0.4,4.2-1.2c1-0.8,1.5-1.9,1.5-3.3c0-2.3-1.6-3.5-4.7-3.5h-1l0.2-1l6.6-6.8h-9.5l0.2-1.2H175
		L174.8,388z"/>
	<path class="st2" d="M180.2,387.1h6.7c1.8,0,3.3,0.3,4.5,0.9s2.2,1.5,2.9,2.5c0.7,1.1,1,2.4,1,3.8c0,2.1-0.5,3.9-1.4,5.6
		c-0.9,1.6-2.2,2.9-3.9,3.8c-1.7,0.9-3.7,1.4-5.9,1.4h-7.5L180.2,387.1z M184.1,403.9c2,0,3.7-0.4,5.2-1.2c1.5-0.8,2.6-1.9,3.4-3.4
		c0.8-1.4,1.2-3.1,1.2-4.9c0-1.9-0.6-3.4-1.8-4.5c-1.2-1.1-3-1.6-5.4-1.6h-5.5l-3.1,15.6H184.1z"/>
	<path class="st2" d="M204.7,404.7c-1-0.3-1.7-0.7-2.2-1.2l0.7-1c0.5,0.5,1.2,0.9,2,1.1c0.8,0.3,1.7,0.4,2.6,0.4
		c1.4,0,2.5-0.2,3.2-0.7c0.8-0.5,1.1-1.2,1.1-2c0-0.5-0.2-0.9-0.5-1.2c-0.3-0.3-0.7-0.5-1.1-0.7c-0.4-0.1-1.1-0.3-1.9-0.5
		c-0.9-0.2-1.7-0.4-2.3-0.6c-0.6-0.2-1.1-0.5-1.5-1c-0.4-0.4-0.6-1-0.6-1.8c0-1.2,0.5-2.2,1.5-3c1-0.7,2.4-1.1,4.1-1.1
		c0.9,0,1.7,0.1,2.5,0.3c0.8,0.2,1.4,0.6,1.9,1l-0.6,1c-0.5-0.4-1.1-0.7-1.8-0.9c-0.7-0.2-1.4-0.3-2.1-0.3c-1.3,0-2.3,0.3-3.1,0.8
		c-0.8,0.5-1.1,1.2-1.1,2c0,0.5,0.2,0.9,0.5,1.2c0.3,0.3,0.7,0.5,1.2,0.7c0.5,0.2,1.1,0.3,1.9,0.5c0.9,0.2,1.7,0.4,2.2,0.6
		c0.6,0.2,1,0.5,1.4,0.9c0.4,0.4,0.6,1,0.6,1.8c0,1.3-0.5,2.2-1.6,3c-1,0.7-2.4,1.1-4.2,1.1C206.7,405.2,205.7,405,204.7,404.7z"/>
	<path class="st2" d="M217.8,403.7c-1.1-1-1.6-2.4-1.6-4.1c0-1.5,0.3-2.9,1-4.1c0.7-1.2,1.6-2.2,2.8-2.9c1.2-0.7,2.5-1,4-1
		c1.2,0,2.2,0.2,3.1,0.6c0.9,0.4,1.5,1.1,2,1.9l-1.1,0.6c-0.8-1.3-2.2-2-4.1-2c-1.2,0-2.3,0.3-3.3,0.9c-1,0.6-1.7,1.4-2.3,2.4
		c-0.5,1-0.8,2.2-0.8,3.5c0,1.4,0.4,2.5,1.3,3.3c0.8,0.8,2,1.2,3.6,1.2c0.9,0,1.7-0.2,2.5-0.5c0.8-0.3,1.4-0.8,1.9-1.4l0.9,0.7
		c-0.6,0.8-1.4,1.3-2.3,1.8c-1,0.4-2,0.6-3.1,0.6C220.3,405.2,218.9,404.7,217.8,403.7z"/>
	<path class="st2" d="M231.5,398.7c0,0.4-0.1,0.7-0.1,0.8c0,1.5,0.4,2.6,1.3,3.4c0.8,0.8,2.1,1.2,3.7,1.2c0.9,0,1.8-0.2,2.6-0.5
		c0.8-0.3,1.5-0.8,2-1.3l0.6,0.9c-0.6,0.7-1.4,1.2-2.3,1.5c-0.9,0.4-1.9,0.5-3,0.5c-1.9,0-3.4-0.5-4.5-1.5c-1.1-1-1.6-2.4-1.6-4.1
		c0-1.5,0.3-2.9,1-4.1c0.6-1.2,1.5-2.2,2.6-2.9c1.1-0.7,2.4-1,3.8-1c1.8,0,3.1,0.5,4.2,1.5c1,1,1.5,2.4,1.5,4.1
		c0,0.4-0.1,0.9-0.2,1.5H231.5z M233.7,394c-1.1,0.9-1.7,2.1-2.1,3.6H242c0-0.2,0-0.4,0-0.7c0-1.4-0.4-2.4-1.2-3.2
		c-0.8-0.8-1.9-1.1-3.3-1.1C236,392.7,234.8,393.1,233.7,394z"/>
	<path class="st2" d="M258.3,392.7c0.8,0.8,1.2,1.8,1.2,3.2c0,0.5-0.1,1-0.2,1.5l-1.5,7.8h-1.3l1.5-7.8c0.1-0.4,0.1-0.8,0.1-1.3
		c0-1.1-0.3-1.9-1-2.5c-0.6-0.6-1.6-0.9-2.8-0.9c-1.5,0-2.8,0.4-3.9,1.3c-1,0.9-1.7,2.1-2,3.8l-1.5,7.3h-1.3l2.7-13.4h1.3l-0.5,2.5
		c0.6-0.9,1.4-1.6,2.4-2c1-0.4,2-0.7,3.2-0.7C256.3,391.5,257.5,391.9,258.3,392.7z"/>
	<path class="st2" d="M264.2,398.7c0,0.4-0.1,0.7-0.1,0.8c0,1.5,0.4,2.6,1.3,3.4c0.8,0.8,2.1,1.2,3.7,1.2c0.9,0,1.8-0.2,2.6-0.5
		c0.8-0.3,1.5-0.8,2-1.3l0.6,0.9c-0.6,0.7-1.4,1.2-2.3,1.5c-0.9,0.4-1.9,0.5-3,0.5c-1.9,0-3.4-0.5-4.5-1.5c-1.1-1-1.6-2.4-1.6-4.1
		c0-1.5,0.3-2.9,1-4.1c0.6-1.2,1.5-2.2,2.6-2.9c1.1-0.7,2.4-1,3.8-1c1.8,0,3.1,0.5,4.2,1.5c1,1,1.5,2.4,1.5,4.1
		c0,0.4-0.1,0.9-0.2,1.5H264.2z M266.5,394c-1.1,0.9-1.7,2.1-2.1,3.6h10.3c0-0.2,0-0.4,0-0.7c0-1.4-0.4-2.4-1.2-3.2
		c-0.8-0.8-1.9-1.1-3.3-1.1C268.8,392.7,267.5,393.1,266.5,394z"/>
	<path class="st2" d="M279.2,404.7c-1-0.3-1.7-0.7-2.2-1.2l0.7-1c0.5,0.5,1.2,0.9,2,1.1c0.8,0.3,1.7,0.4,2.6,0.4
		c1.4,0,2.5-0.2,3.2-0.7c0.8-0.5,1.1-1.2,1.1-2c0-0.5-0.2-0.9-0.5-1.2c-0.3-0.3-0.7-0.5-1.1-0.7c-0.4-0.1-1.1-0.3-1.9-0.5
		c-0.9-0.2-1.7-0.4-2.3-0.6c-0.6-0.2-1.1-0.5-1.5-1c-0.4-0.4-0.6-1-0.6-1.8c0-1.2,0.5-2.2,1.5-3c1-0.7,2.4-1.1,4.1-1.1
		c0.9,0,1.7,0.1,2.5,0.3c0.8,0.2,1.4,0.6,1.9,1l-0.6,1c-0.5-0.4-1.1-0.7-1.8-0.9c-0.7-0.2-1.4-0.3-2.2-0.3c-1.3,0-2.3,0.3-3.1,0.8
		c-0.8,0.5-1.1,1.2-1.1,2c0,0.5,0.2,0.9,0.5,1.2c0.3,0.3,0.7,0.5,1.2,0.7c0.5,0.2,1.1,0.3,1.9,0.5c0.9,0.2,1.7,0.4,2.2,0.6
		c0.6,0.2,1,0.5,1.4,0.9c0.4,0.4,0.6,1,0.6,1.8c0,1.3-0.5,2.2-1.6,3c-1,0.7-2.4,1.1-4.2,1.1C281.2,405.2,280.2,405,279.2,404.7z"/>
	<path class="st2" d="M312.1,391.7l-2.7,13.4h-1.2l0.5-2.6c-0.7,0.9-1.5,1.5-2.4,2c-1,0.5-2,0.7-3.2,0.7c-1.8,0-3.2-0.5-4.2-1.5
		c-1.1-1-1.6-2.4-1.6-4.1c0-1.5,0.3-2.9,1-4.1c0.7-1.2,1.6-2.2,2.7-2.9c1.2-0.7,2.5-1,3.9-1c1.4,0,2.5,0.3,3.4,0.9
		c0.9,0.6,1.5,1.5,1.9,2.5l0.7-3.3H312.1z M306.5,403.2c1-0.6,1.7-1.4,2.3-2.4c0.5-1,0.8-2.2,0.8-3.5c0-1.4-0.4-2.5-1.2-3.3
		c-0.8-0.8-2-1.2-3.5-1.2c-1.2,0-2.3,0.3-3.2,0.9c-1,0.6-1.7,1.4-2.3,2.4c-0.5,1-0.8,2.2-0.8,3.5c0,1.4,0.4,2.5,1.2,3.3
		c0.8,0.8,2,1.2,3.5,1.2C304.5,404,305.6,403.7,306.5,403.2z"/>
	<path class="st2" d="M320.5,392.3c0.9-0.5,2.1-0.7,3.4-0.7l-0.2,1.3l-0.4,0c-1.5,0-2.8,0.5-3.8,1.4c-1,0.9-1.6,2.3-2,4l-1.4,6.9
		h-1.3l2.7-13.4h1.3l-0.6,2.8C318.8,393.5,319.6,392.8,320.5,392.3z"/>
	<path class="st2" d="M325.7,398.7c0,0.4-0.1,0.7-0.1,0.8c0,1.5,0.4,2.6,1.3,3.4c0.8,0.8,2.1,1.2,3.7,1.2c0.9,0,1.8-0.2,2.6-0.5
		c0.8-0.3,1.5-0.8,2-1.3l0.6,0.9c-0.6,0.7-1.4,1.2-2.3,1.5c-0.9,0.4-1.9,0.5-3,0.5c-1.9,0-3.4-0.5-4.5-1.5c-1.1-1-1.6-2.4-1.6-4.1
		c0-1.5,0.3-2.9,1-4.1c0.6-1.2,1.5-2.2,2.6-2.9c1.1-0.7,2.4-1,3.8-1c1.7,0,3.1,0.5,4.2,1.5c1,1,1.5,2.4,1.5,4.1
		c0,0.4-0.1,0.9-0.2,1.5H325.7z M327.9,394c-1.1,0.9-1.7,2.1-2.1,3.6h10.3c0-0.2,0-0.4,0-0.7c0-1.4-0.4-2.4-1.2-3.2
		c-0.8-0.8-1.9-1.1-3.3-1.1C330.3,392.7,329,393.1,327.9,394z"/>
	<path class="st2" d="M352.3,392.3c0.9-0.5,2.1-0.7,3.4-0.7l-0.2,1.3l-0.4,0c-1.5,0-2.8,0.5-3.8,1.4c-1,0.9-1.6,2.3-2,4l-1.4,6.9
		h-1.3l2.7-13.4h1.3l-0.6,2.8C350.6,393.5,351.4,392.8,352.3,392.3z"/>
	<path class="st2" d="M357.5,398.7c0,0.4-0.1,0.7-0.1,0.8c0,1.5,0.4,2.6,1.3,3.4c0.8,0.8,2.1,1.2,3.7,1.2c0.9,0,1.8-0.2,2.6-0.5
		c0.8-0.3,1.5-0.8,2-1.3l0.6,0.9c-0.6,0.7-1.4,1.2-2.3,1.5c-0.9,0.4-1.9,0.5-3,0.5c-1.9,0-3.4-0.5-4.5-1.5c-1.1-1-1.6-2.4-1.6-4.1
		c0-1.5,0.3-2.9,1-4.1c0.6-1.2,1.5-2.2,2.6-2.9c1.1-0.7,2.4-1,3.8-1c1.7,0,3.1,0.5,4.2,1.5c1,1,1.5,2.4,1.5,4.1
		c0,0.4-0.1,0.9-0.2,1.5H357.5z M359.7,394c-1.1,0.9-1.7,2.1-2.1,3.6H368c0-0.2,0-0.4,0-0.7c0-1.4-0.4-2.4-1.2-3.2
		c-0.8-0.8-1.9-1.1-3.3-1.1C362,392.7,360.8,393.1,359.7,394z"/>
	<path class="st2" d="M386.6,391.7l-2.4,12c-0.4,2.3-1.3,3.9-2.5,5c-1.2,1-2.9,1.6-5.1,1.6c-1.2,0-2.4-0.2-3.3-0.6
		c-1-0.4-1.8-0.9-2.5-1.6l0.8-1c0.5,0.6,1.3,1.1,2.1,1.4c0.9,0.3,1.9,0.5,3,0.5c1.8,0,3.2-0.4,4.2-1.3c1-0.8,1.7-2.1,2-3.9l0.4-2
		c-0.7,0.9-1.5,1.6-2.5,2c-1,0.5-2.1,0.7-3.3,0.7c-1.8,0-3.2-0.5-4.3-1.4c-1.1-1-1.6-2.3-1.6-3.9c0-1.4,0.3-2.7,1-3.9
		c0.7-1.2,1.6-2.1,2.7-2.8c1.2-0.7,2.5-1,3.9-1c1.4,0,2.6,0.3,3.5,0.9c0.9,0.6,1.6,1.5,1.9,2.6l0.7-3.4H386.6z M381,402.6
		c1-0.6,1.7-1.3,2.3-2.3c0.5-1,0.8-2.1,0.8-3.3c0-1.3-0.4-2.4-1.3-3.1c-0.8-0.7-2-1.1-3.5-1.1c-1.2,0-2.3,0.3-3.3,0.8
		c-1,0.6-1.7,1.3-2.3,2.3c-0.5,1-0.8,2.1-0.8,3.3c0,1.3,0.4,2.4,1.3,3.1c0.8,0.7,2,1.1,3.5,1.1C379,403.4,380,403.2,381,402.6z"/>
	<path class="st2" d="M403.8,391.7l-2.7,13.4h-1.3l0.5-2.5c-1.3,1.8-3.1,2.7-5.5,2.7c-1.5,0-2.7-0.4-3.5-1.1
		c-0.8-0.8-1.2-1.8-1.2-3.2c0-0.5,0.1-1,0.2-1.5l1.5-7.8h1.3l-1.5,7.8c-0.1,0.4-0.1,0.8-0.1,1.3c0,1.1,0.3,1.9,0.9,2.5
		c0.6,0.6,1.6,0.9,2.8,0.9c1.5,0,2.8-0.4,3.8-1.3c1-0.9,1.7-2.1,2-3.8l1.5-7.3H403.8z"/>
	<path class="st2" d="M410.4,386h1.3l-3.8,19.1h-1.3L410.4,386z"/>
	<path class="st2" d="M427.9,391.7l-2.7,13.4H424l0.5-2.6c-0.7,0.9-1.5,1.5-2.4,2c-1,0.5-2,0.7-3.2,0.7c-1.8,0-3.2-0.5-4.2-1.5
		c-1.1-1-1.6-2.4-1.6-4.1c0-1.5,0.3-2.9,1-4.1c0.7-1.2,1.6-2.2,2.7-2.9c1.2-0.7,2.5-1,3.9-1c1.4,0,2.5,0.3,3.4,0.9
		c0.9,0.6,1.5,1.5,1.9,2.5l0.7-3.3H427.9z M422.4,403.2c1-0.6,1.7-1.4,2.3-2.4c0.5-1,0.8-2.2,0.8-3.5c0-1.4-0.4-2.5-1.2-3.3
		c-0.8-0.8-2-1.2-3.5-1.2c-1.2,0-2.3,0.3-3.2,0.9c-1,0.6-1.7,1.4-2.3,2.4c-0.5,1-0.8,2.2-0.8,3.5c0,1.4,0.4,2.5,1.2,3.3
		c0.8,0.8,2,1.2,3.5,1.2C420.3,404,421.4,403.7,422.4,403.2z"/>
	<path class="st2" d="M436.3,392.3c0.9-0.5,2.1-0.7,3.4-0.7l-0.2,1.3l-0.4,0c-1.5,0-2.8,0.5-3.8,1.4c-1,0.9-1.6,2.3-2,4l-1.4,6.9
		h-1.3l2.7-13.4h1.3l-0.6,2.8C434.6,393.5,435.4,392.8,436.3,392.3z"/>
	<path class="st2" d="M444.4,386h1.3l-3.8,19.1h-1.3L444.4,386z"/>
	<path class="st2" d="M460.8,391.7l-10,15.4c-0.8,1.2-1.5,2-2.1,2.4s-1.5,0.7-2.4,0.7c-0.6,0-1.2-0.1-1.7-0.3
		c-0.5-0.2-1-0.5-1.3-0.9l0.7-1c0.6,0.7,1.4,1,2.4,1c0.6,0,1.2-0.2,1.7-0.5c0.5-0.3,1-0.9,1.6-1.8l1.1-1.7l-3.4-13.4h1.3l3,12
		l7.8-12H460.8z"/>
	<path class="st2" d="M186.1,428.4l-2.7,13.4h-1.2l0.5-2.6c-0.7,0.9-1.5,1.5-2.4,2c-1,0.5-2,0.7-3.2,0.7c-1.8,0-3.2-0.5-4.2-1.5
		c-1.1-1-1.6-2.4-1.6-4.1c0-1.5,0.3-2.9,1-4.1c0.7-1.2,1.6-2.2,2.7-2.9c1.2-0.7,2.5-1,3.9-1c1.4,0,2.5,0.3,3.4,0.9
		c0.9,0.6,1.5,1.5,1.9,2.5l0.7-3.3H186.1z M180.6,439.9c1-0.6,1.7-1.4,2.3-2.4c0.5-1,0.8-2.2,0.8-3.5c0-1.4-0.4-2.5-1.2-3.3
		c-0.8-0.8-2-1.2-3.5-1.2c-1.2,0-2.3,0.3-3.2,0.9c-1,0.6-1.7,1.4-2.3,2.4c-0.5,1-0.8,2.2-0.8,3.5c0,1.4,0.4,2.5,1.2,3.3
		c0.8,0.8,2,1.2,3.5,1.2C178.5,440.8,179.6,440.5,180.6,439.9z"/>
	<path class="st2" d="M204.6,422.8l-3.8,19.1h-1.2l0.5-2.6c-0.7,0.9-1.5,1.5-2.4,2c-1,0.5-2,0.7-3.2,0.7c-1.8,0-3.2-0.5-4.2-1.5
		c-1.1-1-1.6-2.4-1.6-4.1c0-1.5,0.3-2.9,1-4.1c0.7-1.2,1.6-2.2,2.7-2.9c1.2-0.7,2.5-1,3.9-1c1.4,0,2.5,0.3,3.4,0.9
		c0.9,0.6,1.5,1.5,1.9,2.6l1.8-9H204.6z M197.9,439.9c1-0.6,1.7-1.4,2.3-2.4c0.5-1,0.8-2.2,0.8-3.5c0-1.4-0.4-2.5-1.2-3.3
		c-0.8-0.8-2-1.2-3.5-1.2c-1.2,0-2.3,0.3-3.2,0.9c-1,0.6-1.7,1.4-2.3,2.4c-0.5,1-0.8,2.2-0.8,3.5c0,1.4,0.4,2.5,1.2,3.3
		c0.8,0.8,2,1.2,3.5,1.2C195.9,440.8,197,440.5,197.9,439.9z"/>
	<path class="st2" d="M222,422.8l-3.8,19.1H217l0.5-2.6c-0.7,0.9-1.5,1.5-2.4,2c-1,0.5-2,0.7-3.2,0.7c-1.8,0-3.2-0.5-4.2-1.5
		c-1.1-1-1.6-2.4-1.6-4.1c0-1.5,0.3-2.9,1-4.1c0.7-1.2,1.6-2.2,2.7-2.9c1.2-0.7,2.5-1,3.9-1c1.4,0,2.5,0.3,3.4,0.9
		c0.9,0.6,1.5,1.5,1.9,2.6l1.8-9H222z M215.3,439.9c1-0.6,1.7-1.4,2.3-2.4c0.5-1,0.8-2.2,0.8-3.5c0-1.4-0.4-2.5-1.2-3.3
		c-0.8-0.8-2-1.2-3.5-1.2c-1.2,0-2.3,0.3-3.2,0.9c-1,0.6-1.7,1.4-2.3,2.4c-0.5,1-0.8,2.2-0.8,3.5c0,1.4,0.4,2.5,1.2,3.3
		c0.8,0.8,2,1.2,3.5,1.2C213.3,440.8,214.4,440.5,215.3,439.9z"/>
	<path class="st2" d="M224.7,435.4c0,0.4-0.1,0.7-0.1,0.8c0,1.5,0.4,2.6,1.3,3.4c0.8,0.8,2.1,1.2,3.7,1.2c0.9,0,1.8-0.2,2.6-0.5
		c0.8-0.3,1.5-0.8,2-1.3l0.6,0.9c-0.6,0.7-1.4,1.2-2.3,1.5c-0.9,0.4-1.9,0.5-3,0.5c-1.9,0-3.4-0.5-4.5-1.5c-1.1-1-1.6-2.4-1.6-4.1
		c0-1.5,0.3-2.9,1-4.1c0.6-1.2,1.5-2.2,2.6-2.9c1.1-0.7,2.4-1,3.8-1c1.8,0,3.1,0.5,4.2,1.5c1,1,1.5,2.4,1.5,4.1
		c0,0.4-0.1,0.9-0.2,1.5H224.7z M227,430.8c-1.1,0.9-1.7,2.1-2.1,3.6h10.3c0-0.2,0-0.4,0-0.7c0-1.4-0.4-2.4-1.2-3.2
		c-0.8-0.8-1.9-1.1-3.3-1.1C229.3,429.4,228,429.9,227,430.8z"/>
	<path class="st2" d="M254.8,422.8l-3.8,19.1h-1.2l0.5-2.6c-0.7,0.9-1.5,1.5-2.4,2c-1,0.5-2,0.7-3.2,0.7c-1.8,0-3.2-0.5-4.2-1.5
		c-1.1-1-1.6-2.4-1.6-4.1c0-1.5,0.3-2.9,1-4.1c0.7-1.2,1.6-2.2,2.7-2.9c1.2-0.7,2.5-1,3.9-1c1.4,0,2.5,0.3,3.4,0.9
		c0.9,0.6,1.5,1.5,1.9,2.6l1.8-9H254.8z M248.1,439.9c1-0.6,1.7-1.4,2.3-2.4c0.5-1,0.8-2.2,0.8-3.5c0-1.4-0.4-2.5-1.2-3.3
		c-0.8-0.8-2-1.2-3.5-1.2c-1.2,0-2.3,0.3-3.2,0.9c-1,0.6-1.7,1.4-2.3,2.4c-0.5,1-0.8,2.2-0.8,3.5c0,1.4,0.4,2.5,1.2,3.3
		c0.8,0.8,2,1.2,3.5,1.2C246.1,440.8,247.1,440.5,248.1,439.9z"/>
	<path class="st2" d="M265.3,438c-0.1,0.3-0.1,0.6-0.1,1c0,1.3,0.7,1.9,2.1,1.9c0.8,0,1.6-0.2,2.2-0.7l0.4,1
		c-0.7,0.6-1.7,0.9-2.9,0.9c-1,0-1.7-0.3-2.3-0.8s-0.8-1.2-0.8-2.1c0-0.4,0-0.7,0.1-1l1.7-8.5h-2.5l0.2-1.1h2.5l0.6-2.9h1.3
		l-0.6,2.9h4.3l-0.2,1.1H267L265.3,438z"/>
	<path class="st2" d="M274.2,440.4c-1.1-1-1.6-2.4-1.6-4.1c0-1.5,0.3-2.9,1-4.1c0.7-1.2,1.6-2.2,2.7-2.9c1.2-0.7,2.5-1.1,4-1.1
		c1.8,0,3.3,0.5,4.3,1.5c1.1,1,1.6,2.4,1.6,4.1c0,1.5-0.3,2.9-1,4.1c-0.7,1.2-1.6,2.2-2.7,2.9c-1.2,0.7-2.5,1-4,1
		C276.7,442,275.2,441.5,274.2,440.4z M281.8,439.9c1-0.6,1.7-1.4,2.3-2.4c0.5-1,0.8-2.2,0.8-3.5c0-1.4-0.4-2.5-1.2-3.3
		c-0.8-0.8-2-1.2-3.5-1.2c-1.2,0-2.3,0.3-3.2,0.9c-1,0.6-1.7,1.4-2.3,2.4c-0.5,1-0.8,2.2-0.8,3.5c0,1.4,0.4,2.5,1.2,3.3
		c0.8,0.8,2,1.2,3.5,1.2C279.8,440.8,280.9,440.5,281.8,439.9z"/>
	<path class="st2" d="M297.7,438c-0.1,0.3-0.1,0.6-0.1,1c0,1.3,0.7,1.9,2.1,1.9c0.8,0,1.6-0.2,2.2-0.7l0.4,1
		c-0.7,0.6-1.7,0.9-2.9,0.9c-1,0-1.7-0.3-2.3-0.8s-0.8-1.2-0.8-2.1c0-0.4,0-0.7,0.1-1l1.7-8.5h-2.5l0.2-1.1h2.5l0.6-2.9h1.3
		l-0.6,2.9h4.3l-0.2,1.1h-4.3L297.7,438z"/>
	<path class="st2" d="M318.1,429.5c0.8,0.8,1.2,1.8,1.2,3.2c0,0.5-0.1,1-0.2,1.5l-1.5,7.8h-1.3l1.5-7.8c0.1-0.4,0.1-0.8,0.1-1.3
		c0-1.1-0.3-1.9-1-2.5c-0.6-0.6-1.6-0.9-2.8-0.9c-1.5,0-2.8,0.4-3.9,1.3c-1,0.9-1.7,2.1-2,3.8l-1.5,7.3h-1.3l3.8-19.1h1.3l-1.6,8.2
		c1.3-1.7,3.1-2.6,5.5-2.6C316.1,428.3,317.3,428.7,318.1,429.5z"/>
	<path class="st2" d="M325.6,428.4h1.3l-2.7,13.4h-1.3L325.6,428.4z M326.3,424.9c-0.2-0.2-0.3-0.4-0.3-0.7c0-0.3,0.1-0.6,0.3-0.8
		c0.2-0.2,0.5-0.3,0.8-0.3c0.3,0,0.5,0.1,0.7,0.3s0.3,0.4,0.3,0.7c0,0.3-0.1,0.6-0.3,0.8c-0.2,0.2-0.5,0.3-0.8,0.3
		C326.7,425.2,326.5,425.1,326.3,424.9z"/>
	<path class="st2" d="M330.3,441.5c-1-0.3-1.7-0.7-2.2-1.2l0.7-1c0.5,0.5,1.2,0.9,2,1.1c0.8,0.3,1.7,0.4,2.6,0.4
		c1.4,0,2.5-0.2,3.2-0.7c0.8-0.5,1.1-1.2,1.1-2c0-0.5-0.2-0.9-0.5-1.2c-0.3-0.3-0.7-0.5-1.1-0.7c-0.4-0.1-1.1-0.3-1.9-0.5
		c-0.9-0.2-1.7-0.4-2.3-0.6c-0.6-0.2-1.1-0.5-1.5-1c-0.4-0.4-0.6-1-0.6-1.8c0-1.2,0.5-2.2,1.5-3c1-0.7,2.4-1.1,4.1-1.1
		c0.9,0,1.7,0.1,2.5,0.3c0.8,0.2,1.4,0.6,1.9,1l-0.6,1c-0.5-0.4-1.1-0.7-1.8-0.9c-0.7-0.2-1.4-0.3-2.1-0.3c-1.3,0-2.3,0.3-3.1,0.8
		c-0.8,0.5-1.1,1.2-1.1,2c0,0.5,0.2,0.9,0.5,1.2c0.3,0.3,0.7,0.5,1.2,0.7c0.5,0.2,1.1,0.3,1.9,0.5c0.9,0.2,1.7,0.4,2.2,0.6
		s1,0.5,1.4,0.9c0.4,0.4,0.6,1,0.6,1.8c0,1.3-0.5,2.2-1.6,3c-1,0.7-2.4,1.1-4.2,1.1C332.2,442,331.2,441.8,330.3,441.5z"/>
	<path class="st2" d="M352.3,422.8h1.3l-3.8,19.1h-1.3L352.3,422.8z"/>
	<path class="st2" d="M357.9,428.4h1.3l-2.7,13.4h-1.3L357.9,428.4z M358.7,424.9c-0.2-0.2-0.3-0.4-0.3-0.7c0-0.3,0.1-0.6,0.3-0.8
		c0.2-0.2,0.5-0.3,0.8-0.3c0.3,0,0.5,0.1,0.7,0.3c0.2,0.2,0.3,0.4,0.3,0.7c0,0.3-0.1,0.6-0.3,0.8c-0.2,0.2-0.5,0.3-0.8,0.3
		C359.1,425.2,358.9,425.1,358.7,424.9z"/>
	<path class="st2" d="M362.6,441.5c-1-0.3-1.7-0.7-2.2-1.2l0.7-1c0.5,0.5,1.2,0.9,2,1.1c0.8,0.3,1.7,0.4,2.6,0.4
		c1.4,0,2.5-0.2,3.2-0.7c0.8-0.5,1.1-1.2,1.1-2c0-0.5-0.2-0.9-0.5-1.2c-0.3-0.3-0.7-0.5-1.1-0.7c-0.4-0.1-1.1-0.3-1.9-0.5
		c-0.9-0.2-1.7-0.4-2.3-0.6c-0.6-0.2-1.1-0.5-1.5-1c-0.4-0.4-0.6-1-0.6-1.8c0-1.2,0.5-2.2,1.5-3c1-0.7,2.4-1.1,4.1-1.1
		c0.9,0,1.7,0.1,2.5,0.3c0.8,0.2,1.4,0.6,1.9,1l-0.6,1c-0.5-0.4-1.1-0.7-1.8-0.9c-0.7-0.2-1.4-0.3-2.2-0.3c-1.3,0-2.3,0.3-3.1,0.8
		c-0.8,0.5-1.1,1.2-1.1,2c0,0.5,0.2,0.9,0.5,1.2c0.3,0.3,0.7,0.5,1.2,0.7c0.5,0.2,1.1,0.3,1.9,0.5c0.9,0.2,1.7,0.4,2.2,0.6
		c0.6,0.2,1,0.5,1.4,0.9c0.4,0.4,0.6,1,0.6,1.8c0,1.3-0.5,2.2-1.6,3c-1,0.7-2.4,1.1-4.2,1.1C364.6,442,363.6,441.8,362.6,441.5z"/>
	<path class="st2" d="M376.6,438c-0.1,0.3-0.1,0.6-0.1,1c0,1.3,0.7,1.9,2.1,1.9c0.8,0,1.6-0.2,2.2-0.7l0.4,1
		c-0.7,0.6-1.7,0.9-2.9,0.9c-1,0-1.7-0.3-2.3-0.8s-0.8-1.2-0.8-2.1c0-0.4,0-0.7,0.1-1l1.7-8.5h-2.5l0.2-1.1h2.5l0.6-2.9h1.3
		l-0.6,2.9h4.3l-0.2,1.1h-4.3L376.6,438z"/>
	<path class="st2" d="M384.1,441.7c-0.2-0.2-0.3-0.5-0.3-0.7c0-0.3,0.1-0.6,0.3-0.8c0.2-0.2,0.5-0.3,0.8-0.3c0.3,0,0.5,0.1,0.7,0.3
		c0.2,0.2,0.3,0.5,0.3,0.7c0,0.3-0.1,0.6-0.3,0.8c-0.2,0.2-0.5,0.3-0.8,0.3C384.5,442,384.3,441.9,384.1,441.7z"/>
</g>
</svg>
