<?xml version="1.0" encoding="utf-8"?>
<!-- Generator: Adobe Illustrator 26.0.3, SVG Export Plug-In . SVG Version: 6.00 Build 0)  -->
<svg version="1.1" id="Layer_1" xmlns="http://www.w3.org/2000/svg" xmlns:xlink="http://www.w3.org/1999/xlink" x="0px" y="0px"
	 viewBox="0 0 60.1 17.6" style="enable-background:new 0 0 60.1 17.6;" xml:space="preserve">
<style type="text/css">
	.st0{fill:#F50057;}
	.st1{font-family:'Montserrat-SemiBold';}
	.st2{font-size:2.4751px;}
</style>
<path class="st0" d="M22.9,5.4c-0.8,0.3-1.7,1.3-2,2.5c-0.4,1.5,1.1,2.1,1.2,1.9c0.1-0.2-0.3-0.3-0.3-1.1c-0.1-1,0.4-2.1,1-2.6
	c0.1-0.1,0.1,0,0.1,0.3c0,0.4,0,4.2,0,5c0,1.1,0,1.4-0.1,1.7c-0.1,0.3-0.2,0.6-0.1,0.7c0.1,0.1,0.6-0.1,0.8-0.5
	c0.3-0.5,0.4-1,0.5-1.6c0-0.7,0-1.8,0-2.5c0-0.6,0-2.3,0-3.4C24,5.6,23.3,5.3,22.9,5.4 M51.4,10.4c0,0.6-0.2,1-0.3,1.3
	c-0.3,0.6-0.9,0.8-1.2-0.1c-0.1-0.5-0.2-1.2,0-1.9c0.1-0.7,0.4-1.2,0.9-1.1C51.3,8.7,51.5,9.3,51.4,10.4L51.4,10.4z M43.4,13.9
	c0,0.9-0.2,1.7-0.5,2c-0.4,0.3-1,0.1-0.9-0.6c0.1-0.6,0.6-1.2,1.4-2C43.4,13.3,43.4,13.5,43.4,13.9L43.4,13.9z M43.3,10.4
	c0,0.5-0.2,1-0.3,1.3c-0.3,0.6-0.9,0.8-1.2-0.1c-0.2-0.6-0.1-1.3,0-1.8c0.1-0.6,0.4-1.2,0.9-1.2C43.1,8.7,43.3,9.2,43.3,10.4
	L43.3,10.4z M38.6,10.4c0,0.5-0.1,1-0.3,1.3c-0.3,0.6-0.9,0.8-1.2-0.1c-0.2-0.6-0.1-1.5,0-1.9c0.1-0.7,0.4-1.1,0.9-1.1
	C38.5,8.7,38.7,9.3,38.6,10.4L38.6,10.4z M59.9,11.1c-0.1,0-0.2,0.1-0.2,0.3c-0.2,0.7-0.3,0.9-0.5,0.9c-0.2,0-0.4-0.3-0.5-1
	c0-0.5,0-1.6,0-2.6c0-0.2,0-0.4-0.6-0.6c-0.2-0.1-0.6-0.2-0.8,0.2c-0.5,1.2-0.7,2.1-0.7,2.5c0,0,0,0,0,0c0-0.3-0.1-0.8-0.1-2
	c0-0.2-0.1-0.4-0.3-0.6c-0.2-0.1-0.7-0.3-0.8-0.1c-0.2,0.2-0.3,0.6-0.5,1.2c-0.2,0.5-0.3,0.8-0.3,0.8s0-1.2,0-1.7
	c0-0.2-0.1-0.2-0.2-0.2C54.3,8,54,8,53.8,8c-0.2,0-0.2,0.1-0.2,0.2c0,0,0,1.6,0,2.7c0,0.1,0,0.1,0,0.2c-0.1,0.5-0.4,1.2-0.7,1.2
	s-0.5-0.3-0.5-1.6c0-0.8,0-1.1,0-1.7c0-0.3,0-0.6,0-0.6c0-0.2-0.3-0.3-0.4-0.3c-0.1,0-0.3,0-0.4,0c-0.1,0-0.2,0.1-0.2,0.2
	c0,0.1,0,0.2,0,0.2C51.3,8.2,51,8,50.8,7.9c-0.5-0.2-1,0-1.4,0.5c-0.3,0.4-0.5,0.9-0.6,1.6c-0.1,0.5,0,1,0.1,1.5
	c-0.1,0.5-0.3,0.7-0.6,0.7c-0.3,0-0.6-0.6-0.6-1.5c0-0.6,0.2-1.1,0.3-1.7c0.1-0.3,0-0.4-0.1-0.6c-0.1-0.1-0.3-0.2-0.7-0.1
	c-0.2,0.1-0.6,0.1-0.9,0.2c0,0,0-0.1,0-0.2c0.1-0.7-0.7-0.6-0.9-0.4c-0.2,0.1-0.2,0.3-0.3,0.6c-0.1,0.5,0.3,0.7,0.3,0.7
	c-0.1,0.6-0.4,1.3-0.7,1.8c-0.2,0.3-0.3,0.5-0.5,0.7c0-0.1,0-0.2,0-0.2c0-1.2,0-2.1,0-2.4c0-0.3,0-0.6,0-0.6c0-0.1-0.1-0.2-0.2-0.2
	c-0.1-0.1-0.3-0.1-0.5-0.1c-0.2,0-0.3,0.1-0.3,0.2c0,0,0,0.2,0,0.2c-0.2-0.3-0.5-0.5-0.6-0.5c-0.5-0.2-1,0-1.4,0.5
	c-0.3,0.4-0.5,1.1-0.6,1.6c-0.1,0.5,0,1,0,1.4c-0.1,0.4-0.3,0.8-0.6,0.8c-0.3,0-0.5-0.3-0.5-1.6c0-0.8,0-1.1,0-1.7
	c0-0.3,0-0.6,0-0.6c0-0.2-0.3-0.3-0.4-0.3c-0.2,0-0.3,0-0.4,0c-0.1,0-0.2,0.1-0.2,0.2v0.2C38.5,8.2,38.2,8,38,7.9
	c-0.5-0.2-1,0-1.4,0.5c-0.3,0.4-0.5,0.8-0.6,1.6c0,0.3,0,0.5,0,0.7c-0.1,0.6-0.6,1.4-0.9,1.4c-0.2,0-0.4-0.4-0.4-1.3
	c0-1.2,0.1-2.9,0.1-3.1c0,0,0.5,0,0.6,0c0.2,0,0.5,0,0.8,0c0.2,0,0.3-0.6,0.2-0.6c-0.1,0-0.6-0.1-0.8-0.1c-0.2,0-0.7,0-0.7,0
	s0-1.1,0.1-1.3c0-0.1-0.1-0.2-0.2-0.2c-0.2-0.1-0.3-0.1-0.5-0.2c-0.3-0.1-0.4,0-0.4,0.2C33.6,6,33.6,7,33.6,7c-0.2,0-0.9,0-1.1,0
	c-0.2,0-0.4,0.8-0.1,0.8c0.3,0,0.8,0,1.1,0c0,0,0,1.7,0,2.3c0,0.1,0,0.1,0,0.2c-0.2,0.9-0.8,1.5-0.8,1.5c0.1-0.6-0.1-1.1-0.6-1.5
	c-0.2-0.2-0.6-0.4-1-0.7c0,0,0.2-0.2,0.5-0.7c0.2-0.3,0.2-0.7-0.2-0.8c-0.6-0.1-1.1,0.3-1.3,0.8C29.9,9,30,9.3,30.2,9.6
	c0,0,0,0,0.1,0.1c-0.1,0.3-0.3,0.6-0.5,0.9c-0.4,0.8-0.8,1.4-1,1.4c-0.2,0-0.2-0.6-0.2-1.2c0-0.5,0-1.2,0.1-2c0-0.3-0.1-0.4-0.3-0.5
	c-0.1-0.1-0.4-0.2-0.6-0.2c-0.2,0-0.9,0-1.6,1.9c-0.1,0.2-0.2,0.7-0.2,0.7l0-2.3c0-0.1,0-0.1-0.1-0.1c-0.1-0.1-0.4-0.2-0.7-0.2
	C25,7.9,25,8,25,8.1l0,3.6c0,0.3,0,0.6,0,0.7s0.1,0.2,0.1,0.3c0.1,0.1,0.1,0.1,0.2,0.1c0.1,0,0.6,0.1,0.6-0.1c0-0.2,0-0.5,0.3-1.5
	c0.4-1.5,1-2.2,1.2-2.5c0,0,0.1,0,0.1,0c0,0.3-0.1,1.1-0.1,1.8c-0.1,1.9,0.3,2.2,0.8,2.2c0.4,0,0.9-0.4,1.5-1.3
	c0.4-0.6,0.7-1.1,0.9-1.6c0.2,0.2,0.4,0.3,0.5,0.5c0.4,0.4,0.6,0.8,0.5,1.2c-0.1,0.3-0.4,0.6-0.8,0.3c-0.1-0.1-0.2-0.2-0.4-0.2
	c-0.1-0.1-0.2-0.1-0.3,0c-0.2,0.1-0.3,0.3-0.4,0.5c-0.1,0.2,0.2,0.3,0.4,0.4c0.2,0.1,0.6,0.2,0.9,0.2c1,0,1.8-0.5,2.4-1.9
	c0.1,1.2,0.5,1.8,1.3,1.8c0.5,0,1-0.7,1.2-1.3c0.1,0.3,0.2,0.5,0.3,0.7c0.6,0.9,1.7,0.7,2.3-0.1c0.2-0.2,0.2-0.3,0.2-0.3
	c0.1,0.7,0.7,1,1,1c0.4,0,0.8-0.2,1.1-0.8c0,0.1,0.1,0.1,0.1,0.2c0.6,0.9,1.7,0.7,2.3-0.1c0,0,0.1-0.1,0.1-0.1l0,0.5
	c0,0-0.3,0.3-0.5,0.5c-0.9,0.8-1.5,1.4-1.6,2.1c-0.1,0.9,0.7,1.2,1.2,1.3c0.6,0,1.1-0.3,1.4-0.7c0.3-0.4,0.5-1.3,0.4-2.1
	c0-0.3,0-0.8,0-1.2c0.3-0.4,0.7-0.8,1-1.3c0.3-0.6,0.7-1.3,0.9-1.9c0,0,0.3,0,0.7,0c0.1,0,0.1,0,0.1,0.1c0,0.1-0.4,1.7-0.1,2.7
	c0.3,0.7,0.8,1,1.2,1c0.4,0,0.8-0.3,1-0.8c0,0.1,0.1,0.1,0.1,0.1c0.6,0.9,1.7,0.7,2.3-0.1c0.1-0.2,0.2-0.3,0.2-0.3
	c0.1,0.8,0.7,1,1.1,1c0.4,0,0.7-0.2,1-0.8c0,0.3,0,0.5,0.1,0.6c0,0,0.1,0.1,0.2,0.1c0.3,0.1,0.7,0.1,0.8,0c0.1,0,0.2-0.1,0.2-0.3
	c0-0.5,0-1.2,0.2-1.8c0.2-1,0.5-1.3,0.6-1.5c0.1-0.1,0.1-0.1,0.1,0c0,0.2,0,0.9,0.1,1.7c0.1,0.6,0.2,1,0.2,1.1
	c0.2,0.3,0.4,0.4,0.6,0.4c0.1,0,0.4,0,0.4-0.3c0-0.1,0-0.8,0.2-1.7c0.2-0.6,0.4-1.2,0.5-1.4c0-0.1,0.1,0,0.1,0
	c0,0.4-0.1,1.8,0.1,2.6c0.2,1,0.9,1.1,1.2,1.1c0.5,0,0.9-0.4,1.1-1.4C60.1,11.3,60.1,11.1,59.9,11.1"/>
<path class="st0" d="M5.8,8.8c0-1.6,1.3-2.9,2.9-2.9s2.9,1.3,2.9,2.9s-1.3,2.9-2.9,2.9S5.8,10.4,5.8,8.8 M4.2,8.8
	c0,2.5,2,4.5,4.5,4.5s4.5-2,4.5-4.5s-2-4.5-4.5-4.5S4.2,6.3,4.2,8.8 M12.4,4.1c0,0.6,0.5,1.1,1.1,1.1s1.1-0.5,1.1-1.1
	S14,3.1,13.4,3.1S12.4,3.5,12.4,4.1 M5.2,16c-0.9,0-1.3-0.2-1.6-0.3c-0.4-0.2-0.7-0.4-1-0.7c-0.3-0.3-0.5-0.6-0.7-1
	c-0.1-0.3-0.3-0.8-0.3-1.6c-0.1-0.9-0.1-1.2-0.1-3.6s0-2.6,0.1-3.6c0-0.9,0.2-1.3,0.3-1.6c0.2-0.4,0.4-0.7,0.7-1s0.6-0.5,1-0.7
	c0.3-0.1,0.8-0.3,1.6-0.3c0.9,0,1.2-0.1,3.6-0.1s2.6,0,3.6,0.1c0.9,0,1.3,0.2,1.6,0.3c0.4,0.2,0.7,0.4,1,0.7c0.3,0.3,0.5,0.6,0.7,1
	c0.1,0.3,0.3,0.8,0.3,1.6c0,0.9,0,1.2,0,3.6s0,2.6-0.1,3.6c0,0.9-0.2,1.3-0.3,1.6c-0.2,0.4-0.4,0.7-0.7,1c-0.3,0.3-0.6,0.5-1,0.7
	c-0.3,0.1-0.8,0.3-1.6,0.3c-0.9,0-1.2,0.1-3.6,0.1C6.4,16,6.1,16,5.2,16 M5.1,0.1C4.2,0.1,3.5,0.2,3,0.5C2.4,0.7,1.9,1,1.4,1.5
	s-0.8,1-1,1.6C0.2,3.6,0,4.2,0,5.2c0,0.9-0.1,1.2-0.1,3.6s0,2.7,0.1,3.6c0,0.9,0.2,1.6,0.4,2.1c0.2,0.6,0.5,1.1,1,1.6
	c0.5,0.5,1,0.8,1.6,1c0.6,0.2,1.2,0.4,2.1,0.4c0.9,0,1.2,0.1,3.6,0.1s2.7,0,3.6-0.1c0.9,0,1.6-0.2,2.1-0.4c0.6-0.2,1.1-0.5,1.6-1
	c0.5-0.5,0.8-1,1-1.6c0.2-0.6,0.4-1.2,0.4-2.1c0-0.9,0.1-1.2,0.1-3.6s0-2.7-0.1-3.6c0-0.9-0.2-1.6-0.4-2.1c-0.2-0.6-0.5-1.1-1-1.6
	c-0.5-0.5-1-0.8-1.6-1c-0.6-0.2-1.2-0.4-2.1-0.4C11.4,0,11.1,0,8.8,0C6.4,0,6.1,0,5.1,0.1"/>
<text transform="matrix(1 0 0 1 38.6102 5.3955)" class="st0 st1 st2">FOLLOW US ON</text>
</svg>
