<?xml version="1.0" encoding="utf-8"?>
<!-- Generator: Adobe Illustrator 26.0.3, SVG Export Plug-In . SVG Version: 6.00 Build 0)  -->
<svg version="1.1" id="Layer_1" xmlns="http://www.w3.org/2000/svg" xmlns:xlink="http://www.w3.org/1999/xlink" x="0px" y="0px"
	 viewBox="0 0 100 100" style="enable-background:new 0 0 100 100;" xml:space="preserve" fill="#F50057">
<path d="M33.1,50c0-9.2,7.5-16.7,16.7-16.7S66.6,40.8,66.6,50s-7.5,16.7-16.7,16.7S33.1,59.2,33.1,50 M24.1,50
	c0,14.2,11.5,25.8,25.8,25.8S75.6,64.2,75.6,50S64.1,24.2,49.8,24.2S24.1,35.8,24.1,50 M70.6,23.2c0,3.3,2.7,6,6,6c3.3,0,6-2.7,6-6
	s-2.7-6-6-6S70.6,19.9,70.6,23.2 M29.6,90.8c-4.9-0.2-7.6-1-9.3-1.7c-2.3-0.9-4-2-5.8-3.8c-1.8-1.8-2.8-3.4-3.8-5.8
	C10,77.8,9.2,75.2,9,70.3C8.7,65,8.7,63.4,8.7,50S8.7,35,9,29.7c0.2-4.9,1-7.5,1.7-9.3c0.9-2.3,2-4,3.8-5.8c1.8-1.8,3.4-2.8,5.8-3.8
	c1.8-0.7,4.4-1.5,9.3-1.7c5.3-0.2,6.9-0.3,20.3-0.3c13.4,0,15,0.1,20.3,0.3c4.9,0.2,7.5,1,9.3,1.7c2.3,0.9,4,2,5.8,3.8
	c1.8,1.8,2.8,3.4,3.8,5.8c0.7,1.8,1.5,4.4,1.7,9.3C90.9,35,91,36.6,91,50c0,13.4,0,15-0.3,20.3c-0.2,4.9-1,7.6-1.7,9.3
	c-0.9,2.3-2,4-3.8,5.8s-3.4,2.8-5.8,3.8c-1.8,0.7-4.4,1.5-9.3,1.7c-5.3,0.2-6.9,0.3-20.3,0.3C36.4,91.1,34.8,91.1,29.6,90.8
	 M29.1,0.1c-5.3,0.2-9,1.1-12.2,2.3c-3.3,1.3-6.1,3-8.9,5.8c-2.8,2.8-4.5,5.6-5.8,8.9C1,20.3,0.2,24,0,29.3
	c-0.2,5.4-0.3,7.1-0.3,20.7S-0.3,65.3,0,70.7c0.2,5.3,1.1,9,2.3,12.2c1.3,3.3,3,6.1,5.8,8.9c2.8,2.8,5.6,4.5,8.9,5.8
	c3.2,1.2,6.8,2.1,12.2,2.3c5.4,0.2,7.1,0.3,20.7,0.3c13.6,0,15.3-0.1,20.7-0.3c5.3-0.2,9-1.1,12.2-2.3c3.3-1.3,6.1-3,8.9-5.8
	c2.8-2.8,4.5-5.6,5.8-8.9c1.2-3.2,2.1-6.8,2.3-12.2c0.2-5.4,0.3-7.1,0.3-20.7s-0.1-15.3-0.3-20.7c-0.2-5.3-1.1-9-2.3-12.2
	c-1.3-3.3-3-6.1-5.8-8.9c-2.8-2.8-5.6-4.5-8.9-5.8c-3.2-1.2-6.8-2.1-12.2-2.3c-5.4-0.2-7.1-0.3-20.7-0.3C36.2-0.2,34.5-0.1,29.1,0.1
	"/>
</svg>
