<?xml version="1.0" encoding="utf-8"?>
<!-- Generator: Adobe Illustrator 26.5.0, SVG Export Plug-In . SVG Version: 6.00 Build 0)  -->
<svg version="1.1" id="Layer_1" xmlns="http://www.w3.org/2000/svg" xmlns:xlink="http://www.w3.org/1999/xlink" x="0px" y="0px"
	 viewBox="0 0 262.3 60" style="enable-background:new 0 0 262.3 60;" xml:space="preserve">
<style type="text/css">
	.st0{fill:#37474F;}
	.st1{fill:#F50057;}
</style>
<g>
	<path class="st0" d="M70.2,40.3c-1.7-0.4-3-0.9-4-1.6l2.1-5c0.9,0.6,2,1.1,3.3,1.4c1.3,0.3,2.5,0.5,3.8,0.5c1.2,0,2-0.1,2.5-0.4
		c0.5-0.2,0.7-0.6,0.7-1.1s-0.3-0.8-0.9-1s-1.5-0.4-2.8-0.6c-1.6-0.2-3-0.5-4.2-0.8c-1.1-0.3-2.1-1-3-1.9c-0.8-0.9-1.2-2.2-1.2-3.8
		c0-1.3,0.4-2.5,1.2-3.6c0.8-1,1.9-1.9,3.4-2.5s3.3-0.9,5.4-0.9c1.5,0,2.9,0.2,4.4,0.5s2.7,0.7,3.7,1.3l-2.1,5
		c-1.8-1-3.8-1.5-5.9-1.5c-1.1,0-2,0.1-2.5,0.4s-0.8,0.6-0.8,1.1s0.3,0.8,0.9,1s1.5,0.4,2.9,0.6c1.7,0.3,3.1,0.6,4.2,0.9
		s2.1,0.9,2.9,1.8s1.2,2.1,1.2,3.7c0,1.3-0.4,2.5-1.2,3.5c-0.8,1-1.9,1.9-3.4,2.4c-1.5,0.6-3.3,0.9-5.5,0.9
		C73.6,41,71.9,40.8,70.2,40.3z"/>
	<path class="st0" d="M92.8,39.5c-1.8-0.9-3.2-2.2-4.2-3.9c-1-1.6-1.5-3.5-1.5-5.6s0.5-3.9,1.5-5.6c1-1.6,2.4-2.9,4.2-3.8
		c1.8-0.9,3.8-1.4,6.1-1.4c2.3,0,4.3,0.5,6,1.5s2.9,2.4,3.6,4.2l-5.5,2.9c-0.9-1.9-2.3-2.8-4.1-2.8c-1.3,0-2.3,0.4-3.2,1.3
		c-0.8,0.9-1.3,2.1-1.3,3.6c0,1.6,0.4,2.8,1.3,3.7c0.8,0.9,1.9,1.3,3.2,1.3c1.8,0,3.1-0.9,4.1-2.8l5.5,2.9c-0.7,1.8-1.9,3.2-3.6,4.2
		s-3.7,1.5-6,1.5C96.6,41,94.6,40.5,92.8,39.5z"/>
	<path class="st0" d="M131.7,32h-14.8c0.3,1.1,0.9,1.9,1.8,2.5s2,0.9,3.3,0.9c1,0,1.8-0.1,2.5-0.4c0.7-0.3,1.4-0.7,2.2-1.4l3.8,4
		c-2,2.3-4.9,3.4-8.7,3.4c-2.4,0-4.5-0.5-6.3-1.4s-3.2-2.2-4.2-3.9c-1-1.6-1.5-3.5-1.5-5.6s0.5-3.9,1.4-5.5c1-1.6,2.3-2.9,4-3.8
		s3.6-1.4,5.8-1.4c2,0,3.9,0.4,5.5,1.3c1.7,0.9,3,2.1,3.9,3.7c1,1.6,1.4,3.6,1.4,5.8C131.8,30.2,131.8,30.8,131.7,32z M118.2,25.5
		c-0.7,0.6-1.2,1.5-1.4,2.6h8.4c-0.2-1.1-0.7-2-1.4-2.6c-0.7-0.6-1.7-1-2.8-1C119.8,24.5,118.9,24.8,118.2,25.5z"/>
	<path class="st0" d="M154.5,21.6c1.5,1.5,2.3,3.9,2.3,7v12h-7.2V29.8c0-2.9-1.1-4.3-3.4-4.3c-1.2,0-2.2,0.4-3,1.2
		c-0.7,0.8-1.1,2.1-1.1,3.7v10.1h-7.2V19.8h6.8V22c0.8-0.8,1.8-1.5,2.9-1.9c1.1-0.4,2.3-0.7,3.6-0.7C150.9,19.3,153,20.1,154.5,21.6
		z"/>
	<path class="st0" d="M182.4,32h-14.8c0.3,1.1,0.9,1.9,1.8,2.5c0.9,0.6,2,0.9,3.3,0.9c1,0,1.8-0.1,2.5-0.4c0.7-0.3,1.4-0.7,2.2-1.4
		l3.8,4c-2,2.3-4.9,3.4-8.7,3.4c-2.4,0-4.5-0.5-6.3-1.4s-3.2-2.2-4.2-3.9c-1-1.6-1.5-3.5-1.5-5.6s0.5-3.9,1.4-5.5
		c1-1.6,2.3-2.9,4-3.8s3.6-1.4,5.8-1.4c2,0,3.9,0.4,5.5,1.3c1.7,0.9,3,2.1,3.9,3.7c1,1.6,1.4,3.6,1.4,5.8
		C182.5,30.2,182.5,30.8,182.4,32z M168.8,25.5c-0.7,0.6-1.2,1.5-1.4,2.6h8.4c-0.2-1.1-0.7-2-1.4-2.6s-1.7-1-2.8-1
		S169.6,24.8,168.8,25.5z"/>
	<path class="st0" d="M202.5,21.4c1.5,0.9,2.7,2.1,3.5,3.6c0.9,1.6,1.3,3.4,1.3,5.4s-0.4,3.8-1.3,5.4c-0.9,1.6-2,2.8-3.5,3.6
		c-1.5,0.9-3.2,1.3-5.1,1.3c-1.6,0-3.1-0.3-4.3-1c-1.3-0.7-2.4-1.7-3.2-3V48h-2.7V20.3h2.6v4c0.8-1.3,1.9-2.4,3.2-3.1
		s2.8-1.1,4.5-1.1C199.3,20.1,201,20.6,202.5,21.4z M201,37.3c1.1-0.7,2-1.6,2.7-2.8c0.6-1.2,1-2.6,1-4.1s-0.3-2.9-1-4.1
		c-0.6-1.2-1.5-2.1-2.7-2.8c-1.1-0.7-2.4-1-3.8-1c-1.4,0-2.7,0.3-3.8,1s-2,1.6-2.6,2.8c-0.6,1.2-1,2.6-1,4.1s0.3,2.9,1,4.1
		c0.6,1.2,1.5,2.1,2.6,2.8s2.4,1,3.8,1S199.9,38,201,37.3z"/>
	<path class="st0" d="M212.7,15.3c-0.4-0.4-0.6-0.8-0.6-1.4c0-0.5,0.2-1,0.6-1.4c0.4-0.4,0.8-0.6,1.4-0.6c0.6,0,1,0.2,1.4,0.6
		c0.4,0.4,0.6,0.8,0.6,1.3c0,0.6-0.2,1-0.6,1.4c-0.4,0.4-0.8,0.6-1.4,0.6C213.6,15.8,213.1,15.6,212.7,15.3z M212.8,20.3h2.7v20.3
		h-2.7V20.3z"/>
	<path class="st0" d="M225.8,39.5c-1.5-0.9-2.8-2.1-3.6-3.7c-0.9-1.6-1.3-3.4-1.3-5.3c0-2,0.4-3.8,1.3-5.3c0.9-1.6,2.1-2.8,3.6-3.7
		c1.5-0.9,3.3-1.3,5.3-1.3c1.7,0,3.2,0.3,4.6,1c1.3,0.7,2.4,1.7,3.2,3l-2,1.4c-0.7-1-1.5-1.8-2.5-2.3s-2.1-0.8-3.3-0.8
		c-1.4,0-2.7,0.3-3.9,1c-1.1,0.7-2,1.6-2.7,2.8c-0.6,1.2-1,2.6-1,4.1c0,1.6,0.3,3,1,4.1c0.6,1.2,1.5,2.1,2.7,2.8
		c1.1,0.7,2.4,1,3.9,1c1.2,0,2.3-0.2,3.3-0.7s1.8-1.2,2.5-2.2l2,1.4c-0.8,1.3-1.8,2.3-3.2,3s-2.9,1-4.6,1
		C229.1,40.8,227.4,40.3,225.8,39.5z"/>
	<path class="st0" d="M251.1,30.4l-4.7,4.4v5.8h-2.7V11.9h2.7v19.4l11.8-11.1h3.3l-8.5,8.3l9.3,12H259L251.1,30.4z"/>
</g>
<path class="st1" d="M26,0L0.1,15v30l25.9,15l25.9-15V15L26,0z M29.7,8.5c1.2,0.7,2.1,1.6,2.7,2.7L26,15l-6.5-3.7
	C21.6,7.7,26.2,6.4,29.7,8.5z M13,44.9c-1.3,0-2.6-0.3-3.7-1c-3.6-2.1-4.8-6.6-2.7-10.2l6.5,3.7V44.9z M13,29.9
	c-1.3,0-2.6-0.3-3.7-1c-3.6-2.1-4.8-6.6-2.7-10.2c2.1-3.6,6.6-4.8,10.2-2.7c1.2,0.7,2.1,1.6,2.7,2.7L13,22.5L13,29.9z M26,52.4
	c-4.1,0-7.5-3.4-7.5-7.5c0-1.4,0.4-2.6,1-3.7l6.5,3.7l6.5-3.7c0.6,1.1,1,2.4,1,3.7C33.5,49.1,30.1,52.4,26,52.4z M26,37.4
	c-4.1,0-7.5-3.4-7.5-7.5c0-4.1,3.4-7.5,7.5-7.5s7.5,3.4,7.5,7.5C33.5,34.1,30.1,37.4,26,37.4z M39,44.9v-7.5l6.5-3.7
	c0.6,1.1,1,2.4,1,3.7C46.4,41.6,43.1,44.9,39,44.9z M42.7,28.9c-1.2,0.7-2.5,1-3.7,1v-7.5l-6.5-3.7c0.6-1.1,1.6-2.1,2.7-2.7
	c3.6-2.1,8.2-0.8,10.2,2.7C47.5,22.3,46.3,26.9,42.7,28.9z"/>
</svg>
