<?xml version="1.0" encoding="utf-8"?>
<!-- Generator: Adobe Illustrator 26.1.0, SVG Export Plug-In . SVG Version: 6.00 Build 0)  -->
<svg version="1.1" id="Layer_1" xmlns="http://www.w3.org/2000/svg" xmlns:xlink="http://www.w3.org/1999/xlink" x="0px" y="0px"
	 viewBox="0 0 343.9 60" style="enable-background:new 0 0 343.9 60;" xml:space="preserve">
<style type="text/css">
	.st0{fill:#F50057;}
	.st1{fill:#37474F;}
	.st2{fill:#ECEFF1;}
	.st3{fill:#78909D;}
</style>
<path class="st0" d="M49,13.3L29,1.7L26,0l-3,1.7L3,13.3L0,15v3.5v23.1V45l3,1.7l20,11.5l3,1.7l3-1.7l20-11.5l3-1.7v-3.5v-23V15
	L49,13.3z M44.8,41L27.1,51.1V30.8l17.7-10.2C44.8,20.5,44.8,41,44.8,41z M7.2,20.5l17.7,10.2v20.4L7.2,41V20.5z M8.3,18.5L26,8.3
	l17.7,10.2L26,28.8L8.3,18.5z"/>
<g>
	<path class="st1" d="M70.2,40.3c-1.7-0.4-3-0.9-4-1.6l2.1-5c0.9,0.6,2,1.1,3.3,1.4c1.3,0.3,2.5,0.5,3.8,0.5c1.2,0,2-0.1,2.5-0.4
		c0.5-0.2,0.7-0.6,0.7-1.1s-0.3-0.8-0.9-1s-1.5-0.4-2.8-0.6c-1.6-0.2-3-0.5-4.2-0.8c-1.1-0.3-2.1-1-3-1.9c-0.8-0.9-1.2-2.2-1.2-3.8
		c0-1.3,0.4-2.5,1.2-3.6c0.8-1,1.9-1.9,3.4-2.5s3.3-0.9,5.4-0.9c1.5,0,2.9,0.2,4.4,0.5s2.7,0.7,3.7,1.3l-2.1,5
		c-1.8-1-3.8-1.5-5.9-1.5c-1.1,0-2,0.1-2.5,0.4s-0.8,0.6-0.8,1.1s0.3,0.8,0.9,1s1.5,0.4,2.9,0.6c1.7,0.3,3.1,0.6,4.2,0.9
		s2.1,0.9,2.9,1.8s1.2,2.1,1.2,3.7c0,1.3-0.4,2.5-1.2,3.5c-0.8,1-1.9,1.9-3.4,2.4c-1.5,0.6-3.3,0.9-5.5,0.9
		C73.6,41,71.9,40.8,70.2,40.3z"/>
	<path class="st1" d="M92.8,39.5c-1.8-0.9-3.2-2.2-4.2-3.9c-1-1.6-1.5-3.5-1.5-5.6s0.5-3.9,1.5-5.6c1-1.6,2.4-2.9,4.2-3.8
		c1.8-0.9,3.8-1.4,6.1-1.4c2.3,0,4.3,0.5,6,1.5s2.9,2.4,3.6,4.2l-5.5,2.9c-0.9-1.9-2.3-2.8-4.1-2.8c-1.3,0-2.3,0.4-3.2,1.3
		c-0.8,0.9-1.3,2.1-1.3,3.6c0,1.6,0.4,2.8,1.3,3.7c0.8,0.9,1.9,1.3,3.2,1.3c1.8,0,3.1-0.9,4.1-2.8l5.5,2.9c-0.7,1.8-1.9,3.2-3.6,4.2
		s-3.7,1.5-6,1.5C96.6,41,94.6,40.5,92.8,39.5z"/>
	<path class="st1" d="M131.7,32h-14.8c0.3,1.1,0.9,1.9,1.8,2.5s2,0.9,3.3,0.9c1,0,1.8-0.1,2.5-0.4c0.7-0.3,1.4-0.7,2.2-1.4l3.8,4
		c-2,2.3-4.9,3.4-8.7,3.4c-2.4,0-4.5-0.5-6.3-1.4s-3.2-2.2-4.2-3.9c-1-1.6-1.5-3.5-1.5-5.6s0.5-3.9,1.4-5.5c1-1.6,2.3-2.9,4-3.8
		s3.6-1.4,5.8-1.4c2,0,3.9,0.4,5.5,1.3c1.7,0.9,3,2.1,3.9,3.7c1,1.6,1.4,3.6,1.4,5.8C131.8,30.2,131.8,30.8,131.7,32z M118.2,25.5
		c-0.7,0.6-1.2,1.5-1.4,2.6h8.4c-0.2-1.1-0.7-2-1.4-2.6c-0.7-0.6-1.7-1-2.8-1C119.8,24.5,118.9,24.8,118.2,25.5z"/>
	<path class="st1" d="M154.5,21.6c1.5,1.5,2.3,3.9,2.3,7v12h-7.2V29.8c0-2.9-1.1-4.3-3.4-4.3c-1.2,0-2.2,0.4-3,1.2
		c-0.7,0.8-1.1,2.1-1.1,3.7v10.1h-7.2V19.8h6.8V22c0.8-0.8,1.8-1.5,2.9-1.9c1.1-0.4,2.3-0.7,3.6-0.7C150.9,19.3,153,20.1,154.5,21.6
		z"/>
	<path class="st1" d="M182.4,32h-14.8c0.3,1.1,0.9,1.9,1.8,2.5c0.9,0.6,2,0.9,3.3,0.9c1,0,1.8-0.1,2.5-0.4c0.7-0.3,1.4-0.7,2.2-1.4
		l3.8,4c-2,2.3-4.9,3.4-8.7,3.4c-2.4,0-4.5-0.5-6.3-1.4s-3.2-2.2-4.2-3.9c-1-1.6-1.5-3.5-1.5-5.6s0.5-3.9,1.4-5.5
		c1-1.6,2.3-2.9,4-3.8s3.6-1.4,5.8-1.4c2,0,3.9,0.4,5.5,1.3c1.7,0.9,3,2.1,3.9,3.7c1,1.6,1.4,3.6,1.4,5.8
		C182.5,30.2,182.5,30.8,182.4,32z M168.8,25.5c-0.7,0.6-1.2,1.5-1.4,2.6h8.4c-0.2-1.1-0.7-2-1.4-2.6s-1.7-1-2.8-1
		S169.6,24.8,168.8,25.5z"/>
	<path class="st1" d="M202.5,21.4c1.5,0.9,2.7,2.1,3.5,3.6c0.9,1.6,1.3,3.4,1.3,5.4s-0.4,3.8-1.3,5.4c-0.9,1.6-2,2.8-3.5,3.6
		c-1.5,0.9-3.2,1.3-5.1,1.3c-1.6,0-3.1-0.3-4.3-1c-1.3-0.7-2.4-1.7-3.2-3V48h-2.7V20.3h2.6v4c0.8-1.3,1.9-2.4,3.2-3.1
		s2.8-1.1,4.5-1.1C199.3,20.1,201,20.6,202.5,21.4z M201,37.3c1.1-0.7,2-1.6,2.7-2.8c0.6-1.2,1-2.6,1-4.1s-0.3-2.9-1-4.1
		c-0.6-1.2-1.5-2.1-2.7-2.8c-1.1-0.7-2.4-1-3.8-1c-1.4,0-2.7,0.3-3.8,1s-2,1.6-2.6,2.8c-0.6,1.2-1,2.6-1,4.1s0.3,2.9,1,4.1
		c0.6,1.2,1.5,2.1,2.6,2.8s2.4,1,3.8,1S199.9,38,201,37.3z"/>
	<path class="st1" d="M212.7,15.3c-0.4-0.4-0.6-0.8-0.6-1.4c0-0.5,0.2-1,0.6-1.4c0.4-0.4,0.8-0.6,1.4-0.6c0.6,0,1,0.2,1.4,0.6
		c0.4,0.4,0.6,0.8,0.6,1.3c0,0.6-0.2,1-0.6,1.4c-0.4,0.4-0.8,0.6-1.4,0.6C213.6,15.8,213.1,15.6,212.7,15.3z M212.8,20.3h2.7v20.3
		h-2.7V20.3z"/>
	<path class="st1" d="M225.8,39.5c-1.5-0.9-2.8-2.1-3.6-3.7c-0.9-1.6-1.3-3.4-1.3-5.3c0-2,0.4-3.8,1.3-5.3c0.9-1.6,2.1-2.8,3.6-3.7
		c1.5-0.9,3.3-1.3,5.3-1.3c1.7,0,3.2,0.3,4.6,1c1.3,0.7,2.4,1.7,3.2,3l-2,1.4c-0.7-1-1.5-1.8-2.5-2.3s-2.1-0.8-3.3-0.8
		c-1.4,0-2.7,0.3-3.9,1c-1.1,0.7-2,1.6-2.7,2.8c-0.6,1.2-1,2.6-1,4.1c0,1.6,0.3,3,1,4.1c0.6,1.2,1.5,2.1,2.7,2.8
		c1.1,0.7,2.4,1,3.9,1c1.2,0,2.3-0.2,3.3-0.7s1.8-1.2,2.5-2.2l2,1.4c-0.8,1.3-1.8,2.3-3.2,3s-2.9,1-4.6,1
		C229.1,40.8,227.4,40.3,225.8,39.5z"/>
	<path class="st1" d="M251.1,30.4l-4.7,4.4v5.8h-2.7V11.9h2.7v19.4l11.8-11.1h3.3l-8.5,8.3l9.3,12H259L251.1,30.4z"/>
</g>
<path class="st2" d="M288.5,45h40.4c8.3,0,15-6.7,15-15v0c0-8.3-6.7-15-15-15h-40.4c-8.3,0-15,6.7-15,15v0
	C273.5,38.3,280.2,45,288.5,45z"/>
<g>
	<path class="st3" d="M294.9,26.9l-1.7,8.7h-1.1l0.3-1.4c-0.4,0.5-0.9,0.8-1.5,1.1c-0.6,0.3-1.2,0.4-1.9,0.4c-0.7,0-1.4-0.1-1.9-0.4
		c-0.6-0.3-1-0.7-1.3-1.3c-0.3-0.6-0.5-1.2-0.5-2c0-1,0.2-1.9,0.6-2.6s1-1.4,1.7-1.8s1.5-0.7,2.5-0.7c0.8,0,1.5,0.2,2,0.5
		c0.5,0.3,0.9,0.8,1.2,1.4l0.4-1.8H294.9z M291.2,34.1c0.6-0.3,1-0.8,1.3-1.5c0.3-0.6,0.5-1.3,0.5-2.1c0-0.8-0.2-1.5-0.7-2
		c-0.5-0.5-1.2-0.7-2.1-0.7c-0.7,0-1.3,0.2-1.9,0.5c-0.6,0.4-1,0.8-1.3,1.5s-0.5,1.3-0.5,2.1c0,0.8,0.2,1.5,0.7,2s1.2,0.7,2.1,0.7
		C290,34.6,290.6,34.4,291.2,34.1z"/>
	<path class="st3" d="M298.7,23.3h1.1l-2.4,12.3h-1.1L298.7,23.3z"/>
	<path class="st3" d="M308.4,27.3c0.6,0.3,1,0.7,1.3,1.3c0.3,0.6,0.5,1.2,0.5,2c0,1-0.2,1.9-0.6,2.7c-0.4,0.8-1,1.4-1.7,1.9
		s-1.6,0.7-2.5,0.7c-0.8,0-1.5-0.2-2-0.5c-0.5-0.3-0.9-0.8-1.2-1.4l-1,5h-1.1l2.3-11.9h1.1l-0.3,1.4c0.4-0.5,0.9-0.8,1.5-1.1
		c0.6-0.2,1.2-0.4,1.9-0.4C307.2,26.8,307.9,27,308.4,27.3z M307.3,34.1c0.6-0.3,1-0.8,1.3-1.4s0.5-1.3,0.5-2.1c0-0.8-0.2-1.5-0.7-2
		c-0.5-0.5-1.2-0.7-2.1-0.7c-0.7,0-1.3,0.2-1.9,0.5s-1,0.8-1.3,1.5s-0.5,1.3-0.5,2.1c0,0.8,0.2,1.5,0.7,2s1.2,0.7,2.1,0.7
		C306.1,34.6,306.7,34.4,307.3,34.1z"/>
	<path class="st3" d="M319.7,27.6c0.5,0.5,0.8,1.2,0.8,2.1c0,0.3,0,0.6-0.1,1l-1,4.9h-1.1l1-5c0.1-0.3,0.1-0.6,0.1-0.8
		c0-0.6-0.2-1.1-0.6-1.4c-0.4-0.3-0.9-0.5-1.6-0.5c-0.9,0-1.7,0.3-2.3,0.8c-0.6,0.5-1,1.3-1.2,2.3l-0.9,4.7h-1.1l2.4-12.3h1.1
		l-1,4.9c0.8-0.9,1.9-1.4,3.2-1.4C318.4,26.8,319.2,27.1,319.7,27.6z"/>
	<path class="st3" d="M332,26.9l-1.7,8.7h-1.1l0.3-1.4c-0.4,0.5-0.9,0.8-1.5,1.1c-0.6,0.3-1.2,0.4-1.9,0.4c-0.7,0-1.4-0.1-1.9-0.4
		c-0.6-0.3-1-0.7-1.3-1.3c-0.3-0.6-0.5-1.2-0.5-2c0-1,0.2-1.9,0.6-2.6s1-1.4,1.7-1.8s1.5-0.7,2.5-0.7c0.8,0,1.5,0.2,2,0.5
		c0.5,0.3,0.9,0.8,1.2,1.4l0.4-1.8H332z M328.3,34.1c0.6-0.3,1-0.8,1.3-1.5c0.3-0.6,0.5-1.3,0.5-2.1c0-0.8-0.2-1.5-0.7-2
		c-0.5-0.5-1.2-0.7-2.1-0.7c-0.7,0-1.3,0.2-1.9,0.5c-0.6,0.4-1,0.8-1.3,1.5s-0.5,1.3-0.5,2.1c0,0.8,0.2,1.5,0.7,2s1.2,0.7,2.1,0.7
		C327.1,34.6,327.8,34.4,328.3,34.1z"/>
</g>
</svg>
