<?xml version="1.0" encoding="utf-8"?>
<!-- Generator: Adobe Illustrator 26.0.3, SVG Export Plug-In . SVG Version: 6.00 Build 0)  -->
<svg version="1.1" id="Layer_1" xmlns="http://www.w3.org/2000/svg" xmlns:xlink="http://www.w3.org/1999/xlink" x="0px" y="0px"
	 viewBox="0 0 560 560" style="enable-background:new 0 0 560 560;" xml:space="preserve">
<style type="text/css">
	.st0{fill:#37474F;}
	.st1{fill:#ECEFF1;}
	.st2{fill:none;}
	.st3{font-family:'Montserrat-Italic';}
	.st4{font-size:24px;}
</style>
<rect id="Rectangle_135_00000005971500933807188330000013279000859594174621_" class="st0" width="560" height="560"/>
<g>
	<path class="st1" d="M318.5,145.8L289,128.8l-4.5-2.6l-4.5,2.6l-29.5,17.1l-4.5,2.6v5.1v34.1v5.1l4.5,2.6l29.5,17.1l4.5,2.6
		l4.5-2.6l29.5-17.1l4.5-2.6v-5.1v-34.1v-5.1L318.5,145.8z M312.4,186.7l-26.1,15.1v-30.2l26.1-15.1V186.7z M256.7,156.5l26.1,15.1
		v30.2l-26.1-15.1V156.5z M258.4,153.5l26.1-15.1l26.1,15.1l-26.1,15.1L258.4,153.5z"/>
	<g>
		<path class="st1" d="M145.3,278c-2.5-0.6-4.4-1.4-5.9-2.3l3.2-7.4c1.4,0.9,3,1.6,4.9,2.1c1.9,0.5,3.8,0.8,5.6,0.8
			c1.7,0,2.9-0.2,3.7-0.5c0.7-0.4,1.1-0.9,1.1-1.6c0-0.7-0.4-1.2-1.3-1.5c-0.9-0.3-2.3-0.6-4.2-0.8c-2.4-0.3-4.5-0.7-6.2-1.2
			c-1.7-0.5-3.1-1.4-4.4-2.7c-1.2-1.3-1.8-3.2-1.8-5.6c0-2,0.6-3.7,1.7-5.3c1.2-1.5,2.8-2.8,5-3.7c2.2-0.9,4.9-1.3,7.9-1.3
			c2.2,0,4.4,0.2,6.5,0.7c2.2,0.5,4,1.1,5.4,1.9l-3.2,7.4c-2.7-1.5-5.6-2.3-8.7-2.3c-1.7,0-2.9,0.2-3.7,0.6
			c-0.8,0.4-1.2,0.9-1.2,1.6c0,0.7,0.4,1.2,1.3,1.5c0.9,0.3,2.3,0.6,4.2,0.9c2.5,0.4,4.6,0.8,6.2,1.3c1.6,0.5,3.1,1.4,4.3,2.7
			c1.2,1.3,1.8,3.1,1.8,5.5c0,1.9-0.6,3.7-1.7,5.2c-1.2,1.5-2.9,2.8-5.1,3.6c-2.2,0.9-5,1.3-8.1,1.3
			C150.2,278.9,147.8,278.6,145.3,278z"/>
		<path class="st1" d="M178.7,276.8c-2.6-1.4-4.7-3.3-6.2-5.7c-1.5-2.4-2.2-5.2-2.2-8.3c0-3.1,0.7-5.8,2.2-8.3
			c1.5-2.4,3.5-4.3,6.2-5.7c2.6-1.4,5.6-2,9-2c3.4,0,6.4,0.8,8.9,2.3c2.5,1.5,4.3,3.6,5.3,6.3l-8.2,4.3c-1.4-2.8-3.4-4.2-6-4.2
			c-1.9,0-3.5,0.6-4.7,1.9c-1.2,1.3-1.9,3.1-1.9,5.4c0,2.3,0.6,4.1,1.9,5.5c1.2,1.3,2.8,2,4.7,2c2.6,0,4.6-1.4,6-4.2l8.2,4.3
			c-1,2.7-2.8,4.7-5.3,6.3c-2.5,1.5-5.4,2.3-8.9,2.3C184.4,278.9,181.4,278.2,178.7,276.8z"/>
		<path class="st1" d="M236.3,265.6h-22c0.4,1.6,1.3,2.8,2.6,3.7c1.3,0.9,2.9,1.3,4.8,1.3c1.4,0,2.7-0.2,3.8-0.6
			c1.1-0.4,2.1-1.1,3.2-2.1l5.6,5.9c-2.9,3.4-7.2,5-12.9,5c-3.5,0-6.6-0.7-9.3-2.1c-2.7-1.4-4.7-3.3-6.2-5.7
			c-1.5-2.4-2.2-5.2-2.2-8.3c0-3,0.7-5.8,2.1-8.2c1.4-2.4,3.4-4.3,5.9-5.7c2.5-1.4,5.4-2.1,8.5-2.1c3,0,5.7,0.6,8.2,1.9
			c2.5,1.3,4.4,3.1,5.8,5.5c1.4,2.4,2.1,5.3,2.1,8.6C236.4,263,236.4,263.9,236.3,265.6z M216.2,256c-1.1,1-1.8,2.2-2.1,3.9h12.4
			c-0.3-1.6-1-2.9-2.1-3.9c-1.1-1-2.5-1.4-4.1-1.4S217.3,255.1,216.2,256z"/>
		<path class="st1" d="M270.1,250.3c2.3,2.3,3.4,5.7,3.4,10.3v17.7h-10.6v-15.9c0-4.2-1.7-6.3-5-6.3c-1.8,0-3.3,0.6-4.4,1.8
			c-1.1,1.2-1.6,3-1.6,5.5v15h-10.6v-30.9h10.1v3.4c1.2-1.3,2.6-2.2,4.2-2.9c1.6-0.7,3.4-1,5.3-1
			C264.8,246.9,267.8,248.1,270.1,250.3z"/>
		<path class="st1" d="M311.3,265.6h-22c0.4,1.6,1.3,2.8,2.6,3.7c1.3,0.9,2.9,1.3,4.8,1.3c1.4,0,2.7-0.2,3.8-0.6
			c1.1-0.4,2.1-1.1,3.2-2.1l5.6,5.9c-2.9,3.4-7.2,5-12.9,5c-3.5,0-6.6-0.7-9.3-2.1c-2.7-1.4-4.7-3.3-6.2-5.7
			c-1.5-2.4-2.2-5.2-2.2-8.3c0-3,0.7-5.8,2.1-8.2c1.4-2.4,3.4-4.3,5.9-5.7c2.5-1.4,5.4-2.1,8.5-2.1c3,0,5.7,0.6,8.2,1.9
			c2.5,1.3,4.4,3.1,5.8,5.5c1.4,2.4,2.1,5.3,2.1,8.6C311.4,263,311.4,263.9,311.3,265.6z M291.2,256c-1.1,1-1.8,2.2-2.1,3.9h12.4
			c-0.3-1.6-1-2.9-2.1-3.9c-1.1-1-2.5-1.4-4.1-1.4C293.7,254.6,292.3,255.1,291.2,256z"/>
		<path class="st1" d="M341,250c2.2,1.3,4,3.1,5.2,5.4c1.3,2.3,1.9,5,1.9,7.9c0,3-0.6,5.7-1.9,8c-1.3,2.3-3,4.1-5.2,5.4
			c-2.2,1.3-4.7,1.9-7.5,1.9c-2.4,0-4.5-0.5-6.4-1.5c-1.9-1-3.5-2.5-4.7-4.4v16.7h-4v-41.1h3.8v5.9c1.2-2,2.8-3.5,4.7-4.6
			c1.9-1.1,4.2-1.6,6.6-1.6C336.3,248.1,338.8,248.8,341,250z M338.9,273.6c1.7-1,3-2.4,3.9-4.1c0.9-1.8,1.4-3.8,1.4-6.1
			c0-2.3-0.5-4.3-1.4-6.1c-0.9-1.8-2.3-3.1-3.9-4.1c-1.7-1-3.5-1.5-5.6-1.5c-2.1,0-3.9,0.5-5.6,1.5c-1.7,1-3,2.4-3.9,4.1
			c-0.9,1.8-1.4,3.8-1.4,6.1c0,2.3,0.5,4.3,1.4,6.1c0.9,1.8,2.2,3.2,3.9,4.1c1.7,1,3.5,1.5,5.6,1.5
			C335.3,275.1,337.2,274.6,338.9,273.6z"/>
		<path class="st1" d="M356.2,240.9c-0.6-0.6-0.8-1.3-0.8-2.1c0-0.8,0.3-1.4,0.8-2c0.6-0.6,1.2-0.9,2.1-0.9c0.8,0,1.5,0.3,2.1,0.8
			c0.6,0.6,0.8,1.2,0.8,2c0,0.8-0.3,1.5-0.8,2.1c-0.6,0.6-1.2,0.9-2.1,0.9C357.4,241.8,356.7,241.5,356.2,240.9z M356.2,248.3h4v30
			h-4V248.3z"/>
		<path class="st1" d="M375.6,276.7c-2.3-1.3-4.1-3.1-5.4-5.5c-1.3-2.3-2-5-2-7.9c0-2.9,0.6-5.6,2-7.9c1.3-2.3,3.1-4.1,5.4-5.4
			c2.3-1.3,4.9-1.9,7.8-1.9c2.5,0,4.8,0.5,6.8,1.5c2,1,3.6,2.5,4.7,4.4l-3,2.1c-1-1.5-2.2-2.6-3.7-3.3c-1.5-0.7-3.1-1.1-4.8-1.1
			c-2.1,0-4,0.5-5.7,1.5c-1.7,1-3,2.4-4,4.1c-0.9,1.8-1.4,3.8-1.4,6.1c0,2.3,0.5,4.4,1.4,6.1c0.9,1.8,2.3,3.1,4,4.1
			c1.7,1,3.6,1.5,5.7,1.5c1.7,0,3.4-0.4,4.8-1.1c1.5-0.7,2.7-1.8,3.7-3.3l3,2.1c-1.2,1.9-2.7,3.4-4.7,4.4c-2,1-4.3,1.5-6.7,1.5
			C380.5,278.7,377.9,278,375.6,276.7z"/>
		<path class="st1" d="M413,263.3l-6.9,6.5v8.6h-4V236h4v28.7l17.5-16.4h4.9L416,260.6l13.7,17.8h-4.8L413,263.3z"/>
	</g>
</g>
<rect x="91.3" y="352.9" class="st2" width="377.3" height="129.1"/>
<text transform="matrix(1 0 0 1 94.5311 373.2629)"><tspan x="0" y="0" class="st1 st3 st4">Be sure to check back often as </tspan><tspan x="16.4" y="36" class="st1 st3 st4">we’ll continually update our </tspan><tspan x="86.9" y="72" class="st1 st3 st4">list of 3D scenes.</tspan></text>
</svg>
