<?xml version="1.0" encoding="utf-8"?>
<!-- Generator: Adobe Illustrator 26.0.3, SVG Export Plug-In . SVG Version: 6.00 Build 0)  -->
<svg version="1.1" id="Layer_1" xmlns="http://www.w3.org/2000/svg" xmlns:xlink="http://www.w3.org/1999/xlink" x="0px" y="0px"
	 viewBox="0 0 560 560" style="enable-background:new 0 0 560 560;" xml:space="preserve">
<style type="text/css">
	.st0{fill:#37474F;}
	.st1{fill:#ECEFF1;}
	.st2{fill:none;}
	.st3{enable-background:new    ;}
</style>
<rect id="Rectangle_135_00000005971500933807188330000013279000859594174621_" class="st0" width="560" height="560"/>
<g>
	<path class="st1" d="M318.5,145.8l-29.5-17l-4.5-2.6l-4.5,2.6l-29.5,17.1l-4.5,2.6v5.1v34.1v5.1l4.5,2.6l29.5,17.1l4.5,2.6l4.5-2.6
		l29.5-17.1l4.5-2.6v-5.1v-34.1v-5.1L318.5,145.8z M312.4,186.7l-26.1,15.1v-30.2l26.1-15.1V186.7z M256.7,156.5l26.1,15.1v30.2
		l-26.1-15.1V156.5z M258.4,153.5l26.1-15.1l26.1,15.1l-26.1,15.1L258.4,153.5z"/>
	<g>
		<path class="st1" d="M145.3,278c-2.5-0.6-4.4-1.4-5.9-2.3l3.2-7.4c1.4,0.9,3,1.6,4.9,2.1s3.8,0.8,5.6,0.8c1.7,0,2.9-0.2,3.7-0.5
			c0.7-0.4,1.1-0.9,1.1-1.6s-0.4-1.2-1.3-1.5c-0.9-0.3-2.3-0.6-4.2-0.8c-2.4-0.3-4.5-0.7-6.2-1.2s-3.1-1.4-4.4-2.7
			c-1.2-1.3-1.8-3.2-1.8-5.6c0-2,0.6-3.7,1.7-5.3c1.2-1.5,2.8-2.8,5-3.7s4.9-1.3,7.9-1.3c2.2,0,4.4,0.2,6.5,0.7
			c2.2,0.5,4,1.1,5.4,1.9l-3.2,7.4c-2.7-1.5-5.6-2.3-8.7-2.3c-1.7,0-2.9,0.2-3.7,0.6c-0.8,0.4-1.2,0.9-1.2,1.6
			c0,0.7,0.4,1.2,1.3,1.5c0.9,0.3,2.3,0.6,4.2,0.9c2.5,0.4,4.6,0.8,6.2,1.3c1.6,0.5,3.1,1.4,4.3,2.7c1.2,1.3,1.8,3.1,1.8,5.5
			c0,1.9-0.6,3.7-1.7,5.2c-1.2,1.5-2.9,2.8-5.1,3.6c-2.2,0.9-5,1.3-8.1,1.3C150.2,278.9,147.8,278.6,145.3,278z"/>
		<path class="st1" d="M178.7,276.8c-2.6-1.4-4.7-3.3-6.2-5.7c-1.5-2.4-2.2-5.2-2.2-8.3c0-3.1,0.7-5.8,2.2-8.3
			c1.5-2.4,3.5-4.3,6.2-5.7c2.6-1.4,5.6-2,9-2s6.4,0.8,8.9,2.3s4.3,3.6,5.3,6.3l-8.2,4.3c-1.4-2.8-3.4-4.2-6-4.2
			c-1.9,0-3.5,0.6-4.7,1.9c-1.2,1.3-1.9,3.1-1.9,5.4s0.6,4.1,1.9,5.5c1.2,1.3,2.8,2,4.7,2c2.6,0,4.6-1.4,6-4.2l8.2,4.3
			c-1,2.7-2.8,4.7-5.3,6.3c-2.5,1.5-5.4,2.3-8.9,2.3C184.4,278.9,181.4,278.2,178.7,276.8z"/>
		<path class="st1" d="M236.3,265.6h-22c0.4,1.6,1.3,2.8,2.6,3.7c1.3,0.9,2.9,1.3,4.8,1.3c1.4,0,2.7-0.2,3.8-0.6s2.1-1.1,3.2-2.1
			l5.6,5.9c-2.9,3.4-7.2,5-12.9,5c-3.5,0-6.6-0.7-9.3-2.1s-4.7-3.3-6.2-5.7c-1.5-2.4-2.2-5.2-2.2-8.3c0-3,0.7-5.8,2.1-8.2
			c1.4-2.4,3.4-4.3,5.9-5.7s5.4-2.1,8.5-2.1c3,0,5.7,0.6,8.2,1.9c2.5,1.3,4.4,3.1,5.8,5.5c1.4,2.4,2.1,5.3,2.1,8.6
			C236.4,263,236.4,263.9,236.3,265.6z M216.2,256c-1.1,1-1.8,2.2-2.1,3.9h12.4c-0.3-1.6-1-2.9-2.1-3.9s-2.5-1.4-4.1-1.4
			S217.3,255.1,216.2,256z"/>
		<path class="st1" d="M270.1,250.3c2.3,2.3,3.4,5.7,3.4,10.3v17.7h-10.6v-15.9c0-4.2-1.7-6.3-5-6.3c-1.8,0-3.3,0.6-4.4,1.8
			c-1.1,1.2-1.6,3-1.6,5.5v15h-10.6v-30.9h10.1v3.4c1.2-1.3,2.6-2.2,4.2-2.9s3.4-1,5.3-1C264.8,246.9,267.8,248.1,270.1,250.3z"/>
		<path class="st1" d="M311.3,265.6h-22c0.4,1.6,1.3,2.8,2.6,3.7c1.3,0.9,2.9,1.3,4.8,1.3c1.4,0,2.7-0.2,3.8-0.6
			c1.1-0.4,2.1-1.1,3.2-2.1l5.6,5.9c-2.9,3.4-7.2,5-12.9,5c-3.5,0-6.6-0.7-9.3-2.1c-2.7-1.4-4.7-3.3-6.2-5.7
			c-1.5-2.4-2.2-5.2-2.2-8.3c0-3,0.7-5.8,2.1-8.2c1.4-2.4,3.4-4.3,5.9-5.7s5.4-2.1,8.5-2.1c3,0,5.7,0.6,8.2,1.9
			c2.5,1.3,4.4,3.1,5.8,5.5s2.1,5.3,2.1,8.6C311.4,263,311.4,263.9,311.3,265.6z M291.2,256c-1.1,1-1.8,2.2-2.1,3.9h12.4
			c-0.3-1.6-1-2.9-2.1-3.9s-2.5-1.4-4.1-1.4C293.7,254.6,292.3,255.1,291.2,256z"/>
		<path class="st1" d="M341,250c2.2,1.3,4,3.1,5.2,5.4c1.3,2.3,1.9,5,1.9,7.9c0,3-0.6,5.7-1.9,8s-3,4.1-5.2,5.4s-4.7,1.9-7.5,1.9
			c-2.4,0-4.5-0.5-6.4-1.5s-3.5-2.5-4.7-4.4v16.7h-4v-41.1h3.8v5.9c1.2-2,2.8-3.5,4.7-4.6c1.9-1.1,4.2-1.6,6.6-1.6
			C336.3,248.1,338.8,248.8,341,250z M338.9,273.6c1.7-1,3-2.4,3.9-4.1c0.9-1.8,1.4-3.8,1.4-6.1c0-2.3-0.5-4.3-1.4-6.1
			c-0.9-1.8-2.3-3.1-3.9-4.1c-1.7-1-3.5-1.5-5.6-1.5s-3.9,0.5-5.6,1.5s-3,2.4-3.9,4.1c-0.9,1.8-1.4,3.8-1.4,6.1
			c0,2.3,0.5,4.3,1.4,6.1c0.9,1.8,2.2,3.2,3.9,4.1c1.7,1,3.5,1.5,5.6,1.5C335.3,275.1,337.2,274.6,338.9,273.6z"/>
		<path class="st1" d="M356.2,240.9c-0.6-0.6-0.8-1.3-0.8-2.1s0.3-1.4,0.8-2c0.6-0.6,1.2-0.9,2.1-0.9c0.8,0,1.5,0.3,2.1,0.8
			c0.6,0.6,0.8,1.2,0.8,2s-0.3,1.5-0.8,2.1c-0.6,0.6-1.2,0.9-2.1,0.9C357.4,241.8,356.7,241.5,356.2,240.9z M356.2,248.3h4v30h-4
			V248.3z"/>
		<path class="st1" d="M375.6,276.7c-2.3-1.3-4.1-3.1-5.4-5.5c-1.3-2.3-2-5-2-7.9s0.6-5.6,2-7.9c1.3-2.3,3.1-4.1,5.4-5.4
			c2.3-1.3,4.9-1.9,7.8-1.9c2.5,0,4.8,0.5,6.8,1.5s3.6,2.5,4.7,4.4l-3,2.1c-1-1.5-2.2-2.6-3.7-3.3s-3.1-1.1-4.8-1.1
			c-2.1,0-4,0.5-5.7,1.5s-3,2.4-4,4.1c-0.9,1.8-1.4,3.8-1.4,6.1c0,2.3,0.5,4.4,1.4,6.1c0.9,1.8,2.3,3.1,4,4.1s3.6,1.5,5.7,1.5
			c1.7,0,3.4-0.4,4.8-1.1c1.5-0.7,2.7-1.8,3.7-3.3l3,2.1c-1.2,1.9-2.7,3.4-4.7,4.4s-4.3,1.5-6.7,1.5
			C380.5,278.7,377.9,278,375.6,276.7z"/>
		<path class="st1" d="M413,263.3l-6.9,6.5v8.6h-4V236h4v28.7l17.5-16.4h4.9L416,260.6l13.7,17.8h-4.8L413,263.3z"/>
	</g>
</g>
<g>
	<rect x="91.4" y="352.9" class="st2" width="377.3" height="129.1"/>
	<g class="st3">
		<path class="st1" d="M110.3,365.8c0.5,0.6,0.7,1.3,0.7,2.2c0,1.7-0.6,3-1.9,3.9s-3,1.3-5.3,1.3h-7.8l3.4-16.8h7.2
			c1.6,0,2.9,0.3,3.8,0.9c0.9,0.6,1.4,1.5,1.4,2.7c0,1.1-0.3,2.1-0.9,2.9s-1.4,1.3-2.5,1.7C109.2,364.8,109.9,365.2,110.3,365.8z
			 M107.9,370.8c0.9-0.6,1.4-1.6,1.4-2.8c0-0.9-0.3-1.6-1-2c-0.6-0.4-1.6-0.6-2.9-0.6h-6l-1.2,6.3h5.9
			C105.7,371.8,107,371.5,107.9,370.8z M100.9,357.9l-1.2,6.1h5.4c1.5,0,2.7-0.3,3.6-0.9c0.9-0.6,1.3-1.5,1.3-2.7
			c0-0.8-0.3-1.4-0.9-1.8c-0.6-0.4-1.5-0.6-2.7-0.6H100.9z"/>
		<path class="st1" d="M115.4,367.4c0,0.1,0,0.3,0,0.5c0,1.3,0.4,2.3,1.1,2.9c0.7,0.7,1.8,1,3.3,1c0.8,0,1.6-0.1,2.3-0.4
			c0.7-0.3,1.3-0.7,1.8-1.2l0.8,1.2c-0.6,0.6-1.3,1.1-2.2,1.4s-1.8,0.5-2.8,0.5c-1.8,0-3.3-0.5-4.3-1.4c-1-1-1.6-2.3-1.6-3.9
			c0-1.4,0.3-2.7,0.9-3.8c0.6-1.1,1.4-2,2.5-2.7s2.3-1,3.6-1c1.7,0,3,0.5,4,1.4c1,1,1.5,2.3,1.5,3.9c0,0.5-0.1,1-0.2,1.5H115.4z
			 M117.4,363.1c-0.9,0.8-1.5,1.8-1.8,3h9c0-0.1,0-0.3,0-0.5c0-1.2-0.4-2.1-1.1-2.7c-0.7-0.6-1.7-1-2.9-1
			C119.4,362,118.3,362.4,117.4,363.1z"/>
		<path class="st1" d="M135.4,373c-0.9-0.3-1.6-0.7-2.1-1.1l0.8-1.3c0.5,0.4,1.1,0.8,1.9,1c0.8,0.3,1.6,0.4,2.5,0.4
			c1.2,0,2.1-0.2,2.8-0.6c0.6-0.4,1-0.9,1-1.7c0-0.4-0.1-0.7-0.4-1s-0.6-0.4-1-0.6c-0.4-0.1-0.9-0.3-1.7-0.4
			c-0.9-0.2-1.6-0.4-2.1-0.6c-0.5-0.2-1-0.5-1.4-0.9c-0.4-0.4-0.6-1-0.6-1.7c0-1.2,0.5-2.2,1.5-2.9c1-0.7,2.3-1.1,4-1.1
			c0.8,0,1.6,0.1,2.4,0.3c0.8,0.2,1.4,0.5,1.9,0.9l-0.7,1.4c-0.5-0.4-1-0.6-1.7-0.8c-0.6-0.2-1.3-0.3-2-0.3c-1.2,0-2,0.2-2.7,0.6
			c-0.6,0.4-1,1-1,1.7c0,0.4,0.1,0.8,0.4,1c0.3,0.3,0.6,0.4,1,0.6s1,0.3,1.7,0.4c0.9,0.2,1.6,0.4,2.1,0.6c0.5,0.2,1,0.5,1.4,0.9
			c0.4,0.4,0.6,1,0.6,1.7c0,1.2-0.5,2.2-1.5,2.9c-1,0.7-2.4,1-4.1,1C137.3,373.4,136.3,373.2,135.4,373z"/>
		<path class="st1" d="M160.2,360.6l-2.5,12.6h-1.6l0.4-2c-1.2,1.4-2.8,2.1-4.9,2.1c-1.4,0-2.5-0.4-3.3-1.1c-0.8-0.7-1.2-1.7-1.2-3
			c0-0.4,0-0.9,0.1-1.4l1.4-7.2h1.7l-1.4,7.2c-0.1,0.4-0.1,0.8-0.1,1.1c0,0.9,0.3,1.6,0.8,2.1c0.5,0.5,1.3,0.7,2.4,0.7
			c1.3,0,2.5-0.4,3.3-1.1c0.9-0.8,1.5-1.8,1.8-3.3l1.3-6.8H160.2z"/>
		<path class="st1" d="M168.3,361.1c0.8-0.4,1.9-0.6,3.1-0.6l-0.3,1.7l-0.5,0c-1.4,0-2.5,0.4-3.3,1.2c-0.9,0.8-1.5,2-1.8,3.5
			l-1.3,6.4h-1.7l2.5-12.6h1.6l-0.4,2.3C166.7,362.1,167.4,361.5,168.3,361.1z"/>
		<path class="st1" d="M173.4,367.4c0,0.1,0,0.3,0,0.5c0,1.3,0.4,2.3,1.1,2.9c0.7,0.7,1.8,1,3.3,1c0.8,0,1.6-0.1,2.3-0.4
			c0.7-0.3,1.3-0.7,1.8-1.2l0.8,1.2c-0.6,0.6-1.3,1.1-2.2,1.4s-1.8,0.5-2.8,0.5c-1.8,0-3.3-0.5-4.3-1.4c-1-1-1.6-2.3-1.6-3.9
			c0-1.4,0.3-2.7,0.9-3.8c0.6-1.1,1.4-2,2.5-2.7s2.3-1,3.6-1c1.7,0,3,0.5,4,1.4c1,1,1.5,2.3,1.5,3.9c0,0.5-0.1,1-0.2,1.5H173.4z
			 M175.4,363.1c-0.9,0.8-1.5,1.8-1.8,3h9c0-0.1,0-0.3,0-0.5c0-1.2-0.4-2.1-1.1-2.7c-0.7-0.6-1.7-1-2.9-1
			C177.3,362,176.3,362.4,175.4,363.1z"/>
		<path class="st1" d="M195.3,369.4c-0.1,0.4-0.1,0.6-0.1,0.8c0,1.1,0.6,1.7,1.8,1.7c0.7,0,1.4-0.2,1.9-0.6l0.4,1.3
			c-0.7,0.5-1.7,0.8-2.8,0.8c-0.9,0-1.7-0.3-2.2-0.8c-0.6-0.5-0.8-1.2-0.8-2.1c0-0.4,0-0.7,0.1-1l1.5-7.4h-2.2l0.3-1.4h2.3l0.6-2.8
			h1.7l-0.6,2.8h3.8l-0.3,1.4h-3.8L195.3,369.4z"/>
		<path class="st1" d="M204.5,372.7c-0.9-0.4-1.5-1.1-2-1.9c-0.5-0.8-0.7-1.7-0.7-2.8c0-1.4,0.3-2.7,0.9-3.8c0.6-1.1,1.5-2,2.6-2.7
			c1.1-0.6,2.4-1,3.8-1c1.8,0,3.2,0.5,4.2,1.4c1,1,1.5,2.3,1.5,3.9c0,1.4-0.3,2.7-0.9,3.9c-0.6,1.1-1.5,2-2.6,2.7
			c-1.1,0.6-2.4,1-3.8,1C206.3,373.4,205.3,373.2,204.5,372.7z M210.4,371.1c0.8-0.5,1.5-1.2,2-2.1c0.5-0.9,0.7-1.9,0.7-3
			c0-1.2-0.4-2.2-1.1-2.9c-0.7-0.7-1.7-1-3.1-1c-1,0-2,0.3-2.8,0.8c-0.8,0.5-1.5,1.2-2,2.1c-0.5,0.9-0.7,1.9-0.7,3
			c0,1.2,0.4,2.2,1.1,2.9c0.7,0.7,1.7,1,3.1,1C208.6,371.9,209.6,371.6,210.4,371.1z"/>
		<path class="st1" d="M225.8,372.7c-0.9-0.4-1.6-1.1-2-1.9c-0.5-0.8-0.7-1.7-0.7-2.8c0-1.4,0.3-2.7,0.9-3.8c0.6-1.1,1.5-2,2.6-2.7
			c1.1-0.6,2.4-1,3.8-1c1.2,0,2.2,0.2,3,0.6c0.8,0.4,1.5,1.1,2,1.9l-1.4,0.8c-0.7-1.2-1.9-1.9-3.7-1.9c-1,0-2,0.3-2.8,0.8
			c-0.8,0.5-1.5,1.2-2,2.1c-0.5,0.9-0.7,1.9-0.7,3c0,1.2,0.4,2.2,1.1,2.9c0.7,0.7,1.8,1,3.1,1c0.8,0,1.6-0.2,2.3-0.5
			c0.7-0.3,1.3-0.8,1.7-1.4l1.2,0.9c-0.6,0.8-1.3,1.3-2.2,1.8s-1.9,0.6-3,0.6C227.7,373.4,226.7,373.2,225.8,372.7z"/>
		<path class="st1" d="M248.5,361.6c0.8,0.7,1.2,1.7,1.2,3c0,0.4,0,0.9-0.1,1.4l-1.4,7.2h-1.7l1.4-7.2c0.1-0.4,0.1-0.8,0.1-1.2
			c0-0.9-0.3-1.6-0.8-2.1c-0.6-0.5-1.4-0.7-2.4-0.7c-1.4,0-2.5,0.4-3.4,1.1c-0.9,0.7-1.5,1.8-1.8,3.3l-1.3,6.8h-1.7l3.6-17.8h1.7
			l-1.4,7.1c1.2-1.3,2.8-2,4.8-2C246.6,360.5,247.7,360.9,248.5,361.6z"/>
		<path class="st1" d="M254.4,367.4c0,0.1,0,0.3,0,0.5c0,1.3,0.4,2.3,1.1,2.9c0.7,0.7,1.8,1,3.3,1c0.8,0,1.6-0.1,2.3-0.4
			c0.7-0.3,1.3-0.7,1.8-1.2l0.8,1.2c-0.6,0.6-1.3,1.1-2.2,1.4s-1.8,0.5-2.8,0.5c-1.8,0-3.3-0.5-4.3-1.4c-1-1-1.6-2.3-1.6-3.9
			c0-1.4,0.3-2.7,0.9-3.8c0.6-1.1,1.4-2,2.5-2.7s2.3-1,3.6-1c1.7,0,3,0.5,4,1.4c1,1,1.5,2.3,1.5,3.9c0,0.5-0.1,1-0.2,1.5H254.4z
			 M256.4,363.1c-0.9,0.8-1.5,1.8-1.8,3h9c0-0.1,0-0.3,0-0.5c0-1.2-0.4-2.1-1.1-2.7c-0.7-0.6-1.7-1-2.9-1
			C258.4,362,257.3,362.4,256.4,363.1z"/>
		<path class="st1" d="M269.9,372.7c-0.9-0.4-1.6-1.1-2-1.9c-0.5-0.8-0.7-1.7-0.7-2.8c0-1.4,0.3-2.7,0.9-3.8c0.6-1.1,1.5-2,2.6-2.7
			c1.1-0.6,2.4-1,3.8-1c1.2,0,2.2,0.2,3,0.6c0.8,0.4,1.5,1.1,2,1.9l-1.4,0.8c-0.7-1.2-1.9-1.9-3.7-1.9c-1,0-2,0.3-2.8,0.8
			c-0.8,0.5-1.5,1.2-2,2.1c-0.5,0.9-0.7,1.9-0.7,3c0,1.2,0.4,2.2,1.1,2.9c0.7,0.7,1.8,1,3.1,1c0.8,0,1.6-0.2,2.3-0.5
			c0.7-0.3,1.3-0.8,1.7-1.4l1.2,0.9c-0.6,0.8-1.3,1.3-2.2,1.8s-1.9,0.6-3,0.6C271.8,373.4,270.8,373.2,269.9,372.7z"/>
		<path class="st1" d="M287.9,365.8l4.5,7.4h-2l-3.9-6.4l-3.5,2.7l-0.7,3.6h-1.7l3.6-17.8h1.7l-2.4,12l8.7-6.8h2.4L287.9,365.8z"/>
		<path class="st1" d="M312.6,361.2c0.8,0.4,1.5,1,2,1.8s0.7,1.7,0.7,2.8c0,1.4-0.3,2.7-0.9,3.9c-0.6,1.1-1.5,2-2.6,2.7
			c-1.1,0.6-2.3,1-3.7,1c-1.2,0-2.2-0.2-3.1-0.7c-0.8-0.5-1.4-1.2-1.8-2.1l-0.6,2.8h-1.6l3.6-17.8h1.7l-1.4,7.1
			c0.6-0.6,1.3-1.1,2.1-1.5c0.8-0.3,1.7-0.5,2.7-0.5C310.8,360.5,311.7,360.8,312.6,361.2z M310.9,371.1c0.8-0.5,1.5-1.2,1.9-2.1
			c0.5-0.9,0.7-1.9,0.7-3c0-1.2-0.4-2.2-1.1-2.9c-0.7-0.7-1.7-1-3.1-1c-1,0-2,0.3-2.8,0.8c-0.8,0.5-1.5,1.2-1.9,2.1
			c-0.5,0.9-0.7,1.9-0.7,3.1c0,1.2,0.4,2.2,1.1,2.9c0.7,0.7,1.7,1,3.1,1C309.1,371.9,310,371.6,310.9,371.1z"/>
		<path class="st1" d="M331.4,360.6l-2.5,12.6h-1.6l0.4-2c-0.6,0.7-1.3,1.2-2.2,1.6c-0.8,0.4-1.8,0.6-2.8,0.6c-1.1,0-2-0.2-2.9-0.6
			c-0.8-0.4-1.5-1.1-1.9-1.9s-0.7-1.8-0.7-2.8c0-1.4,0.3-2.7,0.9-3.8c0.6-1.1,1.5-2,2.6-2.7s2.3-1,3.6-1c1.2,0,2.2,0.2,3,0.7
			c0.8,0.5,1.4,1.1,1.8,2l0.5-2.6H331.4z M325.9,371.1c0.8-0.5,1.5-1.2,2-2.1s0.7-1.9,0.7-3c0-1.2-0.4-2.2-1.1-2.9
			c-0.7-0.7-1.7-1-3.1-1c-1,0-2,0.3-2.8,0.8s-1.5,1.2-2,2.1s-0.7,1.9-0.7,3c0,1.2,0.4,2.2,1.1,2.9c0.7,0.7,1.7,1,3.1,1
			C324.1,371.9,325.1,371.6,325.9,371.1z"/>
		<path class="st1" d="M336.2,372.7c-0.9-0.4-1.6-1.1-2-1.9c-0.5-0.8-0.7-1.7-0.7-2.8c0-1.4,0.3-2.7,0.9-3.8c0.6-1.1,1.5-2,2.6-2.7
			s2.4-1,3.8-1c1.2,0,2.2,0.2,3,0.6c0.8,0.4,1.5,1.1,2,1.9l-1.4,0.8c-0.7-1.2-1.9-1.9-3.7-1.9c-1,0-2,0.3-2.8,0.8s-1.5,1.2-2,2.1
			c-0.5,0.9-0.7,1.9-0.7,3c0,1.2,0.4,2.2,1.1,2.9c0.7,0.7,1.8,1,3.1,1c0.8,0,1.6-0.2,2.3-0.5c0.7-0.3,1.3-0.8,1.7-1.4l1.2,0.9
			c-0.6,0.8-1.3,1.3-2.2,1.8c-0.9,0.4-1.9,0.6-3,0.6C338.1,373.4,337.1,373.2,336.2,372.7z"/>
		<path class="st1" d="M354.2,365.8l4.5,7.4h-2l-3.9-6.4l-3.5,2.7l-0.7,3.6h-1.7l3.6-17.8h1.7l-2.4,12l8.7-6.8h2.4L354.2,365.8z"/>
		<path class="st1" d="M370,372.7c-0.9-0.4-1.5-1.1-2-1.9c-0.5-0.8-0.7-1.7-0.7-2.8c0-1.4,0.3-2.7,0.9-3.8c0.6-1.1,1.5-2,2.6-2.7
			c1.1-0.6,2.4-1,3.8-1c1.8,0,3.2,0.5,4.2,1.4c1,1,1.5,2.3,1.5,3.9c0,1.4-0.3,2.7-0.9,3.9c-0.6,1.1-1.5,2-2.6,2.7
			c-1.1,0.6-2.4,1-3.8,1C371.8,373.4,370.8,373.2,370,372.7z M375.9,371.1c0.8-0.5,1.5-1.2,2-2.1c0.5-0.9,0.7-1.9,0.7-3
			c0-1.2-0.4-2.2-1.1-2.9c-0.7-0.7-1.7-1-3.1-1c-1,0-2,0.3-2.8,0.8c-0.8,0.5-1.5,1.2-2,2.1c-0.5,0.9-0.7,1.9-0.7,3
			c0,1.2,0.4,2.2,1.1,2.9c0.7,0.7,1.7,1,3.1,1C374.2,371.9,375.1,371.6,375.9,371.1z"/>
		<path class="st1" d="M388.1,357.4c-0.4,0.4-0.7,1-0.9,1.9l-0.3,1.4h3.9l-0.3,1.4h-3.8l-2.2,11.2h-1.7l2.2-11.2h-2.3l0.3-1.4h2.3
			l0.3-1.6c0.2-1.2,0.7-2.1,1.5-2.8c0.7-0.6,1.7-1,2.9-1c0.5,0,1,0.1,1.4,0.2c0.4,0.1,0.8,0.3,1.1,0.6l-0.7,1.2
			c-0.5-0.4-1.1-0.6-1.8-0.6C389.1,356.8,388.5,357,388.1,357.4z"/>
		<path class="st1" d="M393.3,369.4c-0.1,0.4-0.1,0.6-0.1,0.8c0,1.1,0.6,1.7,1.8,1.7c0.7,0,1.4-0.2,1.9-0.6l0.4,1.3
			c-0.7,0.5-1.7,0.8-2.8,0.8c-0.9,0-1.7-0.3-2.2-0.8c-0.6-0.5-0.8-1.2-0.8-2.1c0-0.4,0-0.7,0.1-1l1.5-7.4h-2.2l0.3-1.4h2.3l0.6-2.8
			h1.7l-0.6,2.8h3.8l-0.3,1.4h-3.8L393.3,369.4z"/>
		<path class="st1" d="M401.4,367.4c0,0.1,0,0.3,0,0.5c0,1.3,0.4,2.3,1.1,2.9c0.7,0.7,1.8,1,3.3,1c0.8,0,1.6-0.1,2.3-0.4
			c0.7-0.3,1.3-0.7,1.8-1.2l0.8,1.2c-0.6,0.6-1.3,1.1-2.2,1.4c-0.9,0.3-1.8,0.5-2.8,0.5c-1.8,0-3.3-0.5-4.3-1.4
			c-1-1-1.6-2.3-1.6-3.9c0-1.4,0.3-2.7,0.9-3.8c0.6-1.1,1.4-2,2.5-2.7c1.1-0.6,2.3-1,3.6-1c1.7,0,3,0.5,4,1.4s1.5,2.3,1.5,3.9
			c0,0.5-0.1,1-0.2,1.5H401.4z M403.4,363.1c-0.9,0.8-1.5,1.8-1.8,3h9c0-0.1,0-0.3,0-0.5c0-1.2-0.4-2.1-1.1-2.7
			c-0.7-0.6-1.7-1-2.9-1C405.4,362,404.3,362.4,403.4,363.1z"/>
		<path class="st1" d="M426.3,361.6c0.8,0.7,1.2,1.7,1.2,3c0,0.4,0,0.9-0.1,1.4l-1.4,7.2h-1.7l1.4-7.2c0.1-0.4,0.1-0.8,0.1-1.2
			c0-0.9-0.3-1.6-0.8-2.1c-0.6-0.5-1.4-0.7-2.4-0.7c-1.4,0-2.5,0.4-3.4,1.1c-0.9,0.7-1.5,1.8-1.8,3.3l-1.3,6.8h-1.7l2.5-12.6h1.6
			l-0.4,2c1.2-1.4,2.8-2.1,4.9-2.1C424.4,360.5,425.5,360.9,426.3,361.6z"/>
		<path class="st1" d="M450.9,360.6l-2.5,12.6h-1.6l0.4-2c-0.6,0.7-1.3,1.2-2.2,1.6s-1.8,0.6-2.8,0.6c-1.1,0-2-0.2-2.9-0.6
			c-0.8-0.4-1.5-1.1-1.9-1.9s-0.7-1.8-0.7-2.8c0-1.4,0.3-2.7,0.9-3.8c0.6-1.1,1.5-2,2.6-2.7c1.1-0.6,2.3-1,3.6-1
			c1.2,0,2.2,0.2,3,0.7c0.8,0.5,1.4,1.1,1.8,2l0.5-2.6H450.9z M445.4,371.1c0.8-0.5,1.5-1.2,2-2.1s0.7-1.9,0.7-3
			c0-1.2-0.4-2.2-1.1-2.9c-0.7-0.7-1.7-1-3.1-1c-1,0-2,0.3-2.8,0.8s-1.5,1.2-2,2.1s-0.7,1.9-0.7,3c0,1.2,0.4,2.2,1.1,2.9
			c0.7,0.7,1.7,1,3.1,1C443.7,371.9,444.6,371.6,445.4,371.1z"/>
		<path class="st1" d="M453.9,373c-0.9-0.3-1.6-0.7-2.1-1.1l0.8-1.3c0.5,0.4,1.1,0.8,1.9,1c0.8,0.3,1.6,0.4,2.5,0.4
			c1.2,0,2.1-0.2,2.8-0.6c0.6-0.4,1-0.9,1-1.7c0-0.4-0.1-0.7-0.4-1c-0.3-0.2-0.6-0.4-1-0.6s-0.9-0.3-1.7-0.4
			c-0.9-0.2-1.6-0.4-2.1-0.6c-0.5-0.2-1-0.5-1.4-0.9s-0.6-1-0.6-1.7c0-1.2,0.5-2.2,1.5-2.9c1-0.7,2.3-1.1,4-1.1
			c0.8,0,1.6,0.1,2.4,0.3c0.8,0.2,1.4,0.5,1.9,0.9l-0.7,1.4c-0.5-0.4-1-0.6-1.7-0.8c-0.6-0.2-1.3-0.3-2-0.3c-1.2,0-2,0.2-2.7,0.6
			c-0.6,0.4-1,1-1,1.7c0,0.4,0.1,0.8,0.4,1c0.3,0.3,0.6,0.4,1,0.6s1,0.3,1.7,0.4c0.9,0.2,1.6,0.4,2.1,0.6c0.5,0.2,1,0.5,1.4,0.9
			c0.4,0.4,0.6,1,0.6,1.7c0,1.2-0.5,2.2-1.5,2.9c-1,0.7-2.4,1-4.1,1C455.8,373.4,454.9,373.2,453.9,373z"/>
	</g>
	<g class="st3">
		<path class="st1" d="M133.3,396.6l-7.1,12.6h-1.7l-2.1-10.3l-5.9,10.3h-1.6l-2.5-12.6h1.6l2,10.7l6.1-10.7h1.4l2.1,10.7l6-10.7
			H133.3z"/>
		<path class="st1" d="M134.4,403.4c0,0.1,0,0.3,0,0.5c0,1.3,0.4,2.3,1.1,2.9c0.7,0.7,1.8,1,3.3,1c0.8,0,1.6-0.1,2.3-0.4
			c0.7-0.3,1.3-0.7,1.8-1.2l0.8,1.2c-0.6,0.6-1.3,1.1-2.2,1.4s-1.8,0.5-2.8,0.5c-1.8,0-3.3-0.5-4.3-1.4c-1-1-1.6-2.3-1.6-3.9
			c0-1.4,0.3-2.7,0.9-3.8c0.6-1.1,1.4-2,2.5-2.7s2.3-1,3.6-1c1.7,0,3,0.5,4,1.4c1,1,1.5,2.3,1.5,3.9c0,0.5-0.1,1-0.2,1.5H134.4z
			 M136.4,399.1c-0.9,0.8-1.5,1.8-1.8,3h9c0-0.1,0-0.3,0-0.5c0-1.2-0.4-2.1-1.1-2.7c-0.7-0.6-1.7-1-2.9-1
			C138.4,398,137.3,398.4,136.4,399.1z"/>
		<path class="st1" d="M151.7,391.7c0.2,0.2,0.3,0.5,0.3,0.9c0,0.2,0,0.4-0.1,0.6c-0.1,0.2-0.2,0.4-0.3,0.7l-1.8,3.5h-1.2l1.5-3.5
			c-0.2-0.1-0.4-0.2-0.5-0.4c-0.1-0.2-0.2-0.4-0.2-0.7c0-0.4,0.1-0.7,0.4-1c0.3-0.3,0.6-0.4,0.9-0.4
			C151.1,391.3,151.4,391.5,151.7,391.7z"/>
		<path class="st1" d="M155.9,391.5h1.7l-3.6,17.8h-1.7L155.9,391.5z"/>
		<path class="st1" d="M162.4,391.5h1.7l-3.6,17.8h-1.7L162.4,391.5z"/>
		<path class="st1" d="M174.2,408.7c-0.9-0.4-1.6-1.1-2-1.9c-0.5-0.8-0.7-1.7-0.7-2.8c0-1.4,0.3-2.7,0.9-3.8c0.6-1.1,1.5-2,2.6-2.7
			c1.1-0.6,2.4-1,3.8-1c1.2,0,2.2,0.2,3,0.6c0.8,0.4,1.5,1.1,2,1.9l-1.4,0.8c-0.7-1.2-1.9-1.9-3.7-1.9c-1,0-2,0.3-2.8,0.8
			c-0.8,0.5-1.5,1.2-2,2.1c-0.5,0.9-0.7,1.9-0.7,3c0,1.2,0.4,2.2,1.1,2.9c0.7,0.7,1.8,1,3.1,1c0.8,0,1.6-0.2,2.3-0.5
			c0.7-0.3,1.3-0.8,1.7-1.4l1.2,0.9c-0.6,0.8-1.3,1.3-2.2,1.8s-1.9,0.6-3,0.6C176.1,409.4,175.1,409.2,174.2,408.7z"/>
		<path class="st1" d="M187.4,408.7c-0.9-0.4-1.5-1.1-2-1.9c-0.5-0.8-0.7-1.7-0.7-2.8c0-1.4,0.3-2.7,0.9-3.8c0.6-1.1,1.5-2,2.6-2.7
			c1.1-0.6,2.4-1,3.8-1c1.8,0,3.2,0.5,4.2,1.4c1,1,1.5,2.3,1.5,3.9c0,1.4-0.3,2.7-0.9,3.9c-0.6,1.1-1.5,2-2.6,2.7
			c-1.1,0.6-2.4,1-3.8,1C189.3,409.4,188.3,409.2,187.4,408.7z M193.4,407.1c0.8-0.5,1.5-1.2,2-2.1c0.5-0.9,0.7-1.9,0.7-3
			c0-1.2-0.4-2.2-1.1-2.9c-0.7-0.7-1.7-1-3.1-1c-1,0-2,0.3-2.8,0.8c-0.8,0.5-1.5,1.2-2,2.1c-0.5,0.9-0.7,1.9-0.7,3
			c0,1.2,0.4,2.2,1.1,2.9c0.7,0.7,1.7,1,3.1,1C191.6,407.9,192.6,407.6,193.4,407.1z"/>
		<path class="st1" d="M211.9,397.6c0.8,0.7,1.2,1.7,1.2,3c0,0.4,0,0.9-0.1,1.4l-1.4,7.2h-1.7l1.4-7.2c0.1-0.4,0.1-0.8,0.1-1.2
			c0-0.9-0.3-1.6-0.8-2.1c-0.6-0.5-1.4-0.7-2.4-0.7c-1.4,0-2.5,0.4-3.4,1.1c-0.9,0.7-1.5,1.8-1.8,3.3l-1.3,6.8h-1.7l2.5-12.6h1.6
			l-0.4,2c1.2-1.4,2.8-2.1,4.9-2.1C210,396.5,211.1,396.9,211.9,397.6z"/>
		<path class="st1" d="M218.9,405.4c-0.1,0.4-0.1,0.6-0.1,0.8c0,1.1,0.6,1.7,1.8,1.7c0.7,0,1.4-0.2,1.9-0.6l0.4,1.3
			c-0.7,0.5-1.7,0.8-2.8,0.8c-0.9,0-1.7-0.3-2.2-0.8c-0.6-0.5-0.8-1.2-0.8-2.1c0-0.4,0-0.7,0.1-1l1.5-7.4h-2.2l0.3-1.4h2.3l0.6-2.8
			h1.7l-0.6,2.8h3.8l-0.3,1.4h-3.8L218.9,405.4z"/>
		<path class="st1" d="M228.4,396.6h1.7l-2.5,12.6h-1.7L228.4,396.6z M229.1,393.5c-0.2-0.2-0.3-0.5-0.3-0.8c0-0.4,0.1-0.7,0.4-0.9
			c0.2-0.2,0.6-0.4,0.9-0.4c0.3,0,0.6,0.1,0.8,0.3c0.2,0.2,0.3,0.5,0.3,0.8c0,0.4-0.1,0.7-0.4,1s-0.6,0.4-1,0.4
			C229.6,393.9,229.4,393.8,229.1,393.5z"/>
		<path class="st1" d="M244.3,397.6c0.8,0.7,1.2,1.7,1.2,3c0,0.4,0,0.9-0.1,1.4l-1.4,7.2h-1.7l1.4-7.2c0.1-0.4,0.1-0.8,0.1-1.2
			c0-0.9-0.3-1.6-0.8-2.1c-0.6-0.5-1.4-0.7-2.4-0.7c-1.4,0-2.5,0.4-3.4,1.1c-0.9,0.7-1.5,1.8-1.8,3.3l-1.3,6.8h-1.7l2.5-12.6h1.6
			l-0.4,2c1.2-1.4,2.8-2.1,4.9-2.1C242.4,396.5,243.5,396.9,244.3,397.6z"/>
		<path class="st1" d="M262.5,396.6l-2.5,12.6h-1.6l0.4-2c-1.2,1.4-2.8,2.1-4.9,2.1c-1.4,0-2.5-0.4-3.3-1.1c-0.8-0.7-1.2-1.7-1.2-3
			c0-0.4,0-0.9,0.1-1.4l1.4-7.2h1.7l-1.4,7.2c-0.1,0.4-0.1,0.8-0.1,1.1c0,0.9,0.3,1.6,0.8,2.1c0.5,0.5,1.3,0.7,2.4,0.7
			c1.3,0,2.5-0.4,3.3-1.1c0.9-0.8,1.5-1.8,1.8-3.3l1.3-6.8H262.5z"/>
		<path class="st1" d="M278.8,396.6l-2.5,12.6h-1.6l0.4-2c-0.6,0.7-1.3,1.2-2.2,1.6c-0.8,0.4-1.8,0.6-2.8,0.6c-1.1,0-2-0.2-2.9-0.6
			c-0.8-0.4-1.5-1.1-1.9-1.9c-0.5-0.8-0.7-1.8-0.7-2.8c0-1.4,0.3-2.7,0.9-3.8c0.6-1.1,1.5-2,2.6-2.7s2.3-1,3.6-1
			c1.2,0,2.2,0.2,3,0.7s1.4,1.1,1.8,2l0.5-2.6H278.8z M273.3,407.1c0.8-0.5,1.5-1.2,2-2.1c0.5-0.9,0.7-1.9,0.7-3
			c0-1.2-0.4-2.2-1.1-2.9c-0.7-0.7-1.7-1-3.1-1c-1,0-2,0.3-2.8,0.8c-0.8,0.5-1.5,1.2-2,2.1c-0.5,0.9-0.7,1.9-0.7,3
			c0,1.2,0.4,2.2,1.1,2.9c0.7,0.7,1.7,1,3.1,1C271.5,407.9,272.5,407.6,273.3,407.1z"/>
		<path class="st1" d="M284.6,391.5h1.7l-3.6,17.8H281L284.6,391.5z"/>
		<path class="st1" d="M291,391.5h1.7l-3.6,17.8h-1.7L291,391.5z"/>
		<path class="st1" d="M307.1,396.6l-9.2,14.3c-0.8,1.2-1.5,2-2.2,2.5s-1.5,0.7-2.4,0.7c-0.6,0-1.2-0.1-1.7-0.3s-1-0.5-1.3-0.8
			l0.9-1.2c0.6,0.6,1.3,0.9,2.2,0.9c0.6,0,1.1-0.2,1.5-0.5c0.4-0.3,0.9-0.8,1.4-1.6l0.9-1.3l-3.1-12.6h1.7l2.6,10.8l6.9-10.8H307.1z
			"/>
		<path class="st1" d="M327.1,396.6l-2.5,12.6H323l0.4-2c-1.2,1.4-2.8,2.1-4.9,2.1c-1.4,0-2.5-0.4-3.3-1.1c-0.8-0.7-1.2-1.7-1.2-3
			c0-0.4,0-0.9,0.1-1.4l1.4-7.2h1.7l-1.4,7.2c-0.1,0.4-0.1,0.8-0.1,1.1c0,0.9,0.3,1.6,0.8,2.1c0.5,0.5,1.3,0.7,2.4,0.7
			c1.3,0,2.5-0.4,3.3-1.1c0.9-0.8,1.5-1.8,1.8-3.3l1.3-6.8H327.1z"/>
		<path class="st1" d="M340.9,397.2c0.8,0.4,1.5,1,2,1.8s0.7,1.7,0.7,2.8c0,1.4-0.3,2.7-0.9,3.9c-0.6,1.1-1.5,2-2.6,2.7
			c-1.1,0.6-2.3,1-3.7,1c-1.2,0-2.2-0.2-3-0.7s-1.4-1.2-1.8-2.1l-1.4,7.3h-1.7l3.4-17.3h1.6l-0.4,2c0.6-0.7,1.3-1.2,2.2-1.6
			c0.8-0.4,1.8-0.5,2.8-0.5C339.1,396.5,340,396.8,340.9,397.2z M339.2,407.1c0.8-0.5,1.5-1.2,1.9-2.1c0.5-0.9,0.7-1.9,0.7-3
			c0-1.2-0.4-2.2-1.1-2.9c-0.7-0.7-1.7-1-3.1-1c-1,0-2,0.3-2.8,0.8c-0.8,0.5-1.5,1.2-1.9,2.1c-0.5,0.9-0.7,1.9-0.7,3.1
			c0,1.2,0.4,2.2,1.1,2.9c0.7,0.7,1.7,1,3.1,1C337.4,407.9,338.3,407.6,339.2,407.1z"/>
		<path class="st1" d="M360.7,391.5l-3.6,17.8h-1.6l0.4-2c-0.6,0.7-1.3,1.2-2.2,1.6c-0.8,0.4-1.8,0.6-2.8,0.6c-1.1,0-2-0.2-2.9-0.6
			c-0.8-0.4-1.5-1.1-1.9-1.9s-0.7-1.8-0.7-2.8c0-1.4,0.3-2.7,0.9-3.8c0.6-1.1,1.5-2,2.6-2.7s2.3-1,3.6-1c1.2,0,2.2,0.2,3,0.7
			c0.8,0.5,1.4,1.1,1.8,2l1.6-7.8H360.7z M354.2,407.1c0.8-0.5,1.5-1.2,2-2.1s0.7-1.9,0.7-3c0-1.2-0.4-2.2-1.1-2.9
			c-0.7-0.7-1.7-1-3.1-1c-1,0-2,0.3-2.8,0.8s-1.5,1.2-2,2.1s-0.7,1.9-0.7,3c0,1.2,0.4,2.2,1.1,2.9c0.7,0.7,1.7,1,3.1,1
			C352.4,407.9,353.4,407.6,354.2,407.1z"/>
		<path class="st1" d="M376,396.6l-2.5,12.6h-1.6l0.4-2c-0.6,0.7-1.3,1.2-2.2,1.6s-1.8,0.6-2.8,0.6c-1.1,0-2-0.2-2.9-0.6
			c-0.8-0.4-1.5-1.1-1.9-1.9c-0.5-0.8-0.7-1.8-0.7-2.8c0-1.4,0.3-2.7,0.9-3.8c0.6-1.1,1.5-2,2.6-2.7s2.3-1,3.6-1
			c1.2,0,2.2,0.2,3,0.7c0.8,0.5,1.4,1.1,1.8,2l0.5-2.6H376z M370.5,407.1c0.8-0.5,1.5-1.2,2-2.1c0.5-0.9,0.7-1.9,0.7-3
			c0-1.2-0.4-2.2-1.1-2.9c-0.7-0.7-1.7-1-3.1-1c-1,0-2,0.3-2.8,0.8c-0.8,0.5-1.5,1.2-2,2.1c-0.5,0.9-0.7,1.9-0.7,3
			c0,1.2,0.4,2.2,1.1,2.9c0.7,0.7,1.7,1,3.1,1C368.7,407.9,369.6,407.6,370.5,407.1z"/>
		<path class="st1" d="M380.9,405.4c-0.1,0.4-0.1,0.6-0.1,0.8c0,1.1,0.6,1.7,1.8,1.7c0.7,0,1.4-0.2,1.9-0.6l0.4,1.3
			c-0.7,0.5-1.7,0.8-2.8,0.8c-0.9,0-1.7-0.3-2.2-0.8c-0.6-0.5-0.8-1.2-0.8-2.1c0-0.4,0-0.7,0.1-1l1.5-7.4h-2.2l0.3-1.4h2.3l0.6-2.8
			h1.7l-0.6,2.8h3.8l-0.3,1.4h-3.8L380.9,405.4z"/>
		<path class="st1" d="M389.1,403.4c0,0.1,0,0.3,0,0.5c0,1.3,0.4,2.3,1.1,2.9c0.7,0.7,1.8,1,3.3,1c0.8,0,1.6-0.1,2.3-0.4
			c0.7-0.3,1.3-0.7,1.8-1.2l0.8,1.2c-0.6,0.6-1.3,1.1-2.2,1.4c-0.9,0.3-1.8,0.5-2.8,0.5c-1.8,0-3.3-0.5-4.3-1.4
			c-1-1-1.6-2.3-1.6-3.9c0-1.4,0.3-2.7,0.9-3.8c0.6-1.1,1.4-2,2.5-2.7c1.1-0.6,2.3-1,3.6-1c1.7,0,3,0.5,4,1.4c1,1,1.5,2.3,1.5,3.9
			c0,0.5-0.1,1-0.2,1.5H389.1z M391.1,399.1c-0.9,0.8-1.5,1.8-1.8,3h9c0-0.1,0-0.3,0-0.5c0-1.2-0.4-2.1-1.1-2.7
			c-0.7-0.6-1.7-1-2.9-1C393,398,392,398.4,391.1,399.1z"/>
		<path class="st1" d="M410.9,408.7c-0.9-0.4-1.5-1.1-2-1.9c-0.5-0.8-0.7-1.7-0.7-2.8c0-1.4,0.3-2.7,0.9-3.8c0.6-1.1,1.5-2,2.6-2.7
			s2.4-1,3.8-1c1.8,0,3.2,0.5,4.2,1.4s1.5,2.3,1.5,3.9c0,1.4-0.3,2.7-0.9,3.9c-0.6,1.1-1.5,2-2.6,2.7c-1.1,0.6-2.4,1-3.8,1
			C412.7,409.4,411.7,409.2,410.9,408.7z M416.8,407.1c0.8-0.5,1.5-1.2,2-2.1s0.7-1.9,0.7-3c0-1.2-0.4-2.2-1.1-2.9
			c-0.7-0.7-1.7-1-3.1-1c-1,0-2,0.3-2.8,0.8s-1.5,1.2-2,2.1s-0.7,1.9-0.7,3c0,1.2,0.4,2.2,1.1,2.9c0.7,0.7,1.7,1,3.1,1
			C415,407.9,416,407.6,416.8,407.1z"/>
		<path class="st1" d="M437.2,396.6l-2.5,12.6h-1.6l0.4-2c-1.2,1.4-2.8,2.1-4.9,2.1c-1.4,0-2.5-0.4-3.3-1.1c-0.8-0.7-1.2-1.7-1.2-3
			c0-0.4,0-0.9,0.1-1.4l1.4-7.2h1.7l-1.4,7.2c-0.1,0.4-0.1,0.8-0.1,1.1c0,0.9,0.3,1.6,0.8,2.1c0.5,0.5,1.3,0.7,2.4,0.7
			c1.3,0,2.5-0.4,3.3-1.1s1.5-1.8,1.8-3.3l1.3-6.8H437.2z"/>
		<path class="st1" d="M445.3,397.1c0.8-0.4,1.9-0.6,3.1-0.6l-0.3,1.7l-0.5,0c-1.4,0-2.5,0.4-3.3,1.2c-0.9,0.8-1.5,2-1.8,3.5
			l-1.3,6.4h-1.7l2.5-12.6h1.6l-0.4,2.3C443.7,398.1,444.4,397.5,445.3,397.1z"/>
	</g>
	<g class="st3">
		<path class="st1" d="M186.2,427.5h1.7l-3.6,17.8h-1.7L186.2,427.5z"/>
		<path class="st1" d="M191.6,432.6h1.7l-2.5,12.6h-1.7L191.6,432.6z M192.3,429.5c-0.2-0.2-0.3-0.5-0.3-0.8c0-0.4,0.1-0.7,0.4-0.9
			c0.2-0.2,0.6-0.4,0.9-0.4c0.3,0,0.6,0.1,0.8,0.3c0.2,0.2,0.3,0.5,0.3,0.8c0,0.4-0.1,0.7-0.4,1s-0.6,0.4-1,0.4
			C192.8,429.9,192.5,429.8,192.3,429.5z"/>
		<path class="st1" d="M196.3,445c-0.9-0.3-1.6-0.7-2.1-1.1l0.8-1.3c0.5,0.4,1.1,0.8,1.9,1c0.8,0.3,1.6,0.4,2.5,0.4
			c1.2,0,2.1-0.2,2.8-0.6c0.6-0.4,1-0.9,1-1.7c0-0.4-0.1-0.7-0.4-1s-0.6-0.4-1-0.6c-0.4-0.1-0.9-0.3-1.7-0.4
			c-0.9-0.2-1.6-0.4-2.1-0.6c-0.5-0.2-1-0.5-1.4-0.9c-0.4-0.4-0.6-1-0.6-1.7c0-1.2,0.5-2.2,1.5-2.9c1-0.7,2.3-1.1,4-1.1
			c0.8,0,1.6,0.1,2.4,0.3c0.8,0.2,1.4,0.5,1.9,0.9l-0.7,1.4c-0.5-0.4-1-0.6-1.7-0.8c-0.6-0.2-1.3-0.3-2-0.3c-1.2,0-2,0.2-2.7,0.6
			c-0.6,0.4-1,1-1,1.7c0,0.4,0.1,0.8,0.4,1c0.3,0.3,0.6,0.4,1,0.6s1,0.3,1.7,0.4c0.9,0.2,1.6,0.4,2.1,0.6c0.5,0.2,1,0.5,1.4,0.9
			c0.4,0.4,0.6,1,0.6,1.7c0,1.2-0.5,2.2-1.5,2.9c-1,0.7-2.4,1-4.1,1C198.2,445.4,197.2,445.2,196.3,445z"/>
		<path class="st1" d="M210,441.4c-0.1,0.4-0.1,0.6-0.1,0.8c0,1.1,0.6,1.7,1.8,1.7c0.7,0,1.4-0.2,1.9-0.6l0.4,1.3
			c-0.7,0.5-1.7,0.8-2.8,0.8c-0.9,0-1.7-0.3-2.2-0.8c-0.6-0.5-0.8-1.2-0.8-2.1c0-0.4,0-0.7,0.1-1l1.5-7.4h-2.2l0.3-1.4h2.3l0.6-2.8
			h1.7l-0.6,2.8h3.8l-0.3,1.4h-3.8L210,441.4z"/>
		<path class="st1" d="M225.9,444.7c-0.9-0.4-1.5-1.1-2-1.9c-0.5-0.8-0.7-1.7-0.7-2.8c0-1.4,0.3-2.7,0.9-3.8c0.6-1.1,1.5-2,2.6-2.7
			c1.1-0.6,2.4-1,3.8-1c1.8,0,3.2,0.5,4.2,1.4c1,1,1.5,2.3,1.5,3.9c0,1.4-0.3,2.7-0.9,3.9c-0.6,1.1-1.5,2-2.6,2.7
			c-1.1,0.6-2.4,1-3.8,1C227.8,445.4,226.7,445.2,225.9,444.7z M231.8,443.1c0.8-0.5,1.5-1.2,2-2.1c0.5-0.9,0.7-1.9,0.7-3
			c0-1.2-0.4-2.2-1.1-2.9c-0.7-0.7-1.7-1-3.1-1c-1,0-2,0.3-2.8,0.8c-0.8,0.5-1.5,1.2-2,2.1c-0.5,0.9-0.7,1.9-0.7,3
			c0,1.2,0.4,2.2,1.1,2.9c0.7,0.7,1.7,1,3.1,1C230.1,443.9,231,443.6,231.8,443.1z"/>
		<path class="st1" d="M244,429.4c-0.4,0.4-0.7,1-0.9,1.9l-0.3,1.4h3.9l-0.3,1.4h-3.8l-2.2,11.2h-1.7l2.2-11.2h-2.3l0.3-1.4h2.3
			l0.3-1.6c0.2-1.2,0.7-2.1,1.5-2.8c0.7-0.6,1.7-1,2.9-1c0.5,0,1,0.1,1.4,0.2c0.4,0.1,0.8,0.3,1.1,0.6l-0.7,1.2
			c-0.5-0.4-1.1-0.6-1.8-0.6C245,428.8,244.4,429,244,429.4z"/>
		<path class="st1" d="M265.2,429.7l-5.9,6c1.4,0.1,2.5,0.5,3.3,1.3c0.8,0.7,1.2,1.7,1.2,3c0,1.1-0.3,2-0.9,2.9
			c-0.6,0.8-1.4,1.5-2.4,1.9s-2.2,0.7-3.6,0.7c-1.3,0-2.4-0.2-3.4-0.6c-1-0.4-1.8-0.9-2.3-1.6l1-1.3c0.5,0.6,1.1,1.1,2,1.4
			c0.9,0.4,1.8,0.5,2.9,0.5c1.6,0,2.8-0.3,3.7-1c0.9-0.7,1.3-1.6,1.3-2.8c0-1.9-1.4-2.9-4.1-2.9h-1.1l0.3-1.3l5.8-5.8h-8.5l0.3-1.5
			h10.8L265.2,429.7z"/>
		<path class="st1" d="M270,428.5h6.4c1.7,0,3.1,0.3,4.3,0.8c1.2,0.6,2.1,1.4,2.7,2.4c0.6,1,0.9,2.2,0.9,3.6c0,2-0.4,3.7-1.3,5.2
			c-0.9,1.5-2.1,2.7-3.7,3.5c-1.6,0.8-3.4,1.3-5.5,1.3h-7.2L270,428.5z M273.9,443.7c1.7,0,3.3-0.4,4.6-1.1c1.3-0.7,2.3-1.7,3-3
			c0.7-1.3,1-2.7,1-4.3c0-1.7-0.5-3-1.6-3.9c-1.1-1-2.6-1.4-4.7-1.4h-4.8l-2.7,13.7H273.9z"/>
		<path class="st1" d="M293.2,445c-0.9-0.3-1.6-0.7-2.1-1.1l0.8-1.3c0.5,0.4,1.1,0.8,1.9,1c0.8,0.3,1.6,0.4,2.5,0.4
			c1.2,0,2.1-0.2,2.8-0.6c0.6-0.4,1-0.9,1-1.7c0-0.4-0.1-0.7-0.4-1c-0.3-0.2-0.6-0.4-1-0.6s-0.9-0.3-1.7-0.4
			c-0.9-0.2-1.6-0.4-2.1-0.6c-0.5-0.2-1-0.5-1.4-0.9s-0.6-1-0.6-1.7c0-1.2,0.5-2.2,1.5-2.9c1-0.7,2.3-1.1,4-1.1
			c0.8,0,1.6,0.1,2.4,0.3c0.8,0.2,1.4,0.5,1.9,0.9l-0.7,1.4c-0.5-0.4-1-0.6-1.7-0.8c-0.6-0.2-1.3-0.3-2-0.3c-1.2,0-2,0.2-2.7,0.6
			c-0.6,0.4-1,1-1,1.7c0,0.4,0.1,0.8,0.4,1c0.3,0.3,0.6,0.4,1,0.6s1,0.3,1.7,0.4c0.9,0.2,1.6,0.4,2.1,0.6c0.5,0.2,1,0.5,1.4,0.9
			c0.4,0.4,0.6,1,0.6,1.7c0,1.2-0.5,2.2-1.5,2.9c-1,0.7-2.4,1-4.1,1C295.1,445.4,294.1,445.2,293.2,445z"/>
		<path class="st1" d="M306.8,444.7c-0.9-0.4-1.6-1.1-2-1.9c-0.5-0.8-0.7-1.7-0.7-2.8c0-1.4,0.3-2.7,0.9-3.8c0.6-1.1,1.5-2,2.6-2.7
			c1.1-0.6,2.4-1,3.8-1c1.2,0,2.2,0.2,3,0.6s1.5,1.1,2,1.9l-1.4,0.8c-0.7-1.2-1.9-1.9-3.7-1.9c-1,0-2,0.3-2.8,0.8
			c-0.8,0.5-1.5,1.2-2,2.1c-0.5,0.9-0.7,1.9-0.7,3c0,1.2,0.4,2.2,1.1,2.9c0.7,0.7,1.8,1,3.1,1c0.8,0,1.6-0.2,2.3-0.5
			c0.7-0.3,1.3-0.8,1.7-1.4l1.2,0.9c-0.6,0.8-1.3,1.3-2.2,1.8c-0.9,0.4-1.9,0.6-3,0.6C308.7,445.4,307.6,445.2,306.8,444.7z"/>
		<path class="st1" d="M319,439.4c0,0.1,0,0.3,0,0.5c0,1.3,0.4,2.3,1.1,2.9c0.7,0.7,1.8,1,3.3,1c0.8,0,1.6-0.1,2.3-0.4
			c0.7-0.3,1.3-0.7,1.8-1.2l0.8,1.2c-0.6,0.6-1.3,1.1-2.2,1.4c-0.9,0.3-1.8,0.5-2.8,0.5c-1.8,0-3.3-0.5-4.3-1.4
			c-1-1-1.6-2.3-1.6-3.9c0-1.4,0.3-2.7,0.9-3.8c0.6-1.1,1.4-2,2.5-2.7c1.1-0.6,2.3-1,3.6-1c1.7,0,3,0.5,4,1.4c1,1,1.5,2.3,1.5,3.9
			c0,0.5-0.1,1-0.2,1.5H319z M321,435.1c-0.9,0.8-1.5,1.8-1.8,3h9c0-0.1,0-0.3,0-0.5c0-1.2-0.4-2.1-1.1-2.7c-0.7-0.6-1.7-1-2.9-1
			C323,434,321.9,434.4,321,435.1z"/>
		<path class="st1" d="M343.9,433.6c0.8,0.7,1.2,1.7,1.2,3c0,0.4,0,0.9-0.1,1.4l-1.4,7.2h-1.7l1.4-7.2c0.1-0.4,0.1-0.8,0.1-1.2
			c0-0.9-0.3-1.6-0.8-2.1c-0.6-0.5-1.4-0.7-2.4-0.7c-1.4,0-2.5,0.4-3.4,1.1c-0.9,0.7-1.5,1.8-1.8,3.3l-1.3,6.8h-1.7l2.5-12.6h1.6
			l-0.4,2c1.2-1.4,2.8-2.1,4.9-2.1C342,432.5,343.1,432.9,343.9,433.6z"/>
		<path class="st1" d="M349.8,439.4c0,0.1,0,0.3,0,0.5c0,1.3,0.4,2.3,1.1,2.9c0.7,0.7,1.8,1,3.3,1c0.8,0,1.6-0.1,2.3-0.4
			c0.7-0.3,1.3-0.7,1.8-1.2l0.8,1.2c-0.6,0.6-1.3,1.1-2.2,1.4c-0.9,0.3-1.8,0.5-2.8,0.5c-1.8,0-3.3-0.5-4.3-1.4s-1.6-2.3-1.6-3.9
			c0-1.4,0.3-2.7,0.9-3.8c0.6-1.1,1.4-2,2.5-2.7c1.1-0.6,2.3-1,3.6-1c1.7,0,3,0.5,4,1.4s1.5,2.3,1.5,3.9c0,0.5-0.1,1-0.2,1.5H349.8z
			 M351.8,435.1c-0.9,0.8-1.5,1.8-1.8,3h9c0-0.1,0-0.3,0-0.5c0-1.2-0.4-2.1-1.1-2.7c-0.7-0.6-1.7-1-2.9-1
			C353.8,434,352.7,434.4,351.8,435.1z"/>
		<path class="st1" d="M363.5,445c-0.9-0.3-1.6-0.7-2.1-1.1l0.8-1.3c0.5,0.4,1.1,0.8,1.9,1c0.8,0.3,1.6,0.4,2.5,0.4
			c1.2,0,2.1-0.2,2.8-0.6c0.6-0.4,1-0.9,1-1.7c0-0.4-0.1-0.7-0.4-1c-0.3-0.2-0.6-0.4-1-0.6s-0.9-0.3-1.7-0.4
			c-0.9-0.2-1.6-0.4-2.1-0.6c-0.5-0.2-1-0.5-1.4-0.9s-0.6-1-0.6-1.7c0-1.2,0.5-2.2,1.5-2.9c1-0.7,2.3-1.1,4-1.1
			c0.8,0,1.6,0.1,2.4,0.3c0.8,0.2,1.4,0.5,1.9,0.9l-0.7,1.4c-0.5-0.4-1-0.6-1.7-0.8c-0.6-0.2-1.3-0.3-2-0.3c-1.2,0-2,0.2-2.7,0.6
			c-0.6,0.4-1,1-1,1.7c0,0.4,0.1,0.8,0.4,1c0.3,0.3,0.6,0.4,1,0.6s1,0.3,1.7,0.4c0.9,0.2,1.6,0.4,2.1,0.6c0.5,0.2,1,0.5,1.4,0.9
			c0.4,0.4,0.6,1,0.6,1.7c0,1.2-0.5,2.2-1.5,2.9c-1,0.7-2.4,1-4.1,1C365.4,445.4,364.4,445.2,363.5,445z"/>
		<path class="st1" d="M373.9,445c-0.2-0.2-0.4-0.5-0.4-0.9c0-0.4,0.1-0.7,0.4-1c0.3-0.3,0.6-0.4,0.9-0.4c0.4,0,0.6,0.1,0.9,0.4
			c0.2,0.2,0.3,0.5,0.3,0.9c0,0.4-0.1,0.7-0.4,1c-0.3,0.3-0.6,0.4-0.9,0.4C374.5,445.4,374.2,445.3,373.9,445z"/>
	</g>
</g>
</svg>
