<?xml version="1.0" encoding="utf-8"?>
<!-- Generator: Adobe Illustrator 26.0.3, SVG Export Plug-In . SVG Version: 6.00 Build 0)  -->
<svg version="1.1" id="Layer_1" xmlns="http://www.w3.org/2000/svg" xmlns:xlink="http://www.w3.org/1999/xlink" x="0px" y="0px"
	 viewBox="0 0 36 36" style="enable-background:new 0 0 36 36;" xml:space="preserve">
<style type="text/css">
	.st0{fill:#78909D;}
	.st1{fill:none;}
	.st2{fill:#FFFFFF;}
</style>
<g>
	<g>
		<path class="st0" d="M30,36H6h0c-3.3,0-6-2.7-6-6v0V6v0c0-3.3,2.7-6,6-6h0h24h0c3.3,0,6,2.7,6,6v0v24v0C36,33.3,33.3,36,30,36
			L30,36z"/>
	</g>
</g>
<g>
	<g>
		<rect x="6" y="6" class="st1" width="24" height="24"/>
	</g>
	<g>
		<path class="st2" d="M24,21v3H12v-3h-2v3c0,1.1,0.9,2,2,2h12c1.1,0,2-0.9,2-2v-3H24z M23,17l-1.4-1.4L19,18.2V10h-2v8.2l-2.6-2.6
			L13,17l5,5L23,17z"/>
	</g>
</g>
</svg>
