<?xml version="1.0" encoding="utf-8"?>
<!-- Generator: Adobe Illustrator 26.0.3, SVG Export Plug-In . SVG Version: 6.00 Build 0)  -->
<svg version="1.1" id="Layer_1" xmlns="http://www.w3.org/2000/svg" xmlns:xlink="http://www.w3.org/1999/xlink" x="0px" y="0px"
	 viewBox="0 0 36 36" style="enable-background:new 0 0 36 36;" xml:space="preserve">
<style type="text/css">
	.st0{fill:#78909D;}
	.st1{fill:none;}
	.st2{fill:#FFFFFF;}
</style>
<g>
	<g>
		<path class="st0" d="M30,36H6h0c-3.3,0-6-2.7-6-6v0V6v0c0-3.3,2.7-6,6-6h0h24h0c3.3,0,6,2.7,6,6v0v24v0C36,33.3,33.3,36,30,36
			L30,36z"/>
	</g>
</g>
<g>
	<path class="st1" d="M6,6h24v24H6V6z"/>
	<path class="st2" d="M20.1,15l0.9,0.9L11.9,25H11v-0.9L20.1,15 M23.7,9c-0.2,0-0.5,0.1-0.7,0.3l-1.8,1.8l3.8,3.8l1.8-1.8
		c0.4-0.4,0.4-1,0-1.4l-2.3-2.3C24.2,9.1,23.9,9,23.7,9z M20.1,12.2L9,23.2V27h3.8l11.1-11.1C23.8,15.9,20.1,12.2,20.1,12.2z"/>
</g>
</svg>
