<?xml version="1.0" encoding="utf-8"?>
<!-- Generator: Adobe Illustrator 26.0.3, SVG Export Plug-In . SVG Version: 6.00 Build 0)  -->
<svg version="1.1" id="Layer_1" xmlns="http://www.w3.org/2000/svg" xmlns:xlink="http://www.w3.org/1999/xlink" x="0px" y="0px"
	 viewBox="0 0 36 36" style="enable-background:new 0 0 36 36;" xml:space="preserve">
<style type="text/css">
	.st0{fill:#78909D;}
	.st1{fill:none;}
	.st2{fill:#FFFFFF;}
</style>
<path class="st0" d="M30,36H6c-3.3,0-6-2.7-6-6l0,0V6l0,0c0-3.3,2.7-6,6-6l0,0h24c3.3,0,6,2.7,6,6l0,0l0,0v24l0,0
	C36,33.3,33.3,36,30,36z"/>
<path class="st1" d="M6,6h24v24H6V6z"/>
<path class="st2" d="M10,14h4v-4h-4V14z M16,26h4v-4h-4V26z M10,26h4v-4h-4V26z M10,20h4v-4h-4V20z M16,20h4v-4h-4V20z M22,10v4h4
	v-4H22z M16,14h4v-4h-4V14z M22,20h4v-4h-4V20z M22,26h4v-4h-4V26z"/>
</svg>
