<?xml version="1.0" encoding="utf-8"?>
<!-- Generator: Adobe Illustrator 26.0.3, SVG Export Plug-In . SVG Version: 6.00 Build 0)  -->
<svg version="1.1" id="Layer_1" xmlns="http://www.w3.org/2000/svg" xmlns:xlink="http://www.w3.org/1999/xlink" x="0px" y="0px"
	 viewBox="0 0 841.9 595.3" style="enable-background:new 0 0 841.9 595.3;" xml:space="preserve">
<style type="text/css">
	.st0{fill:none;}
	.st1{fill:#FFFFFF;}
	.st2{fill:#265787;}
	.st3{fill:#EA7600;}
	.st4{fill:#236192;}
	.st5{font-family:'OpenSans-SemiBold';}
	.st6{font-size:5.008px;}
	.st7{fill:#BB464B;}
	.st8{fill:#E0684B;}
	.st9{fill:#E0DED8;}
	.st10{fill:#D5D2CA;}
	.st11{fill:#1199FF;}
	.st12{fill:#EEAA00;}
	.st13{fill:#EE6622;}
	.st14{fill:#CC2255;}
	.st15{fill:#333333;}
</style>
<g transform="matrix(1,0,0,1,-7.78614,0)">
	<g id="blender_logo_no_socket" transform="matrix(1,0,0,0.835201,7.78614,-42.9907)">
		<rect x="108.2" y="378.7" class="st0" width="181" height="58.2"/>
		<g transform="matrix(4.16667,0,0,4.98882,-191.107,2195.04)">
			<g transform="matrix(5.19226,0,0,5.19226,-1154.33,1375.29)">
				<path class="st1" d="M237.2-333.8c0-0.2,0.1-0.3,0.2-0.4c0.1-0.1,0.3-0.2,0.5-0.2c0.2,0,0.3,0.1,0.5,0.2
					c0.1,0.1,0.2,0.3,0.2,0.4c0,0.2-0.1,0.3-0.2,0.4c-0.1,0.1-0.3,0.2-0.5,0.2c-0.2,0-0.4-0.1-0.5-0.2
					C237.3-333.4,237.2-333.6,237.2-333.8z"/>
			</g>
			<g transform="matrix(2.66418,0,0,2.66418,-520.324,532.513)">
				<path class="st2" d="M225-334.1c0-0.2,0.1-0.3,0.2-0.4c0.1-0.1,0.3-0.2,0.5-0.2c0.2,0,0.3,0.1,0.5,0.2c0.1,0.1,0.2,0.3,0.2,0.4
					c0,0.2-0.1,0.3-0.2,0.4c-0.1,0.1-0.3,0.2-0.5,0.2c-0.2,0-0.4-0.1-0.5-0.2C225-333.8,225-333.9,225-334.1z"/>
			</g>
			<g transform="matrix(2.66418,0,0,2.66418,-520.324,532.513)">
				<path class="st3" d="M223.9-333.8c0,0.1,0,0.2,0.1,0.3c0.1,0.2,0.2,0.4,0.3,0.6c0.2,0.2,0.4,0.3,0.6,0.4
					c0.2,0.1,0.5,0.2,0.8,0.2c0.3,0,0.5-0.1,0.8-0.2c0.2-0.1,0.4-0.2,0.6-0.4c0.2-0.2,0.3-0.4,0.3-0.6c0-0.1,0.1-0.2,0.1-0.3
					c0-0.1,0-0.2,0-0.3c0-0.2-0.1-0.4-0.2-0.6c-0.1-0.2-0.2-0.3-0.4-0.4l0,0l-1.6-1.2c0,0,0,0,0,0c-0.1-0.1-0.3-0.1-0.4,0
					c-0.1,0.1-0.1,0.2,0,0.3l0,0l0.7,0.5l-2,0h0c-0.2,0-0.3,0.1-0.4,0.2c0,0.1,0.1,0.3,0.3,0.3l0,0l1,0l-1.8,1.4c0,0,0,0,0,0
					c-0.2,0.1-0.2,0.3-0.1,0.5c0.1,0.1,0.3,0.1,0.5,0l1-0.8C223.9-333.9,223.9-333.8,223.9-333.8z M226.4-333.4
					c-0.2,0.2-0.5,0.3-0.8,0.3c-0.3,0-0.6-0.1-0.8-0.3c-0.1-0.1-0.2-0.2-0.2-0.3c0-0.1-0.1-0.2,0-0.4c0-0.1,0-0.2,0.1-0.4
					c0.1-0.1,0.1-0.2,0.2-0.3c0.2-0.2,0.4-0.2,0.7-0.2c0.3,0,0.5,0.1,0.7,0.2c0.1,0.1,0.2,0.2,0.2,0.3c0.1,0.1,0.1,0.2,0.1,0.4
					c0,0.1,0,0.3,0,0.4C226.6-333.6,226.5-333.5,226.4-333.4z"/>
			</g>
			<g transform="matrix(2.66418,0,0,2.66418,-520.324,532.513)">
				<path class="st2" d="M235.7-334.1c0-0.2,0.1-0.3,0.3-0.3c0.2,0,0.3,0.1,0.3,0.3H235.7z M236.4-333.7c-0.1,0.1-0.2,0.2-0.3,0.2
					c-0.2,0-0.3-0.1-0.3-0.3h1.2v-0.1c0-0.5-0.3-0.8-0.8-0.8c-0.5,0-0.8,0.3-0.8,0.7c0,0.5,0.3,0.7,0.8,0.7c0.3,0,0.5-0.1,0.7-0.3
					L236.4-333.7z"/>
			</g>
			<g transform="matrix(2.66418,0,0,2.66418,-520.324,532.513)">
				<path class="st2" d="M230.5-334.1c0-0.2,0.1-0.3,0.3-0.3c0.2,0,0.3,0.1,0.3,0.3H230.5z M231.2-333.7c-0.1,0.1-0.2,0.2-0.3,0.2
					c-0.2,0-0.3-0.1-0.3-0.3h1.2v-0.1c0-0.5-0.3-0.8-0.8-0.8c-0.5,0-0.8,0.3-0.8,0.7c0,0.5,0.3,0.7,0.8,0.7c0.3,0,0.5-0.1,0.7-0.3
					L231.2-333.7z"/>
			</g>
			<g transform="matrix(2.66418,0,0,2.66418,-520.324,532.513)">
				<rect x="229.5" y="-335" class="st2" width="0.4" height="1.7"/>
			</g>
			<g transform="matrix(2.66418,0,0,2.66418,-520.324,532.513)">
				<path class="st2" d="M231.8-334.5h0.4v0.1c0.2-0.2,0.3-0.2,0.5-0.2c0.2,0,0.4,0.1,0.5,0.2c0.1,0.1,0.1,0.3,0.1,0.4v0.8h-0.4
					v-0.7c0-0.3-0.1-0.4-0.3-0.4c-0.2,0-0.4,0.1-0.4,0.4v0.7h-0.4V-334.5z"/>
			</g>
			<g transform="matrix(2.66418,0,0,2.66418,-520.324,532.513)">
				<path class="st2" d="M234.7-333.9c0,0.2-0.2,0.4-0.4,0.4c-0.2,0-0.4-0.2-0.4-0.4c0-0.2,0.2-0.4,0.4-0.4
					C234.5-334.3,234.7-334.2,234.7-333.9z M234.7-334.5c-0.1-0.1-0.3-0.2-0.5-0.2c-0.5,0-0.8,0.3-0.8,0.7c0,0.4,0.3,0.7,0.8,0.7
					c0.2,0,0.4-0.1,0.5-0.2v0.1h0.4v-1.8l-0.4,0.1V-334.5z"/>
			</g>
			<g transform="matrix(2.66418,0,0,2.66418,-520.324,532.513)">
				<path class="st2" d="M228.5-334.3c0.2,0,0.4,0.2,0.4,0.4c0,0.2-0.2,0.4-0.4,0.4c-0.2,0-0.4-0.2-0.4-0.4
					C228.1-334.2,228.2-334.3,228.5-334.3z M228.1-335l-0.4-0.1v1.8h0.4v-0.1c0.1,0.1,0.3,0.2,0.5,0.2c0.5,0,0.8-0.3,0.8-0.7
					c0-0.4-0.3-0.7-0.8-0.7c-0.2,0-0.4,0.1-0.5,0.2V-335z"/>
			</g>
			<g transform="matrix(2.66418,0,0,2.66418,-520.324,532.513)">
				<path class="st2" d="M237-333.2v-1.3h0.4v0.1c0.1-0.2,0.3-0.2,0.4-0.2c0,0,0.1,0,0.1,0v0.4c0,0-0.1,0-0.1,0
					c-0.2,0-0.4,0.2-0.4,0.4v0.6H237z"/>
			</g>
			<g transform="matrix(0.271988,0,0,0.271988,-78.0964,-584.901)">
				<text transform="matrix(0.8824 0 0 0.8824 710.0738 830.8259)" class="st4 st5 st6">®</text>
			</g>
		</g>
	</g>
</g>
<g>
	<path class="st7" d="M380.4,285.4h4.1v9.3c0.7-1.2,2.2-2.4,5.1-2.4c4.5,0,7,3.7,7,8.6c0,5-2.6,9.3-7.5,9.3c-2.6,0-3.8-0.9-4.7-2.2
		c0,0.6-0.1,1.2-0.2,1.8h-4c0-1.9,0-3.8,0-5.7V285.4z M388.5,295.6c-3,0-4.1,2-4.1,5.7c0,3.1,1,5.6,4,5.6c2.6,0,4-2.3,4-5.9
		C392.4,297.9,391.1,295.6,388.5,295.6z"/>
	<path class="st7" d="M413.5,305.6c0,1.6,0.1,3.8,0.2,4.2h-4c-0.1-0.4-0.2-1.2-0.3-1.9c-0.6,1-1.8,2.3-5,2.3c-4.1,0-5.8-2.7-5.8-5.3
		c0-3.9,3.1-5.7,8.1-5.7h2.6V298c0-1.3-0.4-2.7-3-2.7c-2.3,0-2.7,1-3,2.3h-4c0.2-2.8,2-5.4,7.1-5.3c4.5,0,6.9,1.8,6.9,5.8V305.6z
		 M409.5,301.8h-2.2c-3,0-4.4,0.9-4.4,2.8c0,1.4,0.9,2.5,2.8,2.5c3.4,0,3.8-2.3,3.8-4.9L409.5,301.8z"/>
	<path class="st7" d="M417.2,285.4h4.1v9.3c0.7-1.2,2.2-2.4,5.1-2.4c4.5,0,7,3.7,7,8.6c0,5-2.6,9.3-7.5,9.3c-2.6,0-3.8-0.9-4.7-2.2
		c0,0.6-0.1,1.2-0.2,1.8h-4c0-1.9,0-3.8,0-5.7V285.4z M425.2,295.6c-3,0-4.1,2-4.1,5.7c0,3.1,1,5.6,4,5.6c2.6,0,4-2.3,4-5.9
		C429.2,297.9,427.9,295.6,425.2,295.6z"/>
	<path class="st7" d="M438.6,292.7c2.1,6.7,3.7,11.7,4,13.3h0c0.4-1.8,1.5-5.7,3.8-13.3h4.1l-5.9,17.7c-1.7,5-3,6.4-6.9,6.4
		c-0.7,0-1.4,0-2.1-0.1v-3.4c0.4,0,0.9,0.1,1.3,0.1c1.9,0,2.7-0.7,3.5-2.9l-6.3-17.7H438.6z"/>
	<path class="st7" d="M452.4,309.8v-24.3h4.1v24.3H452.4z"/>
	<path class="st7" d="M476.1,301.2c0,5.1-3,9-8.4,9c-5.2,0-8.2-3.8-8.2-8.9c0-5.2,3.1-9,8.4-9C472.9,292.3,476.1,295.8,476.1,301.2z
		 M463.7,301.2c0,3.5,1.6,5.7,4.1,5.7c2.6,0,4-2.2,4-5.6c0-3.7-1.4-5.7-4.1-5.7C465.2,295.6,463.7,297.5,463.7,301.2z"/>
	<path class="st7" d="M479.1,297c0-1.5,0-3,0-4.3h4c0.1,0.8,0.2,1.6,0.2,2.4c0.6-1.2,2-2.8,5.1-2.8c3.4,0,5.7,2.2,5.7,6.6v10.9h-4.1
		v-10.4c0-2.1-0.8-3.7-3-3.7c-2.4,0-3.6,1.6-3.6,4.7v9.4h-4.1V297z"/>
	<path class="st7" d="M497.9,309.8v-5.5h4.4v5.5H497.9z"/>
	<path class="st7" d="M509.2,293v17.6c0,4.6-1.1,6.1-4.4,6.1c-0.1,0-0.8,0-1-0.1v-2c0.2,0,0.5,0,0.7,0c2.2,0,2.5-1.2,2.5-3.7v-18
		H509.2z M506.9,288.7v-3.4h2.2v3.4H506.9z"/>
	<path class="st7" d="M514.2,305.1c0.5,2,2,3.2,4.5,3.2c2.7,0,3.8-1.2,3.8-3c0-1.8-0.8-2.6-4.3-3.4c-4.6-1.1-5.6-2.5-5.6-4.7
		c0-2.3,1.8-4.6,5.8-4.6c4,0,5.8,2.4,6.1,4.8h-2.2c-0.3-1.3-1.3-2.9-4-2.9c-2.7,0-3.4,1.3-3.4,2.5c0,1.4,0.7,2.1,3.9,2.9
		c4.9,1.2,6,2.8,6,5.3c0,3-2.4,5-6.2,5c-4.1,0-6.2-2.1-6.6-5.1L514.2,305.1z"/>
	<path class="st1" d="M351.5,273.3l-21,12.2v24.3l21,12.2l21-12.2v-24.3L351.5,273.3z"/>
	<polygon class="st8" points="372.6,285.5 366,281.7 359.7,285.3 366.3,289.1 	"/>
	<polygon class="st8" points="336.8,289.1 357.9,277 351.5,273.3 330.5,285.5 	"/>
	<polygon class="st8" points="345,301.4 351.5,305.2 358.1,301.4 351.5,297.6 	"/>
	<polygon class="st7" points="366.3,289.1 366.3,306.1 351.5,314.6 336.8,306.1 336.8,289.1 330.5,285.5 330.5,309.8 351.5,321.9 
		372.6,309.8 372.6,285.5 	"/>
	<polygon class="st7" points="351.5,290 345,293.8 345,301.4 351.5,297.6 358.1,301.4 358.1,293.8 	"/>
	<polygon class="st9" points="366.3,289.1 358.1,293.8 358.1,301.4 351.5,305.2 351.5,314.6 366.3,306.1 	"/>
	<polygon class="st10" points="336.8,289.1 345,293.8 345,301.4 351.5,305.2 351.5,314.6 336.8,306.1 	"/>
	<polygon class="st1" points="357.9,277 366,281.7 359.7,285.3 366.3,289.1 358.1,293.8 351.5,290 345,293.8 336.8,289.1 	"/>
</g>
<g>
	<polygon class="st11" points="588.9,318.1 578.2,307.5 599.5,307.5 	"/>
	<rect x="578.2" y="299.9" class="st12" width="21.3" height="7.6"/>
	<rect x="578.2" y="292.3" class="st13" width="21.3" height="7.6"/>
	<polygon class="st14" points="599.5,292.3 578.2,292.3 578.2,287.8 582.8,283.2 594.9,283.2 599.5,287.8 	"/>
	<path class="st15" d="M613.6,298.4c0,0-15.3-15.4-16.1-16l5.1-5.1c0.9-0.9,0.9-2.3,0-3.2c-0.9-0.9-2.3-0.9-3.2,0l-6.1,6.1
		c0,0,0,0.1-0.1,0.1c-1.4-0.4-2.8-0.7-4.3-0.7l-0.1,0l-0.1,0c-1.5,0-3,0.3-4.3,0.7c0,0,0-0.1-0.1-0.1l-6.1-6.1
		c-0.9-0.9-2.3-0.9-3.2,0c-0.9,0.9-0.9,2.3,0,3.2l5.1,5.1c-0.8,0.6-16.1,15.9-16.1,15.9l-0.1,0.1c-2.3,2.5-2.9,6.1-1.5,9.3
		c1.4,3.2,4.3,5.1,7.7,5.1c2.7,0,5.2-1.3,6.8-3.3c0.7,1.1,1.6,2.2,2.6,3.2l9.2,9.2l9.2-9.2c1-1,1.8-2.1,2.6-3.2c1.6,2,4,3.3,6.8,3.3
		c3.4,0,6.4-2,7.7-5.1C616.5,304.5,616,300.9,613.6,298.4z M574.4,304.1c0,2.5-2.1,4.1-4.1,4.1c-1.6,0-2.9-0.9-3.6-2.4
		c-0.5-1.2-0.6-3,0.7-4.4l7-7v5.4c0,0,0,0,0,0V304.1z M598.7,299.9c0,3.8-1.3,7.1-3.9,9.6l-6,6l-6-6c-2.5-2.5-3.9-5.9-3.9-9.6v-5.8
		c0-2.4,0.8-4.6,2.1-6.4l0,0l0,0c1.8-2.2,4.5-3.7,7.7-3.8c3.2,0.1,5.9,1.5,7.7,3.8l0,0l0,0c1.4,1.7,2.1,3.9,2.1,6.4V299.9z
		 M610.9,305.9c-0.7,1.5-2,2.4-3.6,2.4c-2,0-4.1-1.6-4.1-4.1v-4.2c0,0,0,0,0,0v-5.4l7,7C611.6,302.9,611.5,304.7,610.9,305.9z"/>
	<g>
		<path class="st15" d="M624.6,287.8h4.6v7.7h8.9v-7.7h4.6v20.8h-4.6v-9h-8.9v9h-4.6V287.8z"/>
		<path class="st15" d="M660.1,308.5h-4.2v-1.9h-0.1c-0.2,0.3-0.4,0.5-0.6,0.8c-0.2,0.3-0.5,0.5-0.9,0.7c-0.4,0.2-0.8,0.4-1.2,0.5
			c-0.5,0.1-0.9,0.2-1.5,0.2c-1.1,0-2-0.2-2.7-0.5c-0.7-0.3-1.2-0.8-1.6-1.4c-0.4-0.6-0.6-1.3-0.8-2.1c-0.1-0.8-0.2-1.7-0.2-2.7
			v-7.9h4.4v7c0,0.4,0,0.8,0,1.3c0,0.4,0.1,0.8,0.3,1.2c0.1,0.4,0.4,0.7,0.7,0.9c0.3,0.2,0.7,0.4,1.3,0.4c0.6,0,1-0.1,1.4-0.3
			c0.4-0.2,0.6-0.5,0.8-0.8c0.2-0.3,0.3-0.7,0.4-1.2c0.1-0.4,0.1-0.9,0.1-1.3v-7.1h4.4V308.5z"/>
		<path class="st15" d="M676.7,306.1c-0.7,0.9-1.6,1.6-2.7,2.1c-1.1,0.5-2.2,0.7-3.3,0.7c-1.1,0-2.1-0.2-3.1-0.5
			c-1-0.4-1.8-0.9-2.5-1.5c-0.7-0.7-1.3-1.4-1.7-2.4c-0.4-0.9-0.6-1.9-0.6-3.1c0-1.1,0.2-2.2,0.6-3.1c0.4-0.9,1-1.7,1.7-2.4
			c0.7-0.7,1.6-1.2,2.5-1.5c1-0.4,2-0.5,3.1-0.5c1,0,1.9,0.2,2.8,0.5c0.8,0.4,1.5,0.9,2.1,1.5c0.6,0.7,1,1.4,1.3,2.4
			c0.3,0.9,0.5,1.9,0.5,3.1v1.4h-10.2c0.2,0.8,0.6,1.5,1.1,2c0.6,0.5,1.3,0.7,2.2,0.7c0.7,0,1.3-0.2,1.8-0.5
			c0.5-0.3,0.9-0.7,1.3-1.2L676.7,306.1z M673,299.8c0-0.7-0.2-1.4-0.7-1.9c-0.5-0.5-1.2-0.8-2-0.8c-0.5,0-0.9,0.1-1.3,0.2
			c-0.4,0.2-0.7,0.4-1,0.6c-0.3,0.2-0.5,0.5-0.6,0.9c-0.1,0.3-0.2,0.7-0.2,1H673z"/>
		<path class="st15" d="M680.4,286.4h4.4v9.4h0.1c0.5-0.7,1.2-1.2,2-1.5c0.8-0.3,1.6-0.4,2.6-0.4c1,0,1.9,0.2,2.7,0.6
			c0.8,0.4,1.5,1,2,1.7c0.6,0.7,1,1.5,1.3,2.4c0.3,0.9,0.5,1.9,0.5,2.9c0,1.1-0.2,2.1-0.5,3c-0.3,0.9-0.8,1.7-1.4,2.3
			c-0.6,0.7-1.4,1.2-2.2,1.5c-0.9,0.4-1.8,0.5-2.9,0.5c-0.5,0-1-0.1-1.4-0.2c-0.5-0.1-0.9-0.3-1.2-0.5c-0.4-0.2-0.7-0.5-1-0.7
			c-0.3-0.3-0.5-0.5-0.7-0.8h-0.1v1.9h-4V286.4z M684.5,301.4c0,1.1,0.3,1.9,0.9,2.6c0.6,0.7,1.5,1,2.6,1c1.1,0,2-0.3,2.6-1
			c0.6-0.7,0.9-1.5,0.9-2.6c0-1.1-0.3-1.9-0.9-2.6c-0.6-0.7-1.5-1-2.6-1c-1.1,0-2,0.3-2.6,1C684.8,299.5,684.5,300.3,684.5,301.4z"
			/>
		<path class="st15" d="M712,306.1c-0.7,0.9-1.6,1.6-2.7,2.1c-1.1,0.5-2.2,0.7-3.3,0.7c-1.1,0-2.1-0.2-3.1-0.5s-1.8-0.9-2.5-1.5
			c-0.7-0.7-1.3-1.4-1.7-2.4c-0.4-0.9-0.6-1.9-0.6-3.1c0-1.1,0.2-2.2,0.6-3.1c0.4-0.9,1-1.7,1.7-2.4c0.7-0.7,1.6-1.2,2.5-1.5
			s2-0.5,3.1-0.5c1,0,1.9,0.2,2.8,0.5c0.8,0.4,1.5,0.9,2.1,1.5c0.6,0.7,1,1.4,1.3,2.4c0.3,0.9,0.5,1.9,0.5,3.1v1.4h-10.2
			c0.2,0.8,0.6,1.5,1.1,2c0.6,0.5,1.3,0.7,2.2,0.7c0.7,0,1.3-0.2,1.8-0.5c0.5-0.3,0.9-0.7,1.3-1.2L712,306.1z M708.3,299.8
			c0-0.7-0.2-1.4-0.7-1.9c-0.5-0.5-1.2-0.8-2-0.8c-0.5,0-0.9,0.1-1.3,0.2c-0.4,0.2-0.7,0.4-1,0.6c-0.3,0.2-0.5,0.5-0.6,0.9
			s-0.2,0.7-0.2,1H708.3z"/>
		<path class="st15" d="M728.8,306.1c-0.7,0.9-1.6,1.6-2.7,2.1c-1.1,0.5-2.2,0.7-3.3,0.7c-1.1,0-2.1-0.2-3.1-0.5
			c-1-0.4-1.8-0.9-2.5-1.5c-0.7-0.7-1.3-1.4-1.7-2.4c-0.4-0.9-0.6-1.9-0.6-3.1c0-1.1,0.2-2.2,0.6-3.1c0.4-0.9,1-1.7,1.7-2.4
			c0.7-0.7,1.6-1.2,2.5-1.5c1-0.4,2-0.5,3.1-0.5c1,0,1.9,0.2,2.8,0.5s1.5,0.9,2.1,1.5c0.6,0.7,1,1.4,1.3,2.4
			c0.3,0.9,0.5,1.9,0.5,3.1v1.4h-10.2c0.2,0.8,0.6,1.5,1.1,2s1.3,0.7,2.2,0.7c0.7,0,1.3-0.2,1.8-0.5c0.5-0.3,0.9-0.7,1.3-1.2
			L728.8,306.1z M725.1,299.8c0-0.7-0.2-1.4-0.7-1.9c-0.5-0.5-1.2-0.8-2-0.8c-0.5,0-0.9,0.1-1.3,0.2c-0.4,0.2-0.7,0.4-1,0.6
			c-0.3,0.2-0.5,0.5-0.6,0.9c-0.1,0.3-0.2,0.7-0.2,1H725.1z"/>
	</g>
</g>
</svg>
