<?xml version="1.0" encoding="utf-8"?>
<!-- Generator: Adobe Illustrator 26.5.0, SVG Export Plug-In . SVG Version: 6.00 Build 0)  -->
<svg version="1.1" id="Layer_1" xmlns="http://www.w3.org/2000/svg" xmlns:xlink="http://www.w3.org/1999/xlink" x="0px" y="0px"
	 viewBox="0 0 24 24" style="enable-background:new 0 0 24 24;" xml:space="preserve">
<style type="text/css">
	.st0{fill:#FFFFFF;}
</style>
<path class="st0" d="M6,18l-2.3,2.3c-0.3,0.3-0.7,0.4-1.1,0.2C2.2,20.3,2,20,2,19.6V4c0-0.5,0.2-1,0.6-1.4S3.5,2,4,2h16
	c0.6,0,1,0.2,1.4,0.6S22,3.4,22,4v12c0,0.5-0.2,1-0.6,1.4S20.6,18,20,18H6z M7,14h6c0.3,0,0.5-0.1,0.7-0.3c0.2-0.2,0.3-0.4,0.3-0.7
	s-0.1-0.5-0.3-0.7C13.5,12.1,13.3,12,13,12H7c-0.3,0-0.5,0.1-0.7,0.3C6.1,12.5,6,12.7,6,13s0.1,0.5,0.3,0.7S6.7,14,7,14z M7,11h10
	c0.3,0,0.5-0.1,0.7-0.3c0.2-0.2,0.3-0.4,0.3-0.7s-0.1-0.5-0.3-0.7C17.5,9.1,17.3,9,17,9H7C6.7,9,6.5,9.1,6.3,9.3C6.1,9.5,6,9.7,6,10
	s0.1,0.5,0.3,0.7C6.5,10.9,6.7,11,7,11z M7,8h10c0.3,0,0.5-0.1,0.7-0.3C17.9,7.5,18,7.3,18,7s-0.1-0.5-0.3-0.7C17.5,6.1,17.3,6,17,6
	H7C6.7,6,6.5,6.1,6.3,6.3C6.1,6.5,6,6.7,6,7s0.1,0.5,0.3,0.7S6.7,8,7,8z"/>
</svg>
